{
.appVersion = "939";
DisplayStrings = (
"/gim-arm"
);
copyright = "Copyright 2011 Google Inc. All Rights Reserved.";
customParameters = (
{
name = license;
value = "Licensed under the Apache License, Version 2.0";
},
{
name = licenseURL;
value = "http://www.apache.org/licenses/LICENSE-2.0";
},
{
name = vendorID;
value = GOOG;
},
{
name = panose;
value = (
2,
0,
0,
0,
0,
0,
0,
0,
0,
0
);
},
{
name = unicodeRanges;
value = (
0,
1,
2,
3,
4,
5,
6,
7,
9,
29,
30,
31,
32,
33,
34,
35,
36,
37,
38,
40,
45,
60,
62,
64,
69
);
},
{
name = codePageRanges;
value = (
1252,
1250,
1251,
1253,
1254,
1257,
1258
);
},
{
name = glyphOrder;
value = (
.notdef,
uni0000,
uni0002,
uni0009,
uni000D,
space,
exclam,
quotedbl,
numbersign,
dollar,
percent,
ampersand,
quotesingle,
parenleft,
parenright,
asterisk,
plus,
comma,
hyphen,
period,
slash,
zero,
one,
two,
three,
four,
five,
six,
seven,
eight,
nine,
colon,
semicolon,
less,
equal,
greater,
question,
at,
A,
B,
C,
D,
E,
F,
G,
H,
I,
J,
K,
L,
M,
N,
O,
P,
Q,
R,
S,
T,
U,
V,
W,
X,
Y,
Z,
bracketleft,
backslash,
bracketright,
asciicircum,
underscore,
grave,
a,
b,
c,
d,
e,
f,
g,
h,
i,
j,
k,
l,
m,
n,
o,
p,
q,
r,
s,
t,
u,
v,
w,
x,
y,
z,
braceleft,
bar,
braceright,
asciitilde,
exclamdown,
cent,
sterling,
currency,
yen,
brokenbar,
section,
dieresis,
copyright,
ordfeminine,
guillemotleft,
logicalnot,
registered,
macron,
degree,
plusminus,
twosuperior,
threesuperior,
acute,
mu,
paragraph,
periodcentered,
cedilla,
onesuperior,
ordmasculine,
guillemotright,
onequarter,
onehalf,
threequarters,
questiondown,
AE,
multiply,
Oslash,
Thorn,
germandbls,
ae,
eth,
divide,
oslash,
thorn,
dcroat,
Hbar,
dotlessi,
kgreenlandic,
Lslash,
lslash,
Eng,
eng,
OE,
oe,
longs,
uni0180,
uni0181,
uni0182,
uni0183,
uni0184,
uni0185,
uni0186,
uni0187,
uni0188,
uni0189,
uni018A,
uni018B,
uni018C,
uni018D,
uni018E,
uni018F,
uni0190,
uni0191,
florin,
uni0193,
uni0194,
uni0195,
uni0197,
uni0198,
uni0199,
uni019A,
uni019B,
uni019C,
uni019D,
Ohorn,
ohorn,
uni01A2,
uni01A3,
uni01A4,

glyphs = (
{
glyphname = .notdef;
lastChange = "2017-05-19 14:51:26 +0000";
layers = (
{
layerId = "2831174B-BB35-4064-B049-1570B14F4C27";
paths = (
{
closed = 1;
nodes = (
"808 1456 LINE",
"100 1456 LINE",
"100 0 LINE",
"808 0 LINE"
);
},
{
closed = 1;
nodes = (
"452 796 LINE",
"194 1402 LINE",
"709 1402 LINE"
);
},
{
closed = 1;
nodes = (
"754 84 LINE",
"480 728 LINE",
"754 1372 LINE"
);
},
{
closed = 1;
nodes = (
"154 96 LINE",
"154 1360 LINE",
"422 728 LINE"
);
},
{
closed = 1;
nodes = (
"709 54 LINE",
"194 54 LINE",
"452 660 LINE"
);
}
);
width = 918;
}
);
note = .notdef;
},
{
glyphname = exclam;
lastChange = "2017-05-19 14:51:26 +0000";
layers = (
{
layerId = "2831174B-BB35-4064-B049-1570B14F4C27";
paths = (
{
closed = 1;
nodes = (
"141 411 LINE",
"305 411 LINE",
"499 1456 LINE",
"309 1456 LINE"
);
},
{
closed = 1;
nodes = (
"67 29 OFFCURVE",
"112 -14 OFFCURVE",
"173 -13 CURVE SMOOTH",
"234 -12 OFFCURVE",
"280 35 OFFCURVE",
"280 96 CURVE SMOOTH",
"281 157 OFFCURVE",
"235 202 OFFCURVE",
"174 201 CURVE SMOOTH",
"111 200 OFFCURVE",
"68 153 OFFCURVE",
"67 90 CURVE SMOOTH"
);
}
);
width = 512;
}
);
note = exclam;
unicode = 0021;
},
{
glyphname = quotedbl;
lastChange = "2017-05-19 14:51:26 +0000";
layers = (
{
layerId = "2831174B-BB35-4064-B049-1570B14F4C27";
paths = (
{
closed = 1;
nodes = (
"279 1536 LINE",
"201 1043 LINE",
"311 1043 LINE",
"394 1390 LINE",
"417 1536 LINE"
);
},
{
closed = 1;
nodes = (
"541 1536 LINE",
"463 1043 LINE",
"573 1043 LINE",
"656 1390 LINE",
"679 1536 LINE"
);
}
);
width = 636;
}
);
leftKerningGroup = quotedbl;
note = quotedbl;
rightKerningGroup = quotedbl;
unicode = 0022;
},
{
glyphname = numbersign;
lastChange = "2017-05-19 14:51:26 +0000";
layers = (
{
layerId = "2831174B-BB35-4064-B049-1570B14F4C27";
paths = (
{
closed = 1;
nodes = (
"851 410 LINE",
"1092 410 LINE",
"1116 548 LINE",
"901 548 LINE",
"1029 901 LINE",
"1250 901 LINE",
"1274 1040 LINE",
"1079 1040 LINE",
"1231 1456 LINE",
"1086 1456 LINE",
"935 1040 LINE",
"684 1040 LINE",
"836 1456 LINE",
"690 1456 LINE",
"539 1040 LINE",
"264 1040 LINE",
"240 901 LINE",
"489 901 LINE",
"361 548 LINE",
"105 548 LINE",
"81 410 LINE",
"312 410 LINE",
"163 0 LINE",
"307 0 LINE",
"456 410 LINE",
"707 410 LINE",
"557 0 LINE",
"702 0 LINE"
);
},
{
closed = 1;
nodes = (
"885 901 LINE",
"756 548 LINE",
"506 548 LINE",
"634 901 LINE"
);
}
);
width = 1223;
}
);
note = numbersign;
unicode = 0023;
},
{
glyphname = dollar;
lastChange = "2017-05-19 14:51:26 +0000";
layers = (
{
layerId = "2831174B-BB35-4064-B049-1570B14F4C27";
paths = (
{
closed = 1;
nodes = (
"991 616 OFFCURVE",
"842 730 OFFCURVE",
"639 810 CURVE SMOOTH",
"514 859 OFFCURVE",
"400 924 OFFCURVE",
"417 1076 CURVE SMOOTH",
"433 1224 OFFCURVE",
"540 1319 OFFCURVE",
"689 1315 CURVE SMOOTH",
"857 1310 OFFCURVE",
"893 1147 OFFCURVE",
"884 1008 CURVE",
"1063 1008 LINE",
"1078 1219 OFFCURVE",
"1016 1427 OFFCURVE",
"785 1470 CURVE",
"825 1692 LINE",
"678 1692 LINE",
"639 1473 LINE",
"416 1445 OFFCURVE",
"252 1304 OFFCURVE",
"236 1072 CURVE SMOOTH",
"219 844 OFFCURVE",
"367 726 OFFCURVE",
"568 647 CURVE SMOOTH",
"695 598 OFFCURVE",
"810 527 OFFCURVE",
"794 382 CURVE SMOOTH",
"775 221 OFFCURVE",
"636 138 OFFCURVE",
"483 141 CURVE SMOOTH",
"311 144 OFFCURVE",
"248 272 OFFCURVE",
"259 429 CURVE",
"78 429 LINE",
"65 202 OFFCURVE",
"164 20 OFFCURVE",
"399 -16 CURVE",
"364 -208 LINE",
"510 -208 LINE",
"544 -17 LINE",
"775 8 OFFCURVE",
"958 140 OFFCURVE",
"975 384 CURVE SMOOTH"
);
}
);
width = 1116;
}
);
note = dollar;
unicode = 0024;
},
{
glyphname = percent;
lastChange = "2017-05-19 14:51:26 +0000";
layers = (
{
layerId = "2831174B-BB35-4064-B049-1570B14F4C27";
paths = (
{
closed = 1;
nodes = (
"180 938 OFFCURVE",
"282 803 OFFCURVE",
"450 799 CURVE SMOOTH",
"626 795 OFFCURVE",
"753 930 OFFCURVE",
"772 1099 CURVE SMOOTH",
"778 1176 LINE SMOOTH",
"789 1339 OFFCURVE",
"690 1474 OFFCURVE",
"521 1478 CURVE SMOOTH",
"344 1482 OFFCURVE",
"215 1346 OFFCURVE",
"198 1175 CURVE SMOOTH",
"191 1099 LINE SMOOTH"
);
},
{
closed = 1;
nodes = (
"349 1271 OFFCURVE",
"413 1361 OFFCURVE",
"517 1358 CURVE SMOOTH",
"618 1355 OFFCURVE",
"650 1264 OFFCURVE",
"643 1177 CURVE SMOOTH",
"634 1099 LINE SMOOTH",
"621 1004 OFFCURVE",
"558 916 OFFCURVE",
"454 919 CURVE SMOOTH",
"354 922 OFFCURVE",
"320 1010 OFFCURVE",
"327 1097 CURVE SMOOTH",
"336 1176 LINE SMOOTH"
);
},
{
closed = 1;
nodes = (
"258 185 LINE",
"357 113 LINE",
"1237 1242 LINE",
"1139 1313 LINE"
);
},
{
closed = 1;
nodes = (
"726 116 OFFCURVE",
"827 -18 OFFCURVE",
"996 -22 CURVE SMOOTH",
"1173 -26 OFFCURVE",
"1300 108 OFFCURVE",
"1317 279 CURVE SMOOTH",
"1324 357 LINE SMOOTH",
"1335 520 OFFCURVE",
"1235 654 OFFCURVE",
"1066 658 CURVE SMOOTH",
"890 662 OFFCURVE",
"761 527 OFFCURVE",
"744 356 CURVE SMOOTH",
"737 279 LINE SMOOTH"
);
},
{
closed = 1;
nodes = (
"895 453 OFFCURVE",
"958 541 OFFCURVE",
"1063 538 CURVE SMOOTH",
"1164 535 OFFCURVE",
"1197 446 OFFCURVE",
"1190 358 CURVE SMOOTH",
"1181 279 LINE SMOOTH",
"1168 183 OFFCURVE",
"1105 95 OFFCURVE",
"1000 98 CURVE SMOOTH",
"900 101 OFFCURVE",
"868 189 OFFCURVE",
"875 276 CURVE SMOOTH",
"882 357 LINE"
);
}
);
width = 1455;
}
);
note = percent;
unicode = 0025;
},
{
glyphname = ampersand;
lastChange = "2017-05-19 14:51:26 +0000";
layers = (
{
layerId = "2831174B-BB35-4064-B049-1570B14F4C27";
paths = (
{
closed = 1;
nodes = (
"972 247 LINE",
"1075 360 OFFCURVE",
"1135 502 OFFCURVE",
"1152 672 CURVE",
"993 672 LINE",
"977 566 OFFCURVE",
"939 469 OFFCURVE",
"878 382 CURVE",
"630 764 LINE",
"753 846 LINE SMOOTH",
"873 926 OFFCURVE",
"981 1028 OFFCURVE",
"990 1177 CURVE SMOOTH",
"1001 1357 OFFCURVE",
"858 1472 OFFCURVE",
"687 1476 CURVE SMOOTH",
"467 1481 OFFCURVE",
"310 1334 OFFCURVE",
"294 1115 CURVE SMOOTH",
"286 995 OFFCURVE",
"345 892 OFFCURVE",
"402 792 CURVE",
"325 744 OFFCURVE",
"252 689 OFFCURVE",
"183 626 CURVE SMOOTH",
"43 501 OFFCURVE",
"12 234 OFFCURVE",
"173 91 CURVE SMOOTH",
"334 -52 OFFCURVE",
"622 -69 OFFCURVE",
"854 114 CURVE",
"927 0 LINE",
"1129 0 LINE"
);
},
{
closed = 1;
nodes = (
"486 1229 OFFCURVE",
"561 1327 OFFCURVE",
"676 1326 CURVE SMOOTH",
"763 1326 OFFCURVE",
"828 1266 OFFCURVE",
"820 1178 CURVE SMOOTH",
"809 1075 OFFCURVE",
"738 1017 OFFCURVE",
"658 962 CURVE SMOOTH",
"552 890 LINE",
"511 959 OFFCURVE",
"465 1037 OFFCURVE",
"474 1121 CURVE SMOOTH"
);
},
{
closed = 1;
nodes = (
"265 493 OFFCURVE",
"346 568 OFFCURVE",
"490 668 CURVE",
"762 247 LINE",
"679 183 OFFCURVE",
"585 130 OFFCURVE",
"477 133 CURVE SMOOTH",
"329 136 OFFCURVE",
"229 232 OFFCURVE",
"250 384 CURVE SMOOTH"
);
}
);
width = 1236;
}
);
note = ampersand;
unicode = 0026;
},
{
glyphname = quotesingle;
lastChange = "2017-05-19 14:51:26 +0000";
layers = (
{
layerId = "2831174B-BB35-4064-B049-1570B14F4C27";
paths = (
{
closed = 1;
nodes = (
"171 1058 LINE",
"298 1058 LINE",
"374 1419 LINE",
"393 1536 LINE",
"247 1536 LINE"
);
}
);
width = 347;
}
);
leftKerningGroup = quotedbl;
note = quotesingle;
rightKerningGroup = quotedbl;
unicode = 0027;
},
{
glyphname = parenleft;
lastChange = "2017-05-19 14:51:26 +0000";
layers = (
{
layerId = "2831174B-BB35-4064-B049-1570B14F4C27";
paths = (
{
closed = 1;
nodes = (
"111 462 OFFCURVE",
"108 337 OFFCURVE",
"119 203 CURVE SMOOTH",
"140 -66 OFFCURVE",
"236 -323 OFFCURVE",
"447 -470 CURVE",
"493 -359 LINE",
"413 -287 OFFCURVE",
"358 -196 OFFCURVE",
"328 -85 CURVE SMOOTH",
"268 135 OFFCURVE",
"264 481 OFFCURVE",
"360 825 CURVE SMOOTH",
"455 1169 OFFCURVE",
"579 1367 OFFCURVE",
"787 1520 CURVE",
"759 1644 LINE",
"633 1581 OFFCURVE",
"527 1492 OFFCURVE",
"440 1376 CURVE SMOOTH",
"267 1143 OFFCURVE",
"167 849 OFFCURVE",
"128 588 CURVE SMOOTH",
"126 577 LINE"
);
}
);
width = 680;
}
);
note = parenleft;
unicode = 0028;
},
{
glyphname = parenright;
lastChange = "2017-05-19 14:51:26 +0000";
layers = (
{
layerId = "2831174B-BB35-4064-B049-1570B14F4C27";
paths = (
{
closed = 1;
nodes = (
"564 712 OFFCURVE",
"566 837 OFFCURVE",
"555 971 CURVE SMOOTH",
"532 1239 OFFCURVE",
"437 1496 OFFCURVE",
"228 1643 CURVE",
"181 1531 LINE",
"259 1460 OFFCURVE",
"313 1369 OFFCURVE",
"344 1258 CURVE SMOOTH",
"404 1037 OFFCURVE",
"394 784 OFFCURVE",
"367 596 CURVE",
"364 581 LINE",
"311 232 OFFCURVE",
"179 -137 OFFCURVE",
"-113 -357 CURVE",
"-85 -471 LINE",
"41 -408 OFFCURVE",
"147 -319 OFFCURVE",
"234 -202 CURVE SMOOTH",
"407 30 OFFCURVE",
"509 325 OFFCURVE",
"546 586 CURVE",
"548 597 LINE"
);
}
);
width = 692;
}
);
note = parenright;
unicode = 0029;
},
{
glyphname = asterisk;
lastChange = "2017-05-19 14:51:26 +0000";
layers = (
{
layerId = "2831174B-BB35-4064-B049-1570B14F4C27";
paths = (
{
closed = 1;
nodes = (
"480 897 LINE",
"610 608 LINE",
"738 695 LINE",
"592 970 LINE",
"907 1061 LINE",
"888 1221 LINE",
"584 1112 LINE",
"654 1457 LINE",
"505 1457 LINE",
"454 1109 LINE",
"176 1221 LINE",
"107 1078 LINE",
"384 988 LINE",
"143 716 LINE",
"257 619 LINE"
);
}
);
width = 856;
}
);
note = asterisk;
unicode = 002A;
},
{
glyphname = plus;
lastChange = "2017-05-19 14:51:26 +0000";
layers = (
{
layerId = "2831174B-BB35-4064-B049-1570B14F4C27";
paths = (
{
closed = 1;
nodes = (
"682 781 LINE",
"756 1206 LINE",
"575 1206 LINE",
"501 781 LINE",
"107 781 LINE",
"76 607 LINE",
"471 607 LINE",
"391 146 LINE",
"572 146 LINE",
"652 607 LINE",
"1046 607 LINE",
"1076 781 LINE"
);
}
);
width = 1127;
}
);
note = plus;
unicode = 002B;
},
{
glyphname = comma;
lastChange = "2017-05-19 14:51:26 +0000";
layers = (
{
layerId = "2831174B-BB35-4064-B049-1570B14F4C27";
paths = (
{
closed = 1;
nodes = (
"32 68 LINE SMOOTH",
"13 -25 OFFCURVE",
"-35 -119 OFFCURVE",
"-113 -216 CURVE",
"-13 -291 LINE",
"112 -196 OFFCURVE",
"187 -73 OFFCURVE",
"212 78 CURVE SMOOTH",
"235 220 LINE",
"58 220 LINE"
);
}
);
width = 391;
}
);
leftKerningGroup = comma;
note = comma;
rightKerningGroup = comma;
unicode = 002C;
},
{
glyphname = hyphen;
lastChange = "2017-05-19 14:51:26 +0000";
layers = (
{
layerId = "2831174B-BB35-4064-B049-1570B14F4C27";
paths = (
{
closed = 1;
nodes = (
"26 543 LINE",
"501 543 LINE",
"528 695 LINE",
"53 695 LINE"
);
}
);
width = 549;
}
);
leftKerningGroup = hyphen;
note = hyphen;
unicode = 002D;
},
{
glyphname = period;
lastChange = "2017-05-19 14:51:26 +0000";
layers = (
{
layerId = "2831174B-BB35-4064-B049-1570B14F4C27";
paths = (
{
closed = 1;
nodes = (
"52 30 OFFCURVE",
"100 -14 OFFCURVE",
"164 -13 CURVE SMOOTH",
"229 -12 OFFCURVE",
"276 36 OFFCURVE",
"276 101 CURVE SMOOTH",
"277 166 OFFCURVE",
"230 212 OFFCURVE",
"165 211 CURVE SMOOTH",
"100 210 OFFCURVE",
"53 160 OFFCURVE",
"53 95 CURVE SMOOTH"
);
}
);
width = 524;
}
);
leftKerningGroup = comma;
note = period;
rightKerningGroup = comma;
unicode = 002E;
},
{
glyphname = slash;
lastChange = "2017-05-19 14:51:26 +0000";
layers = (
{
layerId = "2831174B-BB35-4064-B049-1570B14F4C27";
paths = (
{
closed = 1;
nodes = (
"-112 -125 LINE",
"52 -125 LINE",
"915 1456 LINE",
"752 1456 LINE"
);
}
);
width = 820;
}
);
note = slash;
unicode = 002F;
},
{
glyphname = zero;
lastChange = "2017-05-19 14:51:26 +0000";
layers = (
{
layerId = "2831174B-BB35-4064-B049-1570B14F4C27";
paths = (
{
closed = 1;
nodes = (
"1067 1037 OFFCURVE",
"1058 1245 OFFCURVE",
"951 1375 CURVE SMOOTH",
"843 1505 OFFCURVE",
"544 1512 OFFCURVE",
"397 1388 CURVE SMOOTH",
"249 1264 OFFCURVE",
"181 1055 OFFCURVE",
"150 844 CURVE SMOOTH",
"117 622 LINE SMOOTH",
"93 431 OFFCURVE",
"101 219 OFFCURVE",
"208 85 CURVE SMOOTH",
"315 -49 OFFCURVE",
"614 -56 OFFCURVE",
"762 69 CURVE SMOOTH",
"909 194 OFFCURVE",
"977 407 OFFCURVE",
"1009 623 CURVE SMOOTH",
"1043 844 LINE SMOOTH"
);
},
{
closed = 1;
nodes = (
"878 994 OFFCURVE",
"874 932 OFFCURVE",
"867 877 CURVE SMOOTH",
"829 624 LINE SMOOTH",
"790 364 OFFCURVE",
"731 241 OFFCURVE",
"644 176 CURVE SMOOTH",
"556 111 OFFCURVE",
"376 109 OFFCURVE",
"322 217 CURVE SMOOTH",
"268 325 OFFCURVE",
"281 484 OFFCURVE",
"294 591 CURVE SMOOTH",
"335 869 LINE SMOOTH",
"345 937 OFFCURVE",
"362 1007 OFFCURVE",
"385 1079 CURVE SMOOTH",
"431 1223 OFFCURVE",
"519 1333 OFFCURVE",
"683 1326 CURVE SMOOTH",
"836 1321 OFFCURVE",
"880 1201 OFFCURVE",
"879 1064 CURVE SMOOTH"
);
}
);
width = 1116;
}
);
note = zero;
unicode = 0030;
},
{
glyphname = one;
lastChange = "2017-05-19 14:51:26 +0000";
layers = (
{
layerId = "2831174B-BB35-4064-B049-1570B14F4C27";
paths = (
{
closed = 1;
nodes = (
"282 1268 LINE",
"250 1093 LINE",
"637 1228 LINE",
"423 0 LINE",
"604 0 LINE",
"852 1464 LINE",
"820 1464 LINE"
);
}
);
width = 1116;
}
);
note = one;
unicode = 0031;
},
{
glyphname = two;
lastChange = "2017-05-19 14:51:26 +0000";
layers = (
{
layerId = "2831174B-BB35-4064-B049-1570B14F4C27";
paths = (
{
closed = 1;
nodes = (
"718 576 LINE SMOOTH",
"859 711 OFFCURVE",
"1035 886 OFFCURVE",
"1052 1094 CURVE SMOOTH",
"1073 1331 OFFCURVE",
"900 1472 OFFCURVE",
"673 1476 CURVE SMOOTH",
"400 1481 OFFCURVE",
"188 1300 OFFCURVE",
"163 1028 CURVE",
"341 1029 LINE",
"366 1202 OFFCURVE",
"481 1330 OFFCURVE",
"666 1325 CURVE SMOOTH",
"809 1321 OFFCURVE",
"884 1209 OFFCURVE",
"868 1073 CURVE SMOOTH",
"847 908 OFFCURVE",
"693 773 OFFCURVE",
"584 665 CURVE SMOOTH",
"46 141 LINE",
"24 0 LINE",
"950 0 LINE",
"974 152 LINE",
"272 152 LINE"
);
}
);
width = 1116;
}
);
note = two;
unicode = 0032;
},
{
glyphname = three;
lastChange = "2017-05-19 14:51:26 +0000";
layers = (
{
layerId = "2831174B-BB35-4064-B049-1570B14F4C27";
paths = (
{
closed = 1;
nodes = (
"689 661 OFFCURVE",
"791 577 OFFCURVE",
"774 409 CURVE SMOOTH",
"758 238 OFFCURVE",
"638 128 OFFCURVE",
"465 132 CURVE SMOOTH",
"312 136 OFFCURVE",
"227 234 OFFCURVE",
"236 385 CURVE",
"56 386 LINE",
"45 139 OFFCURVE",
"217 -15 OFFCURVE",
"457 -20 CURVE SMOOTH",
"720 -25 OFFCURVE",
"935 146 OFFCURVE",
"955 413 CURVE SMOOTH",
"966 560 OFFCURVE",
"905 686 OFFCURVE",
"766 743 CURVE",
"902 804 OFFCURVE",
"1027 912 OFFCURVE",
"1039 1071 CURVE SMOOTH",
"1059 1316 OFFCURVE",
"901 1472 OFFCURVE",
"661 1477 CURVE SMOOTH",
"418 1481 OFFCURVE",
"204 1322 OFFCURVE",
"181 1075 CURVE",
"360 1076 LINE",
"384 1227 OFFCURVE",
"496 1329 OFFCURVE",
"652 1326 CURVE SMOOTH",
"805 1322 OFFCURVE",
"872 1222 OFFCURVE",
"857 1075 CURVE SMOOTH",
"838 903 OFFCURVE",
"694 819 OFFCURVE",
"531 818 CURVE SMOOTH",
"412 819 LINE",
"388 667 LINE",
"530 666 LINE SMOOTH"
);
}
);
width = 1116;
}
);
note = three;
unicode = 0033;
},
{
glyphname = four;
lastChange = "2017-05-19 14:51:26 +0000";
layers = (
{
layerId = "2831174B-BB35-4064-B049-1570B14F4C27";
paths = (
{
closed = 1;
nodes = (
"650 338 LINE",
"591 0 LINE",
"772 0 LINE",
"831 338 LINE",
"1027 338 LINE",
"1054 490 LINE",
"857 490 LINE",
"1024 1456 LINE",
"826 1456 LINE",
"26 457 LINE",
"5 338 LINE"
);
},
{
closed = 1;
nodes = (
"807 1208 LINE",
"676 490 LINE",
"243 490 LINE",
"776 1164 LINE"
);
}
);
width = 1116;
}
);
note = four;
unicode = 0034;
},
{
glyphname = five;
lastChange = "2017-05-19 14:51:26 +0000";
layers = (
{
layerId = "2831174B-BB35-4064-B049-1570B14F4C27";
paths = (
{
closed = 1;
nodes = (
"442 753 OFFCURVE",
"513 788 OFFCURVE",
"609 785 CURVE SMOOTH",
"785 781 OFFCURVE",
"851 627 OFFCURVE",
"835 470 CURVE SMOOTH",
"818 294 OFFCURVE",
"710 127 OFFCURVE",
"517 131 CURVE SMOOTH",
"364 135 OFFCURVE",
"293 240 OFFCURVE",
"284 384 CURVE",
"114 384 LINE",
"125 149 OFFCURVE",
"266 -17 OFFCURVE",
"509 -21 CURVE SMOOTH",
"804 -28 OFFCURVE",
"993 190 OFFCURVE",
"1017 471 CURVE SMOOTH",
"1032 632 OFFCURVE",
"987 788 OFFCURVE",
"877 881 CURVE SMOOTH",
"767 973 OFFCURVE",
"566 973 OFFCURVE",
"421 888 CURVE",
"533 1285 LINE",
"1104 1285 LINE",
"1131 1456 LINE",
"404 1456 LINE",
"220 734 LINE",
"369 694 LINE"
);
}
);
width = 1116;
}
);
note = five;
unicode = 0035;
},
{
glyphname = six;
lastChange = "2017-05-19 14:51:26 +0000";
layers = (
{
layerId = "2831174B-BB35-4064-B049-1570B14F4C27";
paths = (
{
closed = 1;
nodes = (
"1014 637 OFFCURVE",
"973 790 OFFCURVE",
"866 882 CURVE SMOOTH",
"759 974 OFFCURVE",
"517 1004 OFFCURVE",
"340 824 CURVE",
"431 1101 OFFCURVE",
"606 1301 OFFCURVE",
"915 1302 CURVE SMOOTH",
"935 1302 LINE",
"951 1459 LINE",
"926 1459 LINE SMOOTH",
"761 1458 OFFCURVE",
"624 1419 OFFCURVE",
"514 1344 CURVE SMOOTH",
"293 1192 OFFCURVE",
"174 926 OFFCURVE",
"131 627 CURVE SMOOTH",
"120 539 LINE SMOOTH",
"110 453 OFFCURVE",
"117 367 OFFCURVE",
"140 282 CURVE SMOOTH",
"186 111 OFFCURVE",
"304 -16 OFFCURVE",
"501 -21 CURVE SMOOTH",
"792 -28 OFFCURVE",
"976 210 OFFCURVE",
"1001 482 CURVE SMOOTH"
);
},
{
closed = 1;
nodes = (
"371 716 OFFCURVE",
"486 807 OFFCURVE",
"619 803 CURVE SMOOTH",
"735 799 OFFCURVE",
"794 721 OFFCURVE",
"814 621 CURVE SMOOTH",
"834 520 OFFCURVE",
"834 384 OFFCURVE",
"730 238 CURVE SMOOTH",
"626 92 OFFCURVE",
"427 113 OFFCURVE",
"364 205 CURVE SMOOTH",
"301 296 OFFCURVE",
"291 433 OFFCURVE",
"302 532 CURVE SMOOTH",
"311 603 LINE"
);
}
);
width = 1116;
}
);
note = six;
unicode = 0036;
},
{
glyphname = seven;
lastChange = "2017-05-19 14:51:26 +0000";
layers = (
{
layerId = "2831174B-BB35-4064-B049-1570B14F4C27";
paths = (
{
closed = 1;
nodes = (
"185 1304 LINE",
"945 1304 LINE",
"157 0 LINE",
"356 0 LINE",
"1147 1342 LINE",
"1165 1456 LINE",
"209 1456 LINE"
);
}
);
width = 1116;
}
);
note = seven;
unicode = 0037;
},
{
glyphname = eight;
lastChange = "2017-05-19 14:51:26 +0000";
layers = (
{
layerId = "2831174B-BB35-4064-B049-1570B14F4C27";
paths = (
{
closed = 1;
nodes = (
"982 544 OFFCURVE",
"918 674 OFFCURVE",
"794 746 CURVE",
"934 814 OFFCURVE",
"1045 923 OFFCURVE",
"1058 1086 CURVE SMOOTH",
"1077 1318 OFFCURVE",
"921 1472 OFFCURVE",
"693 1476 CURVE SMOOTH",
"445 1481 OFFCURVE",
"245 1320 OFFCURVE",
"226 1068 CURVE SMOOTH",
"217 943 OFFCURVE",
"268 827 OFFCURVE",
"372 756 CURVE",
"212 688 OFFCURVE",
"89 567 OFFCURVE",
"74 386 CURVE SMOOTH",
"54 138 OFFCURVE",
"231 -16 OFFCURVE",
"468 -20 CURVE SMOOTH",
"725 -25 OFFCURVE",
"951 135 OFFCURVE",
"971 403 CURVE SMOOTH"
);
},
{
closed = 1;
nodes = (
"861 936 OFFCURVE",
"750 821 OFFCURVE",
"599 824 CURVE SMOOTH",
"460 827 OFFCURVE",
"393 934 OFFCURVE",
"406 1065 CURVE SMOOTH",
"421 1212 OFFCURVE",
"531 1329 OFFCURVE",
"683 1325 CURVE SMOOTH",
"819 1322 OFFCURVE",
"891 1211 OFFCURVE",
"876 1083 CURVE SMOOTH"
);
},
{
closed = 1;
nodes = (
"774 239 OFFCURVE",
"645 127 OFFCURVE",
"477 131 CURVE SMOOTH",
"322 135 OFFCURVE",
"239 238 OFFCURVE",
"256 389 CURVE SMOOTH",
"275 553 OFFCURVE",
"403 679 OFFCURVE",
"571 675 CURVE SMOOTH",
"723 671 OFFCURVE",
"807 552 OFFCURVE",
"791 407 CURVE SMOOTH"
);
}
);
width = 1116;
}
);
note = eight;
unicode = 0038;
},
{
glyphname = nine;
lastChange = "2017-05-19 14:51:26 +0000";
layers = (
{
layerId = "2831174B-BB35-4064-B049-1570B14F4C27";
paths = (
{
closed = 1;
nodes = (
"399 -2 OFFCURVE",
"536 35 OFFCURVE",
"644 107 CURVE SMOOTH",
"860 251 OFFCURVE",
"975 508 OFFCURVE",
"1019 813 CURVE SMOOTH",
"1029 887 LINE SMOOTH",
"1050 1066 OFFCURVE",
"1017 1260 OFFCURVE",
"902 1381 CURVE SMOOTH",
"786 1502 OFFCURVE",
"545 1503 OFFCURVE",
"402 1408 CURVE SMOOTH",
"258 1313 OFFCURVE",
"171 1147 OFFCURVE",
"155 966 CURVE SMOOTH",
"140 813 OFFCURVE",
"182 657 OFFCURVE",
"287 562 CURVE SMOOTH",
"392 466 OFFCURVE",
"620 430 OFFCURVE",
"819 642 CURVE",
"735 341 OFFCURVE",
"574 157 OFFCURVE",
"247 154 CURVE SMOOTH",
"221 154 LINE",
"205 -3 LINE",
"233 -3 LINE SMOOTH"
);
},
{
closed = 1;
nodes = (
"343 1060 OFFCURVE",
"373 1140 OFFCURVE",
"426 1216 CURVE SMOOTH",
"530 1367 OFFCURVE",
"732 1344 OFFCURVE",
"793 1249 CURVE SMOOTH",
"854 1153 OFFCURVE",
"862 1012 OFFCURVE",
"851 913 CURVE SMOOTH",
"842 839 LINE",
"809 784 OFFCURVE",
"767 737 OFFCURVE",
"714 697 CURVE SMOOTH",
"608 617 OFFCURVE",
"462 625 OFFCURVE",
"401 697 CURVE SMOOTH",
"340 769 OFFCURVE",
"323 881 OFFCURVE",
"334 976 CURVE SMOOTH"
);
}
);
width = 1116;
}
);
note = nine;
unicode = 0039;
},
{
glyphname = colon;
lastChange = "2017-05-19 14:51:26 +0000";
layers = (
{
layerId = "2831174B-BB35-4064-B049-1570B14F4C27";
paths = (
{
closed = 1;
nodes = (
"41 30 OFFCURVE",
"89 -14 OFFCURVE",
"153 -13 CURVE SMOOTH",
"218 -12 OFFCURVE",
"265 36 OFFCURVE",
"265 101 CURVE SMOOTH",
"266 166 OFFCURVE",
"219 212 OFFCURVE",
"154 211 CURVE SMOOTH",
"89 210 OFFCURVE",
"42 160 OFFCURVE",
"42 95 CURVE SMOOTH"
);
},
{
closed = 1;
nodes = (
"195 913 OFFCURVE",
"243 869 OFFCURVE",
"307 870 CURVE SMOOTH",
"372 871 OFFCURVE",
"419 919 OFFCURVE",
"419 984 CURVE SMOOTH",
"420 1049 OFFCURVE",
"373 1095 OFFCURVE",
"308 1094 CURVE SMOOTH",
"243 1093 OFFCURVE",
"196 1043 OFFCURVE",
"196 978 CURVE SMOOTH"
);
}
);
width = 491;
}
);
note = colon;
unicode = 003A;
},
{
glyphname = semicolon;
lastChange = "2017-05-19 14:51:26 +0000";
layers = (
{
layerId = "2831174B-BB35-4064-B049-1570B14F4C27";
paths = (
{
closed = 1;
nodes = (
"172 913 OFFCURVE",
"220 869 OFFCURVE",
"284 870 CURVE SMOOTH",
"349 871 OFFCURVE",
"396 919 OFFCURVE",
"396 984 CURVE SMOOTH",
"397 1049 OFFCURVE",
"350 1095 OFFCURVE",
"285 1094 CURVE SMOOTH",
"220 1093 OFFCURVE",
"173 1043 OFFCURVE",
"173 978 CURVE SMOOTH"
);
},
{
closed = 1;
nodes = (
"44 68 LINE SMOOTH",
"25 -25 OFFCURVE",
"-23 -119 OFFCURVE",
"-101 -216 CURVE",
"-1 -291 LINE",
"124 -196 OFFCURVE",
"199 -73 OFFCURVE",
"224 78 CURVE SMOOTH",
"247 220 LINE",
"70 220 LINE"
);
}
);
width = 430;
}
);
note = semicolon;
unicode = 003B;
},
{
glyphname = less;
lastChange = "2017-05-19 14:51:26 +0000";
layers = (
{
layerId = "2831174B-BB35-4064-B049-1570B14F4C27";
paths = (
{
closed = 1;
nodes = (
"264 641 LINE",
"915 898 LINE",
"951 1103 LINE",
"90 725 LINE",
"65 580 LINE",
"794 201 LINE",
"827 388 LINE"
);
}
);
width = 1010;
}
);
note = less;
unicode = 003C;
},
{
glyphname = equal;
lastChange = "2017-05-19 14:51:26 +0000";
layers = (
{
layerId = "2831174B-BB35-4064-B049-1570B14F4C27";
paths = (
{
closed = 1;
nodes = (
"183 814 LINE",
"993 814 LINE",
"1022 975 LINE",
"211 975 LINE"
);
},
{
closed = 1;
nodes = (
"111 399 LINE",
"921 399 LINE",
"950 560 LINE",
"139 560 LINE"
);
}
);
width = 1090;
}
);
note = equal;
unicode = 003D;
},
{
glyphname = greater;
lastChange = "2017-05-19 14:51:26 +0000";
layers = (
{
layerId = "2831174B-BB35-4064-B049-1570B14F4C27";
paths = (
{
closed = 1;
nodes = (
"783 655 LINE",
"95 392 LINE",
"59 192 LINE",
"955 572 LINE",
"981 717 LINE",
"217 1095 LINE",
"184 913 LINE"
);
}
);
width = 1039;
}
);
note = greater;
unicode = 003E;
},
{
glyphname = question;
lastChange = "2017-05-19 14:51:26 +0000";
layers = (
{
layerId = "2831174B-BB35-4064-B049-1570B14F4C27";
paths = (
{
closed = 1;
nodes = (
"516 518 OFFCURVE",
"561 602 OFFCURVE",
"635 663 CURVE SMOOTH",
"771 775 OFFCURVE",
"929 908 OFFCURVE",
"946 1104 CURVE SMOOTH",
"965 1327 OFFCURVE",
"828 1472 OFFCURVE",
"607 1477 CURVE SMOOTH",
"382 1481 OFFCURVE",
"192 1344 OFFCURVE",
"165 1115 CURVE",
"345 1116 LINE",
"370 1241 OFFCURVE",
"467 1320 OFFCURVE",
"596 1316 CURVE SMOOTH",
"723 1312 OFFCURVE",
"775 1220 OFFCURVE",
"760 1101 CURVE SMOOTH",
"744 970 OFFCURVE",
"663 905 OFFCURVE",
"540 797 CURVE SMOOTH",
"417 689 OFFCURVE",
"340 585 OFFCURVE",
"321 409 CURVE",
"499 410 LINE"
);
},
{
closed = 1;
nodes = (
"250 29 OFFCURVE",
"295 -14 OFFCURVE",
"356 -13 CURVE SMOOTH",
"419 -12 OFFCURVE",
"463 34 OFFCURVE",
"463 95 CURVE SMOOTH",
"464 158 OFFCURVE",
"420 202 OFFCURVE",
"357 201 CURVE SMOOTH",
"294 200 OFFCURVE",
"251 153 OFFCURVE",
"250 90 CURVE SMOOTH"
);
}
);
width = 939;
}
);
note = question;
unicode = 003F;
},
{
glyphname = at;
lastChange = "2017-05-19 14:51:26 +0000";
layers = (
{
layerId = "2831174B-BB35-4064-B049-1570B14F4C27";
paths = (
{
closed = 1;
nodes = (
"928 -303 OFFCURVE",
"816 -328 OFFCURVE",
"699 -327 CURVE SMOOTH",
"396 -324 OFFCURVE",
"255 -142 OFFCURVE",
"223 103 CURVE SMOOTH",
"186 375 OFFCURVE",
"251 665 OFFCURVE",
"402 907 CURVE SMOOTH",
"553 1149 OFFCURVE",
"775 1305 OFFCURVE",
"1067 1300 CURVE SMOOTH",
"1379 1296 OFFCURVE",
"1522 1125 OFFCURVE",
"1555 885 CURVE SMOOTH",
"1579 710 OFFCURVE",
"1560 512 OFFCURVE",
"1505 357 CURVE SMOOTH",
"1450 201 OFFCURVE",
"1365 91 OFFCURVE",
"1226 96 CURVE SMOOTH",
"1187 98 OFFCURVE",
"1162 113 OFFCURVE",
"1150 141 CURVE SMOOTH",
"1125 196 OFFCURVE",
"1134 276 OFFCURVE",
"1145 328 CURVE SMOOTH",
"1276 886 LINE",
"1192 949 OFFCURVE",
"1113 990 OFFCURVE",
"1005 991 CURVE SMOOTH",
"870 994 OFFCURVE",
"768 938 OFFCURVE",
"666 799 CURVE SMOOTH",
"564 660 OFFCURVE",
"482 440 OFFCURVE",
"493 227 CURVE SMOOTH",
"500 92 OFFCURVE",
"556 -18 OFFCURVE",
"707 -22 CURVE SMOOTH",
"828 -25 OFFCURVE",
"919 61 OFFCURVE",
"988 149 CURVE",
"1007 38 OFFCURVE",
"1090 -18 OFFCURVE",
"1199 -21 CURVE SMOOTH",
"1295 -24 OFFCURVE",
"1376 2 OFFCURVE",
"1441 57 CURVE SMOOTH",
"1571 165 OFFCURVE",
"1644 345 OFFCURVE",
"1672 508 CURVE SMOOTH",
"1724 812 OFFCURVE",
"1672 1112 OFFCURVE",
"1480 1293 CURVE SMOOTH",
"1287 1473 OFFCURVE",
"872 1481 OFFCURVE",
"599 1296 CURVE SMOOTH",
"326 1111 OFFCURVE",
"148 797 OFFCURVE",
"89 473 CURVE SMOOTH",
"34 168 OFFCURVE",
"90 -134 OFFCURVE",
"286 -314 CURVE SMOOTH",
"482 -495 OFFCURVE",
"874 -485 OFFCURVE",
"1065 -366 CURVE",
"1037 -250 LINE"
);
},
{
closed = 1;
nodes = (
"655 385 OFFCURVE",
"674 476 OFFCURVE",
"706 567 CURVE SMOOTH",
"770 750 OFFCURVE",
"867 869 OFFCURVE",
"1019 864 CURVE SMOOTH",
"1056 863 OFFCURVE",
"1092 853 OFFCURVE",
"1126 835 CURVE",
"994 329 LINE",
"993 319 LINE",
"946 235 OFFCURVE",
"872 116 OFFCURVE",
"761 120 CURVE SMOOTH",
"666 124 OFFCURVE",
"643 205 OFFCURVE",
"650 296 CURVE SMOOTH"
);
}
);
width = 1784;
}
);
note = at;
unicode = 0040;
},
{
glyphname = A;
lastChange = "2017-05-28 19:45:21 +0000";
layers = (
{
hints = (
{
horizontal = 1;
origin = "{0, 0}";
type = Anchor;
},
{
horizontal = 1;
origin = "{0, 1}";
type = Anchor;
},
{
horizontal = 1;
origin = "{0, 2}";
type = Anchor;
},
{
horizontal = 1;
origin = "{0, 3}";
type = Anchor;
},
{
horizontal = 1;
origin = "{0, 4}";
type = Anchor;
},
{
horizontal = 1;
origin = "{0, 5}";
type = Anchor;
},
{
horizontal = 1;
origin = "{0, 6}";
type = Anchor;
},
{
horizontal = 1;
origin = "{0, 7}";
type = Anchor;
},
{
horizontal = 1;
origin = "{1, 0}";
type = Anchor;
},
{
horizontal = 1;
origin = "{1, 1}";
type = Anchor;
},
{
horizontal = 1;
origin = "{1, 2}";
type = Anchor;
}
);
layerId = "2831174B-BB35-4064-B049-1570B14F4C27";
paths = (
{
closed = 1;
nodes = (
"321 381 LINE",
"910 381 LINE",
"978 0 LINE",
"1163 0 LINE",
"876 1456 LINE",
"710 1456 LINE",
"-81 0 LINE",
"120 0 LINE"
);
},
{
closed = 1;
nodes = (
"881 539 LINE",
"403 539 LINE",
"760 1217 LINE"
);
}
);
width = 1296;
}
);
leftKerningGroup = A;
note = A;
rightKerningGroup = A;
unicode = 0041;
},
{
glyphname = B;
lastChange = "2017-05-28 19:45:23 +0000";
layers = (
{
hints = (
{
horizontal = 1;
origin = "{0, 0}";
type = Anchor;
},
{
horizontal = 1;
origin = "{0, 1}";
type = Anchor;
},
{
horizontal = 1;
origin = "{0, 2}";
type = Anchor;
},
{
horizontal = 1;
origin = "{0, 3}";
type = Anchor;
},
{
horizontal = 1;
origin = "{0, 4}";
type = Anchor;
},
{
horizontal = 1;
origin = "{0, 5}";
type = Anchor;
},
{
horizontal = 1;
origin = "{0, 6}";
type = Anchor;
},
{
horizontal = 1;
origin = "{0, 7}";
type = Anchor;
},
{
horizontal = 1;
origin = "{0, 8}";
type = Anchor;
},
{
horizontal = 1;
origin = "{0, 9}";
type = Anchor;
},
{
horizontal = 1;
origin = "{0, 10}";
type = Anchor;
},
{
horizontal = 1;
origin = "{0, 11}";
type = Anchor;
},
{
horizontal = 1;
origin = "{0, 12}";
type = Anchor;
},
{
horizontal = 1;
origin = "{0, 13}";
type = Anchor;
},
{
horizontal = 1;
origin = "{0, 14}";
type = Anchor;
},
{
horizontal = 1;
origin = "{1, 0}";
type = Anchor;
},
{
horizontal = 1;
origin = "{1, 1}";
type = Anchor;
},
{
horizontal = 1;
origin = "{1, 2}";
type = Anchor;
},
{
horizontal = 1;
origin = "{1, 3}";
type = Anchor;
},
{
horizontal = 1;
origin = "{1, 4}";
type = Anchor;
},
{
horizontal = 1;
origin = "{1, 5}";
type = Anchor;
},
{
horizontal = 1;
origin = "{1, 6}";
type = Anchor;
},
{
horizontal = 1;
origin = "{1, 7}";
type = Anchor;
},
{
horizontal = 1;
origin = "{1, 8}";
type = Anchor;
},
{
horizontal = 1;
origin = "{2, 0}";
type = Anchor;
},
{
horizontal = 1;
origin = "{2, 1}";
type = Anchor;
},
{
horizontal = 1;
origin = "{2, 2}";
type = Anchor;
},
{
horizontal = 1;
origin = "{2, 3}";
type = Anchor;
},
{
horizontal = 1;
origin = "{2, 4}";
type = Anchor;
},
{
horizontal = 1;
origin = "{2, 5}";
type = Anchor;
},
{
horizontal = 1;
origin = "{2, 6}";
type = Anchor;
},
{
horizontal = 1;
origin = "{2, 7}";
type = Anchor;
},
{
horizontal = 1;
origin = "{2, 8}";
type = Anchor;
}
);
layerId = "2831174B-BB35-4064-B049-1570B14F4C27";
paths = (
{
closed = 1;
nodes = (
"1104 568 OFFCURVE",
"1047 709 OFFCURVE",
"908 762 CURVE",
"1044 822 OFFCURVE",
"1157 920 OFFCURVE",
"1170 1076 CURVE SMOOTH",
"1191 1341 OFFCURVE",
"1004 1450 OFFCURVE",
"763 1455 CURVE SMOOTH",
"312 1456 LINE",
"59 0 LINE",
"570 0 LINE SMOOTH",
"839 0 OFFCURVE",
"1070 141 OFFCURVE",
"1093 428 CURVE SMOOTH"
);
},
{
closed = 1;
nodes = (
"904 1293 OFFCURVE",
"1000 1235 OFFCURVE",
"981 1079 CURVE SMOOTH",
"960 915 OFFCURVE",
"817 835 OFFCURVE",
"664 835 CURVE SMOOTH",
"393 836 LINE",
"473 1298 LINE",
"759 1297 LINE SMOOTH"
);
},
{
closed = 1;
nodes = (
"884 249 OFFCURVE",
"741 156 OFFCURVE",
"572 156 CURVE SMOOTH",
"275 157 LINE",
"366 681 LINE",
"693 680 LINE SMOOTH",
"856 675 OFFCURVE",
"927 590 OFFCURVE",
"907 426 CURVE SMOOTH"
);
}
);
width = 1238;
}
);
note = B;
rightKerningGroup = B;
unicode = 0042;
},
{
glyphname = C;
lastChange = "2017-05-28 19:45:25 +0000";
layers = (
{
hints = (
{
horizontal = 1;
origin = "{0, 0}";
type = Anchor;
},
{
horizontal = 1;
origin = "{0, 1}";
type = Anchor;
},
{
horizontal = 1;
origin = "{0, 2}";
type = Anchor;
},
{
horizontal = 1;
origin = "{0, 3}";
type = Anchor;
},
{
horizontal = 1;
origin = "{0, 4}";
type = Anchor;
},
{
horizontal = 1;
origin = "{0, 5}";
type = Anchor;
},
{
horizontal = 1;
origin = "{0, 6}";
type = Anchor;
},
{
horizontal = 1;
origin = "{0, 7}";
type = Anchor;
},
{
horizontal = 1;
origin = "{0, 8}";
type = Anchor;
},
{
horizontal = 1;
origin = "{0, 9}";
type = Anchor;
},
{
horizontal = 1;
origin = "{0, 10}";
type = Anchor;
},
{
horizontal = 1;
origin = "{0, 11}";
type = Anchor;
},
{
horizontal = 1;
origin = "{0, 12}";
type = Anchor;
},
{
horizontal = 1;
origin = "{0, 13}";
type = Anchor;
},
{
horizontal = 1;
origin = "{0, 14}";
type = Anchor;
},
{
horizontal = 1;
origin = "{0, 15}";
type = Anchor;
},
{
horizontal = 1;
origin = "{0, 16}";
type = Anchor;
},
{
horizontal = 1;
origin = "{0, 17}";
type = Anchor;
},
{
horizontal = 1;
origin = "{0, 18}";
type = Anchor;
},
{
horizontal = 1;
origin = "{0, 19}";
type = Anchor;
},
{
horizontal = 1;
origin = "{0, 20}";
type = Anchor;
},
{
horizontal = 1;
origin = "{0, 21}";
type = Anchor;
},
{
horizontal = 1;
origin = "{0, 22}";
type = Anchor;
},
{
horizontal = 1;
origin = "{0, 23}";
type = Anchor;
},
{
horizontal = 1;
origin = "{0, 24}";
type = Anchor;
},
{
horizontal = 1;
origin = "{0, 25}";
type = Anchor;
},
{
horizontal = 1;
origin = "{0, 26}";
type = Anchor;
},
{
horizontal = 1;
origin = "{0, 27}";
type = Anchor;
},
{
horizontal = 1;
origin = "{0, 28}";
type = Anchor;
},
{
horizontal = 1;
origin = "{0, 29}";
type = Anchor;
},
{
horizontal = 1;
origin = "{0, 30}";
type = Anchor;
},
{
horizontal = 1;
origin = "{0, 31}";
type = Anchor;
},
{
horizontal = 1;
origin = "{0, 32}";
type = Anchor;
},
{
horizontal = 1;
origin = "{0, 33}";
type = Anchor;
},
{
horizontal = 1;
origin = "{0, 34}";
type = Anchor;
},
{
horizontal = 1;
origin = "{0, 35}";
type = Anchor;
},
{
horizontal = 1;
origin = "{0, 36}";
type = Anchor;
},
{
horizontal = 1;
origin = "{0, 37}";
type = Anchor;
},
{
horizontal = 1;
origin = "{0, 38}";
type = Anchor;
},
{
horizontal = 1;
origin = "{0, 39}";
type = Anchor;
}
);
layerId = "2831174B-BB35-4064-B049-1570B14F4C27";
paths = (
{
closed = 1;
nodes = (
"957 360 OFFCURVE",
"910 279 OFFCURVE",
"847 220 CURVE SMOOTH",
"719 101 OFFCURVE",
"468 113 OFFCURVE",
"385 226 CURVE SMOOTH",
"302 339 OFFCURVE",
"295 515 OFFCURVE",
"314 654 CURVE SMOOTH",
"335 795 LINE SMOOTH",
"348 881 OFFCURVE",
"373 965 OFFCURVE",
"411 1046 CURVE SMOOTH",
"487 1209 OFFCURVE",
"617 1324 OFFCURVE",
"812 1319 CURVE SMOOTH",
"1015 1312 OFFCURVE",
"1079 1172 OFFCURVE",
"1086 988 CURVE",
"1272 988 LINE",
"1268 1129 OFFCURVE",
"1229 1244 OFFCURVE",
"1154 1335 CURVE SMOOTH",
"1004 1516 OFFCURVE",
"671 1512 OFFCURVE",
"484 1385 CURVE SMOOTH",
"296 1257 OFFCURVE",
"184 1036 OFFCURVE",
"148 800 CURVE SMOOTH",
"127 655 LINE SMOOTH",
"113 548 OFFCURVE",
"118 444 OFFCURVE",
"143 342 CURVE SMOOTH",
"191 137 OFFCURVE",
"327 -15 OFFCURVE",
"574 -20 CURVE SMOOTH",
"882 -27 OFFCURVE",
"1113 164 OFFCURVE",
"1172 464 CURVE",
"987 462 LINE"
);
}
);
width = 1293;
}
);
leftKerningGroup = C;
note = C;
rightKerningGroup = C;
unicode = 0043;
},
{
glyphname = D;
lastChange = "2017-05-28 19:45:29 +0000";
layers = (
{
hints = (
{
horizontal = 1;
origin = "{0, 0}";
type = Anchor;
},
{
horizontal = 1;
origin = "{0, 1}";
type = Anchor;
},
{
horizontal = 1;
origin = "{0, 2}";
type = Anchor;
},
{
horizontal = 1;
origin = "{0, 3}";
type = Anchor;
},
{
horizontal = 1;
origin = "{0, 4}";
type = Anchor;
},
{
horizontal = 1;
origin = "{0, 5}";
type = Anchor;
},
{
horizontal = 1;
origin = "{0, 6}";
type = Anchor;
},
{
horizontal = 1;
origin = "{0, 7}";
type = Anchor;
},
{
horizontal = 1;
origin = "{0, 8}";
type = Anchor;
},
{
horizontal = 1;
origin = "{0, 9}";
type = Anchor;
},
{
horizontal = 1;
origin = "{0, 10}";
type = Anchor;
},
{
horizontal = 1;
origin = "{0, 11}";
type = Anchor;
},
{
horizontal = 1;
origin = "{0, 12}";
type = Anchor;
},
{
horizontal = 1;
origin = "{1, 0}";
type = Anchor;
},
{
horizontal = 1;
origin = "{1, 1}";
type = Anchor;
},
{
horizontal = 1;
origin = "{1, 2}";
type = Anchor;
},
{
horizontal = 1;
origin = "{1, 3}";
type = Anchor;
},
{
horizontal = 1;
origin = "{1, 4}";
type = Anchor;
},
{
horizontal = 1;
origin = "{1, 5}";
type = Anchor;
},
{
horizontal = 1;
origin = "{1, 6}";
type = Anchor;
},
{
horizontal = 1;
origin = "{1, 7}";
type = Anchor;
},
{
horizontal = 1;
origin = "{1, 8}";
type = Anchor;
},
{
horizontal = 1;
origin = "{1, 9}";
type = Anchor;
},
{
horizontal = 1;
origin = "{1, 10}";
type = Anchor;
},
{
horizontal = 1;
origin = "{1, 11}";
type = Anchor;
},
{
horizontal = 1;
origin = "{1, 12}";
type = Anchor;
}
);
layerId = "2831174B-BB35-4064-B049-1570B14F4C27";
paths = (
{
closed = 1;
nodes = (
"868 1 OFFCURVE",
"1146 289 OFFCURVE",
"1203 684 CURVE SMOOTH",
"1215 771 LINE SMOOTH",
"1230 892 OFFCURVE",
"1220 1004 OFFCURVE",
"1186 1109 CURVE SMOOTH",
"1118 1317 OFFCURVE",
"950 1454 OFFCURVE",
"690 1455 CURVE SMOOTH",
"312 1456 LINE",
"59 0 LINE",
"461 0 LINE SMOOTH"
);
},
{
closed = 1;
nodes = (
"795 1294 OFFCURVE",
"871 1267 OFFCURVE",
"923 1216 CURVE SMOOTH",
"1027 1113 OFFCURVE",
"1052 945 OFFCURVE",
"1029 774 CURVE SMOOTH",
"1017 691 LINE SMOOTH",
"973 388 OFFCURVE",
"779 156 OFFCURVE",
"459 156 CURVE SMOOTH",
"275 157 LINE",
"473 1298 LINE",
"696 1297 LINE SMOOTH"
);
}
);
width = 1304;
}
);
note = D;
rightKerningGroup = D;
unicode = 0044;
},
{
glyphname = E;
lastChange = "2017-05-28 19:45:31 +0000";
layers = (
{
hints = (
{
horizontal = 1;
origin = "{0, 0}";
type = Anchor;
},
{
horizontal = 1;
origin = "{0, 1}";
type = Anchor;
},
{
horizontal = 1;
origin = "{0, 2}";
type = Anchor;
},
{
horizontal = 1;
origin = "{0, 3}";
type = Anchor;
},
{
horizontal = 1;
origin = "{0, 4}";
type = Anchor;
},
{
horizontal = 1;
origin = "{0, 5}";
type = Anchor;
},
{
horizontal = 1;
origin = "{0, 6}";
type = Anchor;
},
{
horizontal = 1;
origin = "{0, 7}";
type = Anchor;
},
{
horizontal = 1;
origin = "{0, 8}";
type = Anchor;
},
{
horizontal = 1;
origin = "{0, 9}";
type = Anchor;
},
{
horizontal = 1;
origin = "{0, 10}";
type = Anchor;
},
{
horizontal = 1;
origin = "{0, 11}";
type = Anchor;
}
);
layerId = "2831174B-BB35-4064-B049-1570B14F4C27";
paths = (
{
closed = 1;
nodes = (
"986 157 LINE",
"275 157 LINE",
"365 673 LINE",
"976 673 LINE",
"1003 830 LINE",
"392 830 LINE",
"473 1298 LINE",
"1173 1298 LINE",
"1201 1456 LINE",
"312 1456 LINE",
"59 0 LINE",
"958 0 LINE"
);
}
);
width = 1129;
}
);
note = E;
rightKerningGroup = E;
unicode = 0045;
},
{
glyphname = F;
lastChange = "2017-05-28 19:45:33 +0000";
layers = (
{
hints = (
{
horizontal = 1;
origin = "{0, 0}";
type = Anchor;
},
{
horizontal = 1;
origin = "{0, 1}";
type = Anchor;
},
{
horizontal = 1;
origin = "{0, 2}";
type = Anchor;
},
{
horizontal = 1;
origin = "{0, 3}";
type = Anchor;
},
{
horizontal = 1;
origin = "{0, 4}";
type = Anchor;
},
{
horizontal = 1;
origin = "{0, 5}";
type = Anchor;
},
{
horizontal = 1;
origin = "{0, 6}";
type = Anchor;
},
{
horizontal = 1;
origin = "{0, 7}";
type = Anchor;
},
{
horizontal = 1;
origin = "{0, 8}";
type = Anchor;
},
{
horizontal = 1;
origin = "{0, 9}";
type = Anchor;
}
);
layerId = "2831174B-BB35-4064-B049-1570B14F4C27";
paths = (
{
closed = 1;
nodes = (
"360 643 LINE",
"951 643 LINE",
"979 801 LINE",
"387 801 LINE",
"473 1298 LINE",
"1160 1298 LINE",
"1188 1456 LINE",
"312 1456 LINE",
"59 0 LINE",
"248 0 LINE"
);
}
);
width = 1098;
}
);
note = F;
unicode = 0046;
},
{
glyphname = G;
lastChange = "2017-05-28 19:45:42 +0000";
layers = (
{
hints = (
{
horizontal = 1;
origin = "{0, 0}";
type = Anchor;
},
{
horizontal = 1;
origin = "{0, 1}";
type = Anchor;
},
{
horizontal = 1;
origin = "{0, 2}";
type = Anchor;
},
{
horizontal = 1;
origin = "{0, 3}";
type = Anchor;
},
{
horizontal = 1;
origin = "{0, 4}";
type = Anchor;
},
{
horizontal = 1;
origin = "{0, 5}";
type = Anchor;
},
{
horizontal = 1;
origin = "{0, 6}";
type = Anchor;
},
{
horizontal = 1;
origin = "{0, 7}";
type = Anchor;
},
{
horizontal = 1;
origin = "{0, 8}";
type = Anchor;
},
{
horizontal = 1;
origin = "{0, 9}";
type = Anchor;
},
{
horizontal = 1;
origin = "{0, 10}";
type = Anchor;
},
{
horizontal = 1;
origin = "{0, 11}";
type = Anchor;
},
{
horizontal = 1;
origin = "{0, 12}";
type = Anchor;
},
{
horizontal = 1;
origin = "{0, 13}";
type = Anchor;
},
{
horizontal = 1;
origin = "{0, 14}";
type = Anchor;
},
{
horizontal = 1;
origin = "{0, 15}";
type = Anchor;
},
{
horizontal = 1;
origin = "{0, 16}";
type = Anchor;
},
{
horizontal = 1;
origin = "{0, 17}";
type = Anchor;
},
{
horizontal = 1;
origin = "{0, 18}";
type = Anchor;
},
{
horizontal = 1;
origin = "{0, 19}";
type = Anchor;
},
{
horizontal = 1;
origin = "{0, 20}";
type = Anchor;
},
{
horizontal = 1;
origin = "{0, 21}";
type = Anchor;
},
{
horizontal = 1;
origin = "{0, 22}";
type = Anchor;
},
{
horizontal = 1;
origin = "{0, 23}";
type = Anchor;
},
{
horizontal = 1;
origin = "{0, 24}";
type = Anchor;
},
{
horizontal = 1;
origin = "{0, 25}";
type = Anchor;
},
{
horizontal = 1;
origin = "{0, 26}";
type = Anchor;
},
{
horizontal = 1;
origin = "{0, 27}";
type = Anchor;
},
{
horizontal = 1;
origin = "{0, 28}";
type = Anchor;
},
{
horizontal = 1;
origin = "{0, 29}";
type = Anchor;
},
{
horizontal = 1;
origin = "{0, 30}";
type = Anchor;
},
{
horizontal = 1;
origin = "{0, 31}";
type = Anchor;
},
{
horizontal = 1;
origin = "{0, 32}";
type = Anchor;
},
{
horizontal = 1;
origin = "{0, 33}";
type = Anchor;
},
{
horizontal = 1;
origin = "{0, 34}";
type = Anchor;
},
{
horizontal = 1;
origin = "{0, 35}";
type = Anchor;
},
{
horizontal = 1;
origin = "{0, 36}";
type = Anchor;
},
{
horizontal = 1;
origin = "{0, 37}";
type = Anchor;
},
{
horizontal = 1;
origin = "{0, 38}";
type = Anchor;
},
{
horizontal = 1;
origin = "{0, 39}";
type = Anchor;
},
{
horizontal = 1;
origin = "{0, 40}";
type = Anchor;
},
{
horizontal = 1;
origin = "{0, 23}";
type = Delta;
settings = {
deltaV = {
"{100, 100, 0, 0, 0}" = {
"14" = 3;
};
};
};
},
{
horizontal = 1;
origin = "{0, 24}";
type = Delta;
settings = {
deltaV = {
"{100, 100, 0, 0, 0}" = {
"14" = 3;
};
};
};
}
);
layerId = "2831174B-BB35-4064-B049-1570B14F4C27";
paths = (
{
closed = 1;
nodes = (
"687 569 LINE",
"1015 569 LINE",
"956 243 LINE",
"793 96 OFFCURVE",
"501 113 OFFCURVE",
"409 227 CURVE SMOOTH",
"316 341 OFFCURVE",
"301 519 OFFCURVE",
"321 671 CURVE SMOOTH",
"338 787 LINE SMOOTH",
"351 871 OFFCURVE",
"375 955 OFFCURVE",
"411 1039 CURVE SMOOTH",
"483 1206 OFFCURVE",
"612 1325 OFFCURVE",
"815 1318 CURVE SMOOTH",
"995 1313 OFFCURVE",
"1085 1202 OFFCURVE",
"1098 1029 CURVE",
"1284 1029 LINE",
"1274 1165 OFFCURVE",
"1229 1273 OFFCURVE",
"1150 1353 CURVE SMOOTH",
"991 1512 OFFCURVE",
"666 1512 OFFCURVE",
"479 1384 CURVE SMOOTH",
"291 1255 OFFCURVE",
"184 1029 OFFCURVE",
"148 785 CURVE SMOOTH",
"132 672 LINE SMOOTH",
"117 559 OFFCURVE",
"124 450 OFFCURVE",
"152 345 CURVE SMOOTH",
"208 135 OFFCURVE",
"357 -16 OFFCURVE",
"614 -20 CURVE SMOOTH",
"805 -23 OFFCURVE",
"1024 28 OFFCURVE",
"1143 192 CURVE",
"1229 725 LINE",
"715 725 LINE"
);
}
);
width = 1353;
}
);
leftKerningGroup = C;
note = G;
unicode = 0047;
},
{
glyphname = H;
lastChange = "2017-05-28 19:45:44 +0000";
layers = (
{
hints = (
{
horizontal = 1;
origin = "{0, 0}";
type = Anchor;
},
{
horizontal = 1;
origin = "{0, 1}";
type = Anchor;
},
{
horizontal = 1;
origin = "{0, 2}";
type = Anchor;
},
{
horizontal = 1;
origin = "{0, 3}";
type = Anchor;
},
{
horizontal = 1;
origin = "{0, 4}";
type = Anchor;
},
{
horizontal = 1;
origin = "{0, 5}";
type = Anchor;
},
{
horizontal = 1;
origin = "{0, 6}";
type = Anchor;
},
{
horizontal = 1;
origin = "{0, 7}";
type = Anchor;
},
{
horizontal = 1;
origin = "{0, 8}";
type = Anchor;
},
{
horizontal = 1;
origin = "{0, 9}";
type = Anchor;
},
{
horizontal = 1;
origin = "{0, 10}";
type = Anchor;
},
{
horizontal = 1;
origin = "{0, 11}";
type = Anchor;
}
);
layerId = "2831174B-BB35-4064-B049-1570B14F4C27";
paths = (
{
closed = 1;
nodes = (
"1399 1456 LINE",
"1211 1456 LINE",
"1102 830 LINE",
"392 830 LINE",
"501 1456 LINE",
"312 1456 LINE",
"59 0 LINE",
"248 0 LINE",
"365 673 LINE",
"1076 673 LINE",
"959 0 LINE",
"1146 0 LINE"
);
}
);
width = 1417;
}
);
note = H;
rightKerningGroup = H;
unicode = 0048;
},
{
glyphname = I;
lastChange = "2017-05-28 19:45:46 +0000";
layers = (
{
hints = (
{
horizontal = 1;
origin = "{0, 0}";
type = Anchor;
},
{
horizontal = 1;
origin = "{0, 1}";
type = Anchor;
},
{
horizontal = 1;
origin = "{0, 2}";
type = Anchor;
},
{
horizontal = 1;
origin = "{0, 3}";
type = Anchor;
}
);
layerId = "2831174B-BB35-4064-B049-1570B14F4C27";
paths = (
{
closed = 1;
nodes = (
"72 0 LINE",
"260 0 LINE",
"513 1456 LINE",
"325 1456 LINE"
);
}
);
width = 540;
}
);
note = I;
rightKerningGroup = H;
unicode = 0049;
},
{
glyphname = J;
lastChange = "2017-05-28 19:45:48 +0000";
layers = (
{
hints = (
{
horizontal = 1;
origin = "{0, 0}";
type = Anchor;
},
{
horizontal = 1;
origin = "{0, 1}";
type = Anchor;
},
{
horizontal = 1;
origin = "{0, 2}";
type = Anchor;
},
{
horizontal = 1;
origin = "{0, 3}";
type = Anchor;
},
{
horizontal = 1;
origin = "{0, 4}";
type = Anchor;
},
{
horizontal = 1;
origin = "{0, 5}";
type = Anchor;
},
{
horizontal = 1;
origin = "{0, 6}";
type = Anchor;
},
{
horizontal = 1;
origin = "{0, 7}";
type = Anchor;
},
{
horizontal = 1;
origin = "{0, 8}";
type = Anchor;
},
{
horizontal = 1;
origin = "{0, 9}";
type = Anchor;
},
{
horizontal = 1;
origin = "{0, 10}";
type = Anchor;
},
{
horizontal = 1;
origin = "{0, 11}";
type = Anchor;
},
{
horizontal = 1;
origin = "{0, 12}";
type = Anchor;
},
{
horizontal = 1;
origin = "{0, 13}";
type = Anchor;
},
{
horizontal = 1;
origin = "{0, 14}";
type = Anchor;
},
{
horizontal = 1;
origin = "{0, 15}";
type = Anchor;
}
);
layerId = "2831174B-BB35-4064-B049-1570B14F4C27";
paths = (
{
closed = 1;
nodes = (
"698 256 OFFCURVE",
"588 132 OFFCURVE",
"417 137 CURVE SMOOTH",
"256 141 OFFCURVE",
"192 251 OFFCURVE",
"204 403 CURVE",
"16 403 LINE",
"-1 146 OFFCURVE",
"148 -17 OFFCURVE",
"407 -22 CURVE SMOOTH",
"684 -27 OFFCURVE",
"878 156 OFFCURVE",
"917 425 CURVE SMOOTH",
"1092 1456 LINE",
"905 1456 LINE",
"727 412 LINE SMOOTH"
);
}
);
width = 1096;
}
);
leftKerningGroup = J;
note = J;
rightKerningGroup = J;
unicode = 004A;
},
{
glyphname = K;
lastChange = "2017-05-28 19:45:50 +0000";
layers = (
{
hints = (
{
horizontal = 1;
origin = "{0, 0}";
type = Anchor;
},
{
horizontal = 1;
origin = "{0, 1}";
type = Anchor;
},
{
horizontal = 1;
origin = "{0, 2}";
type = Anchor;
},
{
horizontal = 1;
origin = "{0, 3}";
type = Anchor;
},
{
horizontal = 1;
origin = "{0, 4}";
type = Anchor;
},
{
horizontal = 1;
origin = "{0, 5}";
type = Anchor;
},
{
horizontal = 1;
origin = "{0, 6}";
type = Anchor;
},
{
horizontal = 1;
origin = "{0, 7}";
type = Anchor;
},
{
horizontal = 1;
origin = "{0, 8}";
type = Anchor;
},
{
horizontal = 1;
origin = "{0, 9}";
type = Anchor;
},
{
horizontal = 1;
origin = "{0, 10}";
type = Anchor;
},
{
horizontal = 1;
origin = "{0, 11}";
type = Anchor;
},
{
horizontal = 1;
origin = "{0, 12}";
type = Anchor;
}
);
layerId = "2831174B-BB35-4064-B049-1570B14F4C27";
paths = (
{
closed = 1;
nodes = (
"684 805 LINE",
"1361 1456 LINE",
"1119 1456 LINE",
"565 925 LINE",
"377 748 LINE",
"501 1456 LINE",
"312 1456 LINE",
"59 0 LINE",
"248 0 LINE",
"332 484 LINE",
"545 676 LINE",
"927 0 LINE",
"1136 0 LINE"
);
}
);
width = 1246;
}
);
note = K;
rightKerningGroup = K;
unicode = 004B;
},
{
glyphname = L;
lastChange = "2017-05-28 19:45:52 +0000";
layers = (
{
hints = (
{
horizontal = 1;
origin = "{0, 0}";
type = Anchor;
},
{
horizontal = 1;
origin = "{0, 1}";
type = Anchor;
},
{
horizontal = 1;
origin = "{0, 2}";
type = Anchor;
},
{
horizontal = 1;
origin = "{0, 3}";
type = Anchor;
},
{
horizontal = 1;
origin = "{0, 4}";
type = Anchor;
},
{
horizontal = 1;
origin = "{0, 5}";
type = Anchor;
}
);
layerId = "2831174B-BB35-4064-B049-1570B14F4C27";
paths = (
{
closed = 1;
nodes = (
"501 1456 LINE",
"312 1456 LINE",
"59 0 LINE",
"917 0 LINE",
"945 157 LINE",
"275 157 LINE"
);
}
);
width = 1070;
}
);
note = L;
rightKerningGroup = L;
unicode = 004C;
},
{
glyphname = M;
lastChange = "2017-05-28 19:45:54 +0000";
layers = (
{
hints = (
{
horizontal = 1;
origin = "{0, 0}";
type = Anchor;
},
{
horizontal = 1;
origin = "{0, 1}";
type = Anchor;
},
{
horizontal = 1;
origin = "{0, 2}";
type = Anchor;
},
{
horizontal = 1;
origin = "{0, 3}";
type = Anchor;
},
{
horizontal = 1;
origin = "{0, 4}";
type = Anchor;
},
{
horizontal = 1;
origin = "{0, 5}";
type = Anchor;
},
{
horizontal = 1;
origin = "{0, 6}";
type = Anchor;
},
{
horizontal = 1;
origin = "{0, 7}";
type = Anchor;
},
{
horizontal = 1;
origin = "{0, 8}";
type = Anchor;
},
{
horizontal = 1;
origin = "{0, 9}";
type = Anchor;
},
{
horizontal = 1;
origin = "{0, 10}";
type = Anchor;
},
{
horizontal = 1;
origin = "{0, 11}";
type = Anchor;
},
{
horizontal = 1;
origin = "{0, 12}";
type = Anchor;
},
{
horizontal = 1;
origin = "{0, 13}";
type = Anchor;
},
{
horizontal = 1;
origin = "{0, 14}";
type = Anchor;
}
);
layerId = "2831174B-BB35-4064-B049-1570B14F4C27";
paths = (
{
closed = 1;
nodes = (
"312 1456 LINE",
"59 0 LINE",
"247 0 LINE",
"344 559 LINE",
"435 1188 LINE",
"695 0 LINE",
"838 0 LINE",
"1498 1160 LINE",
"1379 577 LINE",
"1279 0 LINE",
"1466 0 LINE",
"1719 1456 LINE",
"1473 1456 LINE",
"806 271 LINE",
"549 1456 LINE"
);
}
);
width = 1734;
}
);
note = M;
rightKerningGroup = H;
unicode = 004D;
},
{
glyphname = N;
lastChange = "2017-05-28 19:45:57 +0000";
layers = (
{
hints = (
{
horizontal = 1;
origin = "{0, 0}";
type = Anchor;
},
{
horizontal = 1;
origin = "{0, 1}";
type = Anchor;
},
{
horizontal = 1;
origin = "{0, 2}";
type = Anchor;
},
{
horizontal = 1;
origin = "{0, 3}";
type = Anchor;
},
{
horizontal = 1;
origin = "{0, 4}";
type = Anchor;
},
{
horizontal = 1;
origin = "{0, 5}";
type = Anchor;
},
{
horizontal = 1;
origin = "{0, 6}";
type = Anchor;
},
{
horizontal = 1;
origin = "{0, 7}";
type = Anchor;
},
{
horizontal = 1;
origin = "{0, 8}";
type = Anchor;
},
{
horizontal = 1;
origin = "{0, 9}";
type = Anchor;
}
);
layerId = "2831174B-BB35-4064-B049-1570B14F4C27";
paths = (
{
closed = 1;
nodes = (
"1016 322 LINE",
"494 1456 LINE",
"312 1456 LINE",
"59 0 LINE",
"248 0 LINE",
"444 1131 LINE",
"964 0 LINE",
"1147 0 LINE",
"1400 1456 LINE",
"1213 1456 LINE"
);
}
);
width = 1417;
}
);
note = N;
rightKerningGroup = H;
unicode = 004E;
},
{
glyphname = O;
lastChange = "2017-05-28 19:45:59 +0000";
layers = (
{
hints = (
{
horizontal = 1;
origin = "{0, 0}";
type = Anchor;
},
{
horizontal = 1;
origin = "{0, 1}";
type = Anchor;
},
{
horizontal = 1;
origin = "{0, 2}";
type = Anchor;
},
{
horizontal = 1;
origin = "{0, 3}";
type = Anchor;
},
{
horizontal = 1;
origin = "{0, 4}";
type = Anchor;
},
{
horizontal = 1;
origin = "{0, 5}";
type = Anchor;
},
{
horizontal = 1;
origin = "{0, 6}";
type = Anchor;
},
{
horizontal = 1;
origin = "{0, 7}";
type = Anchor;
},
{
horizontal = 1;
origin = "{0, 8}";
type = Anchor;
},
{
horizontal = 1;
origin = "{0, 9}";
type = Anchor;
},
{
horizontal = 1;
origin = "{0, 10}";
type = Anchor;
},
{
horizontal = 1;
origin = "{0, 11}";
type = Anchor;
},
{
horizontal = 1;
origin = "{0, 12}";
type = Anchor;
},
{
horizontal = 1;
origin = "{0, 13}";
type = Anchor;
},
{
horizontal = 1;
origin = "{0, 14}";
type = Anchor;
},
{
horizontal = 1;
origin = "{0, 15}";
type = Anchor;
},
{
horizontal = 1;
origin = "{0, 16}";
type = Anchor;
},
{
horizontal = 1;
origin = "{0, 17}";
type = Anchor;
},
{
horizontal = 1;
origin = "{0, 18}";
type = Anchor;
},
{
horizontal = 1;
origin = "{0, 19}";
type = Anchor;
},
{
horizontal = 1;
origin = "{1, 0}";
type = Anchor;
},
{
horizontal = 1;
origin = "{1, 1}";
type = Anchor;
},
{
horizontal = 1;
origin = "{1, 2}";
type = Anchor;
},
{
horizontal = 1;
origin = "{1, 3}";
type = Anchor;
},
{
horizontal = 1;
origin = "{1, 4}";
type = Anchor;
},
{
horizontal = 1;
origin = "{1, 5}";
type = Anchor;
},
{
horizontal = 1;
origin = "{1, 6}";
type = Anchor;
},
{
horizontal = 1;
origin = "{1, 7}";
type = Anchor;
},
{
horizontal = 1;
origin = "{1, 8}";
type = Anchor;
},
{
horizontal = 1;
origin = "{1, 9}";
type = Anchor;
},
{
horizontal = 1;
origin = "{1, 10}";
type = Anchor;
},
{
horizontal = 1;
origin = "{1, 11}";
type = Anchor;
},
{
horizontal = 1;
origin = "{1, 12}";
type = Anchor;
},
{
horizontal = 1;
origin = "{1, 13}";
type = Anchor;
},
{
horizontal = 1;
origin = "{1, 14}";
type = Anchor;
},
{
horizontal = 1;
origin = "{1, 15}";
type = Anchor;
},
{
horizontal = 1;
origin = "{1, 16}";
type = Anchor;
},
{
horizontal = 1;
origin = "{1, 17}";
type = Anchor;
},
{
horizontal = 1;
origin = "{1, 18}";
type = Anchor;
},
{
horizontal = 1;
origin = "{1, 19}";
type = Anchor;
},
{
horizontal = 1;
origin = "{1, 20}";
type = Anchor;
}
);
layerId = "2831174B-BB35-4064-B049-1570B14F4C27";
paths = (
{
closed = 1;
nodes = (
"1309 997 OFFCURVE",
"1266 1226 OFFCURVE",
"1122 1367 CURVE SMOOTH",
"978 1507 OFFCURVE",
"669 1514 OFFCURVE",
"480 1378 CURVE SMOOTH",
"291 1242 OFFCURVE",
"179 1010 OFFCURVE",
"144 774 CURVE SMOOTH",
"131 682 LINE SMOOTH",
"103 462 OFFCURVE",
"148 233 OFFCURVE",
"292 91 CURVE SMOOTH",
"436 -51 OFFCURVE",
"746 -58 OFFCURVE",
"935 78 CURVE SMOOTH",
"1123 213 OFFCURVE",
"1233 445 OFFCURVE",
"1268 682 CURVE SMOOTH",
"1280 774 LINE SMOOTH"
);
},
{
closed = 1;
nodes = (
"1103 946 OFFCURVE",
"1103 881 OFFCURVE",
"1098 818 CURVE SMOOTH",
"1075 542 OFFCURVE",
"997 341 OFFCURVE",
"860 225 CURVE SMOOTH",
"723 108 OFFCURVE",
"481 118 OFFCURVE",
"394 235 CURVE SMOOTH",
"307 352 OFFCURVE",
"303 517 OFFCURVE",
"314 642 CURVE SMOOTH",
"325 778 OFFCURVE",
"351 895 OFFCURVE",
"391 994 CURVE SMOOTH",
"471 1191 OFFCURVE",
"607 1318 OFFCURVE",
"811 1313 CURVE SMOOTH",
"1004 1306 OFFCURVE",
"1081 1176 OFFCURVE",
"1097 1013 CURVE SMOOTH"
);
}
);
width = 1367;
}
);
leftKerningGroup = C;
note = O;
rightKerningGroup = D;
unicode = 004F;
},
{
glyphname = P;
lastChange = "2017-05-28 19:46:01 +0000";
layers = (
{
hints = (
{
horizontal = 1;
origin = "{0, 0}";
type = Anchor;
},
{
horizontal = 1;
origin = "{0, 1}";
type = Anchor;
},
{
horizontal = 1;
origin = "{0, 2}";
type = Anchor;
},
{
horizontal = 1;
origin = "{0, 3}";
type = Anchor;
},
{
horizontal = 1;
origin = "{0, 4}";
type = Anchor;
},
{
horizontal = 1;
origin = "{0, 5}";
type = Anchor;
},
{
horizontal = 1;
origin = "{0, 6}";
type = Anchor;
},
{
horizontal = 1;
origin = "{0, 7}";
type = Anchor;
},
{
horizontal = 1;
origin = "{0, 8}";
type = Anchor;
},
{
horizontal = 1;
origin = "{0, 9}";
type = Anchor;
},
{
horizontal = 1;
origin = "{0, 10}";
type = Anchor;
},
{
horizontal = 1;
origin = "{1, 0}";
type = Anchor;
},
{
horizontal = 1;
origin = "{1, 1}";
type = Anchor;
},
{
horizontal = 1;
origin = "{1, 2}";
type = Anchor;
},
{
horizontal = 1;
origin = "{1, 3}";
type = Anchor;
},
{
horizontal = 1;
origin = "{1, 4}";
type = Anchor;
},
{
horizontal = 1;
origin = "{1, 5}";
type = Anchor;
},
{
horizontal = 1;
origin = "{1, 6}";
type = Anchor;
},
{
horizontal = 1;
origin = "{1, 7}";
type = Anchor;
},
{
horizontal = 1;
origin = "{1, 8}";
type = Anchor;
}
);
layerId = "2831174B-BB35-4064-B049-1570B14F4C27";
paths = (
{
closed = 1;
nodes = (
"981 569 OFFCURVE",
"1224 712 OFFCURVE",
"1251 1019 CURVE SMOOTH",
"1275 1294 OFFCURVE",
"1082 1448 OFFCURVE",
"822 1455 CURVE SMOOTH",
"312 1456 LINE",
"59 0 LINE",
"248 0 LINE",
"347 571 LINE",
"692 570 LINE SMOOTH"
);
},
{
closed = 1;
nodes = (
"985 1292 OFFCURVE",
"1084 1187 OFFCURVE",
"1063 1018 CURVE SMOOTH",
"1039 821 OFFCURVE",
"886 727 OFFCURVE",
"697 727 CURVE SMOOTH",
"374 728 LINE",
"473 1298 LINE",
"817 1297 LINE SMOOTH"
);
}
);
width = 1253;
}
);
note = P;
rightKerningGroup = P;
unicode = 0050;
},
{
glyphname = Q;
lastChange = "2017-05-28 19:46:03 +0000";
layers = (
{
hints = (
{
horizontal = 1;
origin = "{0, 0}";
type = Anchor;
},
{
horizontal = 1;
origin = "{0, 1}";
type = Anchor;
},
{
horizontal = 1;
origin = "{0, 2}";
type = Anchor;
},
{
horizontal = 1;
origin = "{0, 3}";
type = Anchor;
},
{
horizontal = 1;
origin = "{0, 4}";
type = Anchor;
},
{
horizontal = 1;
origin = "{0, 5}";
type = Anchor;
},
{
horizontal = 1;
origin = "{0, 6}";
type = Anchor;
},
{
horizontal = 1;
origin = "{0, 7}";
type = Anchor;
},
{
horizontal = 1;
origin = "{0, 8}";
type = Anchor;
},
{
horizontal = 1;
origin = "{0, 9}";
type = Anchor;
},
{
horizontal = 1;
origin = "{0, 10}";
type = Anchor;
},
{
horizontal = 1;
origin = "{0, 11}";
type = Anchor;
},
{
horizontal = 1;
origin = "{0, 12}";
type = Anchor;
},
{
horizontal = 1;
origin = "{0, 13}";
type = Anchor;
},
{
horizontal = 1;
origin = "{0, 14}";
type = Anchor;
},
{
horizontal = 1;
origin = "{0, 15}";
type = Anchor;
},
{
horizontal = 1;
origin = "{0, 16}";
type = Anchor;
},
{
horizontal = 1;
origin = "{0, 17}";
type = Anchor;
},
{
horizontal = 1;
origin = "{0, 18}";
type = Anchor;
},
{
horizontal = 1;
origin = "{0, 19}";
type = Anchor;
},
{
horizontal = 1;
origin = "{0, 20}";
type = Anchor;
},
{
horizontal = 1;
origin = "{0, 21}";
type = Anchor;
},
{
horizontal = 1;
origin = "{0, 22}";
type = Anchor;
},
{
horizontal = 1;
origin = "{0, 23}";
type = Anchor;
},
{
horizontal = 1;
origin = "{0, 24}";
type = Anchor;
},
{
horizontal = 1;
origin = "{0, 25}";
type = Anchor;
},
{
horizontal = 1;
origin = "{1, 0}";
type = Anchor;
},
{
horizontal = 1;
origin = "{1, 1}";
type = Anchor;
},
{
horizontal = 1;
origin = "{1, 2}";
type = Anchor;
},
{
horizontal = 1;
origin = "{1, 3}";
type = Anchor;
},
{
horizontal = 1;
origin = "{1, 4}";
type = Anchor;
},
{
horizontal = 1;
origin = "{1, 5}";
type = Anchor;
},
{
horizontal = 1;
origin = "{1, 6}";
type = Anchor;
},
{
horizontal = 1;
origin = "{1, 7}";
type = Anchor;
},
{
horizontal = 1;
origin = "{1, 8}";
type = Anchor;
},
{
horizontal = 1;
origin = "{1, 9}";
type = Anchor;
},
{
horizontal = 1;
origin = "{1, 10}";
type = Anchor;
},
{
horizontal = 1;
origin = "{1, 11}";
type = Anchor;
},
{
horizontal = 1;
origin = "{1, 12}";
type = Anchor;
},
{
horizontal = 1;
origin = "{1, 13}";
type = Anchor;
},
{
horizontal = 1;
origin = "{1, 14}";
type = Anchor;
},
{
horizontal = 1;
origin = "{1, 15}";
type = Anchor;
},
{
horizontal = 1;
origin = "{1, 16}";
type = Anchor;
},
{
horizontal = 1;
origin = "{1, 17}";
type = Anchor;
},
{
horizontal = 1;
origin = "{1, 18}";
type = Anchor;
},
{
horizontal = 1;
origin = "{1, 19}";
type = Anchor;
},
{
horizontal = 1;
origin = "{1, 20}";
type = Anchor;
},
{
horizontal = 1;
origin = "{1, 21}";
type = Anchor;
}
);
layerId = "2831174B-BB35-4064-B049-1570B14F4C27";
paths = (
{
closed = 1;
nodes = (
"1121 209 OFFCURVE",
"1222 438 OFFCURVE",
"1258 682 CURVE SMOOTH",
"1271 774 LINE SMOOTH",
"1299 997 OFFCURVE",
"1256 1226 OFFCURVE",
"1112 1367 CURVE SMOOTH",
"968 1507 OFFCURVE",
"660 1514 OFFCURVE",
"470 1378 CURVE SMOOTH",
"280 1241 OFFCURVE",
"169 1010 OFFCURVE",
"134 774 CURVE SMOOTH",
"122 682 LINE SMOOTH",
"108 573 OFFCURVE",
"113 465 OFFCURVE",
"138 358 CURVE SMOOTH",
"186 144 OFFCURVE",
"325 -15 OFFCURVE",
"581 -19 CURVE SMOOTH",
"626 -20 OFFCURVE",
"676 -14 OFFCURVE",
"729 -3 CURVE",
"983 -246 LINE",
"1121 -134 LINE",
"905 76 LINE"
);
},
{
closed = 1;
nodes = (
"1096 921 OFFCURVE",
"1096 853 OFFCURVE",
"1071 681 CURVE SMOOTH",
"1046 508 OFFCURVE",
"973 324 OFFCURVE",
"841 217 CURVE SMOOTH",
"709 110 OFFCURVE",
"471 118 OFFCURVE",
"384 235 CURVE SMOOTH",
"297 352 OFFCURVE",
"289 533 OFFCURVE",
"308 681 CURVE SMOOTH",
"320 768 LINE SMOOTH",
"332 855 OFFCURVE",
"357 942 OFFCURVE",
"395 1027 CURVE SMOOTH",
"471 1197 OFFCURVE",
"603 1318 OFFCURVE",
"802 1313 CURVE SMOOTH",
"994 1306 OFFCURVE",
"1072 1177 OFFCURVE",
"1088 1013 CURVE SMOOTH"
);
}
);
width = 1367;
}
);
leftKerningGroup = C;
note = Q;
unicode = 0051;
},
{
glyphname = R;
lastChange = "2017-05-28 19:46:05 +0000";
layers = (
{
hints = (
{
horizontal = 1;
origin = "{0, 0}";
type = Anchor;
},
{
horizontal = 1;
origin = "{0, 1}";
type = Anchor;
},
{
horizontal = 1;
origin = "{0, 2}";
type = Anchor;
},
{
horizontal = 1;
origin = "{0, 3}";
type = Anchor;
},
{
horizontal = 1;
origin = "{0, 4}";
type = Anchor;
},
{
horizontal = 1;
origin = "{0, 5}";
type = Anchor;
},
{
horizontal = 1;
origin = "{0, 6}";
type = Anchor;
},
{
horizontal = 1;
origin = "{0, 7}";
type = Anchor;
},
{
horizontal = 1;
origin = "{0, 8}";
type = Anchor;
},
{
horizontal = 1;
origin = "{0, 9}";
type = Anchor;
},
{
horizontal = 1;
origin = "{0, 10}";
type = Anchor;
},
{
horizontal = 1;
origin = "{0, 11}";
type = Anchor;
},
{
horizontal = 1;
origin = "{0, 12}";
type = Anchor;
},
{
horizontal = 1;
origin = "{0, 13}";
type = Anchor;
},
{
horizontal = 1;
origin = "{0, 14}";
type = Anchor;
},
{
horizontal = 1;
origin = "{1, 0}";
type = Anchor;
},
{
horizontal = 1;
origin = "{1, 1}";
type = Anchor;
},
{
horizontal = 1;
origin = "{1, 2}";
type = Anchor;
},
{
horizontal = 1;
origin = "{1, 3}";
type = Anchor;
},
{
horizontal = 1;
origin = "{1, 4}";
type = Anchor;
},
{
horizontal = 1;
origin = "{1, 5}";
type = Anchor;
},
{
horizontal = 1;
origin = "{1, 6}";
type = Anchor;
},
{
horizontal = 1;
origin = "{1, 7}";
type = Anchor;
},
{
horizontal = 1;
origin = "{1, 8}";
type = Anchor;
}
);
layerId = "2831174B-BB35-4064-B049-1570B14F4C27";
paths = (
{
closed = 1;
nodes = (
"1091 13 LINE",
"865 628 LINE",
"1045 693 OFFCURVE",
"1182 827 OFFCURVE",
"1199 1027 CURVE SMOOTH",
"1224 1310 OFFCURVE",
"1033 1450 OFFCURVE",
"768 1455 CURVE SMOOTH",
"312 1456 LINE",
"59 0 LINE",
"248 0 LINE",
"351 590 LINE",
"685 590 LINE",
"890 0 LINE",
"1090 0 LINE"
);
},
{
closed = 1;
nodes = (
"932 1292 OFFCURVE",
"1033 1201 OFFCURVE",
"1012 1028 CURVE SMOOTH",
"988 843 OFFCURVE",
"828 746 OFFCURVE",
"653 746 CURVE SMOOTH",
"377 747 LINE",
"473 1298 LINE",
"764 1297 LINE SMOOTH"
);
}
);
width = 1224;
}
);
note = R;
unicode = 0052;
},
{
glyphname = S;
lastChange = "2017-05-28 19:46:07 +0000";
layers = (
{
hints = (
{
horizontal = 1;
origin = "{0, 0}";
type = Anchor;
},
{
horizontal = 1;
origin = "{0, 1}";
type = Anchor;
},
{
horizontal = 1;
origin = "{0, 2}";
type = Anchor;
},
{
horizontal = 1;
origin = "{0, 3}";
type = Anchor;
},
{
horizontal = 1;
origin = "{0, 4}";
type = Anchor;
},
{
horizontal = 1;
origin = "{0, 5}";
type = Anchor;
},
{
horizontal = 1;
origin = "{0, 6}";
type = Anchor;
},
{
horizontal = 1;
origin = "{0, 7}";
type = Anchor;
},
{
horizontal = 1;
origin = "{0, 8}";
type = Anchor;
},
{
horizontal = 1;
origin = "{0, 9}";
type = Anchor;
},
{
horizontal = 1;
origin = "{0, 10}";
type = Anchor;
},
{
horizontal = 1;
origin = "{0, 11}";
type = Anchor;
},
{
horizontal = 1;
origin = "{0, 12}";
type = Anchor;
},
{
horizontal = 1;
origin = "{0, 13}";
type = Anchor;
},
{
horizontal = 1;
origin = "{0, 14}";
type = Anchor;
},
{
horizontal = 1;
origin = "{0, 15}";
type = Anchor;
},
{
horizontal = 1;
origin = "{0, 16}";
type = Anchor;
},
{
horizontal = 1;
origin = "{0, 17}";
type = Anchor;
},
{
horizontal = 1;
origin = "{0, 18}";
type = Anchor;
},
{
horizontal = 1;
origin = "{0, 19}";
type = Anchor;
},
{
horizontal = 1;
origin = "{0, 20}";
type = Anchor;
},
{
horizontal = 1;
origin = "{0, 21}";
type = Anchor;
},
{
horizontal = 1;
origin = "{0, 22}";
type = Anchor;
},
{
horizontal = 1;
origin = "{0, 23}";
type = Anchor;
},
{
horizontal = 1;
origin = "{0, 24}";
type = Anchor;
},
{
horizontal = 1;
origin = "{0, 25}";
type = Anchor;
},
{
horizontal = 1;
origin = "{0, 26}";
type = Anchor;
},
{
horizontal = 1;
origin = "{0, 27}";
type = Anchor;
},
{
horizontal = 1;
origin = "{0, 28}";
type = Anchor;
},
{
horizontal = 1;
origin = "{0, 29}";
type = Anchor;
},
{
horizontal = 1;
origin = "{0, 30}";
type = Anchor;
},
{
horizontal = 1;
origin = "{0, 31}";
type = Anchor;
},
{
horizontal = 1;
origin = "{0, 32}";
type = Anchor;
},
{
horizontal = 1;
origin = "{0, 33}";
type = Anchor;
},
{
horizontal = 1;
origin = "{0, 34}";
type = Anchor;
},
{
horizontal = 1;
origin = "{0, 35}";
type = Anchor;
},
{
horizontal = 1;
origin = "{0, 36}";
type = Anchor;
},
{
horizontal = 1;
origin = "{0, 37}";
type = Anchor;
},
{
horizontal = 1;
origin = "{0, 38}";
type = Anchor;
},
{
horizontal = 1;
origin = "{0, 39}";
type = Anchor;
},
{
horizontal = 1;
origin = "{0, 40}";
type = Anchor;
},
{
horizontal = 1;
origin = "{0, 41}";
type = Anchor;
},
{
horizontal = 1;
origin = "{0, 42}";
type = Anchor;
},
{
horizontal = 1;
origin = "{0, 43}";
type = Anchor;
},
{
horizontal = 1;
origin = "{0, 44}";
type = Anchor;
},
{
horizontal = 1;
origin = "{0, 45}";
type = Anchor;
},
{
horizontal = 1;
origin = "{0, 46}";
type = Anchor;
},
{
horizontal = 1;
origin = "{0, 47}";
type = Anchor;
},
{
horizontal = 1;
origin = "{0, 48}";
type = Anchor;
},
{
horizontal = 1;
origin = "{0, 49}";
type = Anchor;
}
);
layerId = "2831174B-BB35-4064-B049-1570B14F4C27";
paths = (
{
closed = 1;
nodes = (
"852 202 OFFCURVE",
"685 133 OFFCURVE",
"528 137 CURVE SMOOTH",
"351 140 OFFCURVE",
"220 235 OFFCURVE",
"233 422 CURVE",
"46 423 LINE",
"31 146 OFFCURVE",
"260 -16 OFFCURVE",
"520 -20 CURVE SMOOTH",
"687 -24 OFFCURVE",
"860 32 OFFCURVE",
"971 150 CURVE SMOOTH",
"1082 268 OFFCURVE",
"1093 475 OFFCURVE",
"1022 587 CURVE SMOOTH",
"950 698 OFFCURVE",
"823 766 OFFCURVE",
"657 822 CURVE SMOOTH",
"574 850 OFFCURVE",
"514 877 OFFCURVE",
"479 902 CURVE SMOOTH",
"408 953 OFFCURVE",
"387 1002 OFFCURVE",
"396 1074 CURVE SMOOTH",
"417 1245 OFFCURVE",
"573 1321 OFFCURVE",
"732 1318 CURVE SMOOTH",
"908 1314 OFFCURVE",
"1007 1211 OFFCURVE",
"992 1036 CURVE",
"1180 1035 LINE",
"1193 1302 OFFCURVE",
"997 1471 OFFCURVE",
"740 1476 CURVE SMOOTH",
"575 1480 OFFCURVE",
"406 1418 OFFCURVE",
"299 1298 CURVE SMOOTH",
"191 1177 OFFCURVE",
"183 987 OFFCURVE",
"247 884 CURVE SMOOTH",
"311 780 OFFCURVE",
"434 707 OFFCURVE",
"613 646 CURVE SMOOTH",
"702 615 OFFCURVE",
"764 587 OFFCURVE",
"799 561 CURVE SMOOTH",
"868 509 OFFCURVE",
"887 455 OFFCURVE",
"876 375 CURVE SMOOTH"
);
}
);
width = 1180;
}
);
leftKerningGroup = S;
note = S;
unicode = 0053;
},
{
glyphname = T;
lastChange = "2017-05-28 19:46:08 +0000";
layers = (
{
hints = (
{
horizontal = 1;
origin = "{0, 0}";
type = Anchor;
},
{
horizontal = 1;
origin = "{0, 1}";
type = Anchor;
},
{
horizontal = 1;
origin = "{0, 2}";
type = Anchor;
},
{
horizontal = 1;
origin = "{0, 3}";
type = Anchor;
},
{
horizontal = 1;
origin = "{0, 4}";
type = Anchor;
},
{
horizontal = 1;
origin = "{0, 5}";
type = Anchor;
},
{
horizontal = 1;
origin = "{0, 6}";
type = Anchor;
},
{
horizontal = 1;
origin = "{0, 7}";
type = Anchor;
}
);
layerId = "2831174B-BB35-4064-B049-1570B14F4C27";
paths = (
{
closed = 1;
nodes = (
"396 0 LINE",
"582 0 LINE",
"807 1298 LINE",
"1260 1298 LINE",
"1288 1456 LINE",
"196 1456 LINE",
"168 1298 LINE",
"621 1298 LINE"
);
}
);
width = 1185;
}
);
leftKerningGroup = T;
note = T;
rightKerningGroup = T;
unicode = 0054;
},
{
glyphname = U;
lastChange = "2017-05-28 19:46:10 +0000";
layers = (
{
hints = (
{
horizontal = 1;
origin = "{0, 0}";
type = Anchor;
},
{
horizontal = 1;
origin = "{0, 1}";
type = Anchor;
},
{
horizontal = 1;
origin = "{0, 2}";
type = Anchor;
},
{
horizontal = 1;
origin = "{0, 3}";
type = Anchor;
},
{
horizontal = 1;
origin = "{0, 4}";
type = Anchor;
},
{
horizontal = 1;
origin = "{0, 5}";
type = Anchor;
},
{
horizontal = 1;
origin = "{0, 6}";
type = Anchor;
},
{
horizontal = 1;
origin = "{0, 7}";
type = Anchor;
},
{
horizontal = 1;
origin = "{0, 8}";
type = Anchor;
},
{
horizontal = 1;
origin = "{0, 9}";
type = Anchor;
},
{
horizontal = 1;
origin = "{0, 10}";
type = Anchor;
},
{
horizontal = 1;
origin = "{0, 11}";
type = Anchor;
},
{
horizontal = 1;
origin = "{0, 12}";
type = Anchor;
},
{
horizontal = 1;
origin = "{0, 13}";
type = Anchor;
},
{
horizontal = 1;
origin = "{0, 14}";
type = Anchor;
},
{
horizontal = 1;
origin = "{0, 15}";
type = Anchor;
},
{
horizontal = 1;
origin = "{0, 16}";
type = Anchor;
},
{
horizontal = 1;
origin = "{0, 17}";
type = Anchor;
}
);
layerId = "2831174B-BB35-4064-B049-1570B14F4C27";
paths = (
{
closed = 1;
nodes = (
"913 259 OFFCURVE",
"771 130 OFFCURVE",
"563 137 CURVE SMOOTH",
"363 142 OFFCURVE",
"279 281 OFFCURVE",
"302 470 CURVE",
"469 1456 LINE",
"283 1456 LINE",
"115 471 LINE",
"82 179 OFFCURVE",
"264 -16 OFFCURVE",
"553 -21 CURVE SMOOTH",
"860 -26 OFFCURVE",
"1095 170 OFFCURVE",
"1139 473 CURVE SMOOTH",
"1307 1456 LINE",
"1119 1456 LINE",
"949 459 LINE SMOOTH"
);
}
);
width = 1288;
}
);
leftKerningGroup = U;
note = U;
rightKerningGroup = J;
unicode = 0055;
},
{
glyphname = V;
lastChange = "2017-05-28 19:46:13 +0000";
layers = (
{
hints = (
{
horizontal = 1;
origin = "{0, 0}";
type = Anchor;
},
{
horizontal = 1;
origin = "{0, 1}";
type = Anchor;
},
{
horizontal = 1;
origin = "{0, 2}";
type = Anchor;
},
{
horizontal = 1;
origin = "{0, 3}";
type = Anchor;
},
{
horizontal = 1;
origin = "{0, 4}";
type = Anchor;
},
{
horizontal = 1;
origin = "{0, 5}";
type = Anchor;
},
{
horizontal = 1;
origin = "{0, 6}";
type = Anchor;
}
);
layerId = "2831174B-BB35-4064-B049-1570B14F4C27";
paths = (
{
closed = 1;
nodes = (
"574 258 LINE",
"362 1456 LINE",
"165 1456 LINE",
"459 0 LINE",
"626 0 LINE",
"1377 1456 LINE",
"1166 1456 LINE"
);
}
);
width = 1265;
}
);
leftKerningGroup = V;
note = V;
rightKerningGroup = V;
unicode = 0056;
},
{
glyphname = W;
lastChange = "2017-05-28 19:46:15 +0000";
layers = (
{
hints = (
{
horizontal = 1;
origin = "{0, 0}";
type = Anchor;
},
{
horizontal = 1;
origin = "{0, 1}";
type = Anchor;
},
{
horizontal = 1;
origin = "{0, 2}";
type = Anchor;
},
{
horizontal = 1;
origin = "{0, 3}";
type = Anchor;
},
{
horizontal = 1;
origin = "{0, 4}";
type = Anchor;
},
{
horizontal = 1;
origin = "{0, 5}";
type = Anchor;
},
{
horizontal = 1;
origin = "{0, 6}";
type = Anchor;
},
{
horizontal = 1;
origin = "{0, 7}";
type = Anchor;
},
{
horizontal = 1;
origin = "{0, 8}";
type = Anchor;
},
{
horizontal = 1;
origin = "{0, 9}";
type = Anchor;
},
{
horizontal = 1;
origin = "{0, 10}";
type = Anchor;
},
{
horizontal = 1;
origin = "{0, 11}";
type = Anchor;
},
{
horizontal = 1;
origin = "{0, 12}";
type = Anchor;
},
{
horizontal = 1;
origin = "{0, 13}";
type = Anchor;
},
{
horizontal = 1;
origin = "{0, 14}";
type = Anchor;
},
{
horizontal = 1;
origin = "{0, 15}";
type = Anchor;
},
{
horizontal = 1;
origin = "{0, 16}";
type = Anchor;
},
{
horizontal = 1;
origin = "{0, 17}";
type = Anchor;
},
{
horizontal = 1;
origin = "{0, 18}";
type = Anchor;
}
);
layerId = "2831174B-BB35-4064-B049-1570B14F4C27";
paths = (
{
closed = 1;
nodes = (
"1292 470 LINE",
"1228 264 LINE",
"1218 432 LINE",
"1103 1456 LINE",
"945 1456 LINE",
"510 448 LINE",
"442 273 LINE",
"445 451 LINE",
"377 1456 LINE",
"194 1456 LINE",
"309 0 LINE",
"480 0 LINE",
"944 1053 LINE",
"986 1169 LINE",
"990 1068 LINE",
"1116 0 LINE",
"1287 0 LINE",
"1856 1456 LINE",
"1663 1456 LINE"
);
}
);
width = 1762;
}
);
leftKerningGroup = W;
note = W;
rightKerningGroup = W;
unicode = 0057;
},
{
glyphname = X;
lastChange = "2017-05-28 19:46:17 +0000";
layers = (
{
hints = (
{
horizontal = 1;
origin = "{0, 0}";
type = Anchor;
},
{
horizontal = 1;
origin = "{0, 1}";
type = Anchor;
},
{
horizontal = 1;
origin = "{0, 2}";
type = Anchor;
},
{
horizontal = 1;
origin = "{0, 3}";
type = Anchor;
},
{
horizontal = 1;
origin = "{0, 4}";
type = Anchor;
},
{
horizontal = 1;
origin = "{0, 5}";
type = Anchor;
},
{
horizontal = 1;
origin = "{0, 6}";
type = Anchor;
},
{
horizontal = 1;
origin = "{0, 7}";
type = Anchor;
},
{
horizontal = 1;
origin = "{0, 8}";
type = Anchor;
},
{
horizontal = 1;
origin = "{0, 9}";
type = Anchor;
},
{
horizontal = 1;
origin = "{0, 10}";
type = Anchor;
},
{
horizontal = 1;
origin = "{0, 11}";
type = Anchor;
}
);
layerId = "2831174B-BB35-4064-B049-1570B14F4C27";
paths = (
{
closed = 1;
nodes = (
"536 744 LINE",
"-44 0 LINE",
"189 0 LINE",
"626 568 LINE",
"885 0 LINE",
"1095 0 LINE",
"756 726 LINE",
"1323 1456 LINE",
"1092 1456 LINE",
"666 899 LINE",
"414 1456 LINE",
"206 1456 LINE"
);
}
);
width = 1245;
}
);
leftKerningGroup = X;
note = X;
rightKerningGroup = X;
unicode = 0058;
},
{
glyphname = Y;
lastChange = "2017-05-28 19:46:19 +0000";
layers = (
{
hints = (
{
horizontal = 1;
origin = "{0, 0}";
type = Anchor;
},
{
horizontal = 1;
origin = "{0, 1}";
type = Anchor;
},
{
horizontal = 1;
origin = "{0, 2}";
type = Anchor;
},
{
horizontal = 1;
origin = "{0, 3}";
type = Anchor;
},
{
horizontal = 1;
origin = "{0, 4}";
type = Anchor;
},
{
horizontal = 1;
origin = "{0, 5}";
type = Anchor;
},
{
horizontal = 1;
origin = "{0, 6}";
type = Anchor;
},
{
horizontal = 1;
origin = "{0, 7}";
type = Anchor;
},
{
horizontal = 1;
origin = "{0, 8}";
type = Anchor;
}
);
layerId = "2831174B-BB35-4064-B049-1570B14F4C27";
paths = (
{
closed = 1;
nodes = (
"494 555 LINE",
"397 0 LINE",
"585 0 LINE",
"678 534 LINE",
"1331 1456 LINE",
"1106 1456 LINE",
"612 726 LINE",
"373 1456 LINE",
"168 1456 LINE"
);
}
);
width = 1193;
}
);
leftKerningGroup = Y;
note = Y;
rightKerningGroup = Y;
unicode = 0059;
},
{
glyphname = Z;
lastChange = "2017-05-28 19:46:21 +0000";
layers = (
{
hints = (
{
horizontal = 1;
origin = "{0, 0}";
type = Anchor;
},
{
horizontal = 1;
origin = "{0, 1}";
type = Anchor;
},
{
horizontal = 1;
origin = "{0, 2}";
type = Anchor;
},
{
horizontal = 1;
origin = "{0, 3}";
type = Anchor;
},
{
horizontal = 1;
origin = "{0, 4}";
type = Anchor;
},
{
horizontal = 1;
origin = "{0, 5}";
type = Anchor;
},
{
horizontal = 1;
origin = "{0, 6}";
type = Anchor;
},
{
horizontal = 1;
origin = "{0, 7}";
type = Anchor;
},
{
horizontal = 1;
origin = "{0, 8}";
type = Anchor;
},
{
horizontal = 1;
origin = "{0, 9}";
type = Anchor;
}
);
layerId = "2831174B-BB35-4064-B049-1570B14F4C27";
paths = (
{
closed = 1;
nodes = (
"6 154 LINE",
"-21 0 LINE",
"1007 0 LINE",
"1035 157 LINE",
"234 157 LINE",
"1203 1307 LINE",
"1229 1456 LINE",
"244 1456 LINE",
"216 1298 LINE",
"972 1298 LINE"
);
}
);
width = 1190;
}
);
leftKerningGroup = Z;
note = Z;
rightKerningGroup = Z;
unicode = 005A;
},
{
glyphname = bracketleft;
lastChange = "2017-05-19 14:51:26 +0000";
layers = (
{
layerId = "2831174B-BB35-4064-B049-1570B14F4C27";
paths = (
{
closed = 1;
nodes = (
"-1 -312 LINE",
"365 -312 LINE",
"389 -160 LINE",
"203 -160 LINE",
"464 1512 LINE",
"649 1512 LINE",
"674 1664 LINE",
"307 1664 LINE"
);
}
);
width = 527;
}
);
note = bracketleft;
unicode = 005B;
},
{
glyphname = backslash;
lastChange = "2017-05-19 14:51:26 +0000";
layers = (
{
layerId = "2831174B-BB35-4064-B049-1570B14F4C27";
paths = (
{
closed = 1;
nodes = (
"355 1456 LINE",
"191 1456 LINE",
"507 -125 LINE",
"670 -125 LINE"
);
}
);
width = 816;
}
);
note = backslash;
unicode = 005C;
},
{
glyphname = bracketright;
lastChange = "2017-05-19 14:51:26 +0000";
layers = (
{
layerId = "2831174B-BB35-4064-B049-1570B14F4C27";
paths = (
{
closed = 1;
nodes = (
"76 -160 LINE",
"-110 -160 LINE",
"-134 -312 LINE",
"234 -312 LINE",
"543 1664 LINE",
"175 1664 LINE",
"150 1512 LINE",
"337 1512 LINE"
);
}
);
width = 527;
}
);
note = bracketright;
unicode = 005D;
},
{
glyphname = asciicircum;
lastChange = "2017-05-19 14:51:26 +0000";
layers = (
{
layerId = "2831174B-BB35-4064-B049-1570B14F4C27";
paths = (
{
closed = 1;
nodes = (
"525 1209 LINE",
"625 729 LINE",
"784 729 LINE",
"621 1456 LINE",
"496 1456 LINE",
"79 729 LINE",
"256 729 LINE"
);
}
);
width = 830;
}
);
note = asciicircum;
unicode = 005E;
},
{
glyphname = underscore;
lastChange = "2017-05-19 14:51:26 +0000";
layers = (
{
layerId = "2831174B-BB35-4064-B049-1570B14F4C27";
paths = (
{
closed = 1;
nodes = (
"-128 -152 LINE",
"763 -152 LINE",
"790 0 LINE",
"-101 0 LINE"
);
}
);
width = 896;
}
);
note = underscore;
unicode = 005F;
},
{
glyphname = grave;
lastChange = "2017-05-19 14:51:26 +0000";
layers = (
{
layerId = "2831174B-BB35-4064-B049-1570B14F4C27";
paths = (
{
closed = 1;
nodes = (
"412 1242 LINE",
"554 1242 LINE",
"413 1536 LINE",
"207 1536 LINE"
);
}
);
width = 614;
}
);
note = grave;
unicode = 0060;
},
{
glyphname = a;
lastChange = "2017-05-19 14:51:26 +0000";
layers = (
{
layerId = "2831174B-BB35-4064-B049-1570B14F4C27";
paths = (
{
closed = 1;
nodes = (
"875 17 LINE",
"865 52 OFFCURVE",
"861 89 OFFCURVE",
"862 126 CURVE",
"868 210 LINE",
"955 740 LINE",
"966 851 OFFCURVE",
"940 939 OFFCURVE",
"875 1004 CURVE SMOOTH",
"745 1132 OFFCURVE",
"551 1116 OFFCURVE",
"417 1069 CURVE SMOOTH",
"283 1022 OFFCURVE",
"177 926 OFFCURVE",
"162 782 CURVE",
"343 783 LINE",
"368 898 OFFCURVE",
"484 955 OFFCURVE",
"596 954 CURVE SMOOTH",
"725 951 OFFCURVE",
"789 868 OFFCURVE",
"776 743 CURVE",
"763 656 LINE",
"575 657 LINE SMOOTH",
"418 657 OFFCURVE",
"249 616 OFFCURVE",
"142 510 CURVE SMOOTH",
"35 404 OFFCURVE",
"15 180 OFFCURVE",
"140 67 CURVE SMOOTH",
"265 -46 OFFCURVE",
"486 -70 OFFCURVE",
"685 114 CURVE",
"683 57 LINE",
"683 38 OFFCURVE",
"685 19 OFFCURVE",
"689 0 CURVE",
"873 0 LINE"
);
},
{
closed = 1;
nodes = (
"352 142 OFFCURVE",
"309 158 OFFCURVE",
"278 190 CURVE SMOOTH",
"214 253 OFFCURVE",
"231 391 OFFCURVE",
"311 451 CURVE SMOOTH",
"378 502 OFFCURVE",
"476 527 OFFCURVE",
"605 527 CURVE SMOOTH",
"742 526 LINE",
"702 303 LINE",
"634 206 OFFCURVE",
"526 138 OFFCURVE",
"405 141 CURVE SMOOTH"
);
}
);
width = 1081;
}
);
leftKerningGroup = a;
note = a;
rightKerningGroup = a;
unicode = 0061;
},
{
glyphname = b;
lastChange = "2017-05-28 19:46:35 +0000";
layers = (
{
hints = (
{
horizontal = 1;
origin = "{0, 0}";
type = Anchor;
},
{
horizontal = 1;
origin = "{0, 1}";
type = Anchor;
},
{
horizontal = 1;
origin = "{0, 2}";
type = Anchor;
},
{
horizontal = 1;
origin = "{0, 3}";
type = Anchor;
},
{
horizontal = 1;
origin = "{0, 4}";
type = Anchor;
},
{
horizontal = 1;
origin = "{0, 5}";
type = Anchor;
},
{
horizontal = 1;
origin = "{0, 6}";
type = Anchor;
},
{
horizontal = 1;
origin = "{0, 7}";
type = Anchor;
},
{
horizontal = 1;
origin = "{0, 8}";
type = Anchor;
},
{
horizontal = 1;
origin = "{0, 9}";
type = Anchor;
},
{
horizontal = 1;
origin = "{0, 10}";
type = Anchor;
},
{
horizontal = 1;
origin = "{0, 11}";
type = Anchor;
},
{
horizontal = 1;
origin = "{0, 12}";
type = Anchor;
},
{
horizontal = 1;
origin = "{0, 13}";
type = Anchor;
},
{
horizontal = 1;
origin = "{0, 14}";
type = Anchor;
},
{
horizontal = 1;
origin = "{0, 15}";
type = Anchor;
},
{
horizontal = 1;
origin = "{0, 16}";
type = Anchor;
},
{
horizontal = 1;
origin = "{0, 17}";
type = Anchor;
},
{
horizontal = 1;
origin = "{0, 18}";
type = Anchor;
},
{
horizontal = 1;
origin = "{0, 19}";
type = Anchor;
},
{
horizontal = 1;
origin = "{1, 0}";
type = Anchor;
},
{
horizontal = 1;
origin = "{1, 1}";
type = Anchor;
},
{
horizontal = 1;
origin = "{1, 2}";
type = Anchor;
},
{
horizontal = 1;
origin = "{1, 3}";
type = Anchor;
},
{
horizontal = 1;
origin = "{1, 4}";
type = Anchor;
},
{
horizontal = 1;
origin = "{1, 5}";
type = Anchor;
},
{
horizontal = 1;
origin = "{1, 6}";
type = Anchor;
},
{
horizontal = 1;
origin = "{1, 7}";
type = Anchor;
},
{
horizontal = 1;
origin = "{1, 8}";
type = Anchor;
},
{
horizontal = 1;
origin = "{1, 9}";
type = Anchor;
},
{
horizontal = 1;
origin = "{1, 10}";
type = Anchor;
},
{
horizontal = 1;
origin = "{1, 11}";
type = Anchor;
},
{
horizontal = 1;
origin = "{1, 12}";
type = Anchor;
},
{
horizontal = 1;
origin = "{1, 13}";
type = Anchor;
},
{
horizontal = 1;
origin = "{1, 14}";
type = Anchor;
},
{
horizontal = 1;
origin = "{1, 15}";
type = Anchor;
},
{
horizontal = 1;
origin = "{1, 16}";
type = Anchor;
}
);
layerId = "2831174B-BB35-4064-B049-1570B14F4C27";
paths = (
{
closed = 1;
nodes = (
"624 -23 OFFCURVE",
"707 2 OFFCURVE",
"774 54 CURVE SMOOTH",
"905 155 OFFCURVE",
"986 321 OFFCURVE",
"1017 552 CURVE SMOOTH",
"1034 713 OFFCURVE",
"1011 896 OFFCURVE",
"910 1012 CURVE SMOOTH",
"809 1127 OFFCURVE",
"544 1153 OFFCURVE",
"372 964 CURVE",
"480 1536 LINE",
"298 1536 LINE",
"31 0 LINE",
"199 0 LINE",
"236 126 LINE",
"299 33 OFFCURVE",
"396 -16 OFFCURVE",
"526 -21 CURVE SMOOTH"
);
},
{
closed = 1;
nodes = (
"703 945 OFFCURVE",
"753 922 OFFCURVE",
"784 879 CURVE SMOOTH",
"845 792 OFFCURVE",
"847 660 OFFCURVE",
"834 552 CURVE SMOOTH",
"832 531 LINE",
"815 407 OFFCURVE",
"766 273 OFFCURVE",
"671 193 CURVE SMOOTH",
"576 113 OFFCURVE",
"346 88 OFFCURVE",
"266 305 CURVE",
"348 779 LINE",
"426 894 OFFCURVE",
"521 950 OFFCURVE",
"633 947 CURVE SMOOTH"
);
}
);
width = 1116;
}
);
note = b;
rightKerningGroup = b;
unicode = 0062;
},
{
glyphname = c;
lastChange = "2017-05-28 19:46:37 +0000";
layers = (
{
hints = (
{
horizontal = 1;
origin = "{0, 0}";
type = Anchor;
},
{
horizontal = 1;
origin = "{0, 1}";
type = Anchor;
},
{
horizontal = 1;
origin = "{0, 2}";
type = Anchor;
},
{
horizontal = 1;
origin = "{0, 3}";
type = Anchor;
},
{
horizontal = 1;
origin = "{0, 4}";
type = Anchor;
},
{
horizontal = 1;
origin = "{0, 5}";
type = Anchor;
},
{
horizontal = 1;
origin = "{0, 6}";
type = Anchor;
},
{
horizontal = 1;
origin = "{0, 7}";
type = Anchor;
},
{
horizontal = 1;
origin = "{0, 8}";
type = Anchor;
},
{
horizontal = 1;
origin = "{0, 9}";
type = Anchor;
},
{
horizontal = 1;
origin = "{0, 10}";
type = Anchor;
},
{
horizontal = 1;
origin = "{0, 11}";
type = Anchor;
},
{
horizontal = 1;
origin = "{0, 12}";
type = Anchor;
},
{
horizontal = 1;
origin = "{0, 13}";
type = Anchor;
},
{
horizontal = 1;
origin = "{0, 14}";
type = Anchor;
},
{
horizontal = 1;
origin = "{0, 15}";
type = Anchor;
},
{
horizontal = 1;
origin = "{0, 16}";
type = Anchor;
},
{
horizontal = 1;
origin = "{0, 17}";
type = Anchor;
},
{
horizontal = 1;
origin = "{0, 18}";
type = Anchor;
},
{
horizontal = 1;
origin = "{0, 19}";
type = Anchor;
},
{
horizontal = 1;
origin = "{0, 20}";
type = Anchor;
},
{
horizontal = 1;
origin = "{0, 21}";
type = Anchor;
},
{
horizontal = 1;
origin = "{0, 22}";
type = Anchor;
},
{
horizontal = 1;
origin = "{0, 23}";
type = Anchor;
},
{
horizontal = 1;
origin = "{0, 24}";
type = Anchor;
},
{
horizontal = 1;
origin = "{0, 25}";
type = Anchor;
},
{
horizontal = 1;
origin = "{0, 26}";
type = Anchor;
},
{
horizontal = 1;
origin = "{0, 27}";
type = Anchor;
},
{
horizontal = 1;
origin = "{0, 28}";
type = Anchor;
},
{
horizontal = 1;
origin = "{0, 29}";
type = Anchor;
},
{
horizontal = 1;
origin = "{0, 30}";
type = Anchor;
},
{
horizontal = 1;
origin = "{0, 31}";
type = Anchor;
},
{
horizontal = 1;
origin = "{0, 32}";
type = Anchor;
},
{
horizontal = 1;
origin = "{0, 33}";
type = Anchor;
},
{
horizontal = 1;
origin = "{0, 34}";
type = Anchor;
},
{
horizontal = 1;
origin = "{0, 35}";
type = Anchor;
},
{
horizontal = 1;
origin = "{0, 36}";
type = Anchor;
}
);
layerId = "2831174B-BB35-4064-B049-1570B14F4C27";
paths = (
{
closed = 1;
nodes = (
"413 133 OFFCURVE",
"361 154 OFFCURVE",
"327 194 CURVE SMOOTH",
"259 273 OFFCURVE",
"247 401 OFFCURVE",
"258 518 CURVE SMOOTH",
"260 537 LINE SMOOTH",
"292 805 OFFCURVE",
"421 956 OFFCURVE",
"612 951 CURVE SMOOTH",
"751 946 OFFCURVE",
"821 839 OFFCURVE",
"824 710 CURVE",
"994 709 LINE",
"994 821 OFFCURVE",
"960 914 OFFCURVE",
"893 988 CURVE SMOOTH",
"757 1135 OFFCURVE",
"501 1131 OFFCURVE",
"349 1031 CURVE SMOOTH",
"197 930 OFFCURVE",
"105 753 OFFCURVE",
"84 560 CURVE SMOOTH",
"80 517 LINE SMOOTH",
"71 427 OFFCURVE",
"79 341 OFFCURVE",
"104 260 CURVE SMOOTH",
"152 97 OFFCURVE",
"272 -17 OFFCURVE",
"475 -20 CURVE SMOOTH",
"688 -24 OFFCURVE",
"901 125 OFFCURVE",
"932 342 CURVE",
"760 341 LINE",
"727 214 OFFCURVE",
"615 128 OFFCURVE",
"483 131 CURVE SMOOTH"
);
}
);
width = 1040;
}
);
leftKerningGroup = c;
note = c;
rightKerningGroup = c;
unicode = 0063;
},
{
glyphname = d;
lastChange = "2017-05-28 19:46:40 +0000";
layers = (
{
hints = (
{
horizontal = 1;
origin = "{0, 0}";
type = Anchor;
},
{
horizontal = 1;
origin = "{0, 1}";
type = Anchor;
},
{
horizontal = 1;
origin = "{0, 2}";
type = Anchor;
},
{
horizontal = 1;
origin = "{0, 3}";
type = Anchor;
},
{
horizontal = 1;
origin = "{0, 4}";
type = Anchor;
},
{
horizontal = 1;
origin = "{0, 5}";
type = Anchor;
},
{
horizontal = 1;
origin = "{0, 6}";
type = Anchor;
},
{
horizontal = 1;
origin = "{0, 7}";
type = Anchor;
},
{
horizontal = 1;
origin = "{0, 8}";
type = Anchor;
},
{
horizontal = 1;
origin = "{0, 9}";
type = Anchor;
},
{
horizontal = 1;
origin = "{0, 10}";
type = Anchor;
},
{
horizontal = 1;
origin = "{0, 11}";
type = Anchor;
},
{
horizontal = 1;
origin = "{0, 12}";
type = Anchor;
},
{
horizontal = 1;
origin = "{0, 13}";
type = Anchor;
},
{
horizontal = 1;
origin = "{0, 14}";
type = Anchor;
},
{
horizontal = 1;
origin = "{0, 15}";
type = Anchor;
},
{
horizontal = 1;
origin = "{0, 16}";
type = Anchor;
},
{
horizontal = 1;
origin = "{0, 17}";
type = Anchor;
},
{
horizontal = 1;
origin = "{0, 18}";
type = Anchor;
},
{
horizontal = 1;
origin = "{0, 19}";
type = Anchor;
},
{
horizontal = 1;
origin = "{1, 0}";
type = Anchor;
},
{
horizontal = 1;
origin = "{1, 1}";
type = Anchor;
},
{
horizontal = 1;
origin = "{1, 2}";
type = Anchor;
},
{
horizontal = 1;
origin = "{1, 3}";
type = Anchor;
},
{
horizontal = 1;
origin = "{1, 4}";
type = Anchor;
},
{
horizontal = 1;
origin = "{1, 5}";
type = Anchor;
},
{
horizontal = 1;
origin = "{1, 6}";
type = Anchor;
},
{
horizontal = 1;
origin = "{1, 7}";
type = Anchor;
},
{
horizontal = 1;
origin = "{1, 8}";
type = Anchor;
},
{
horizontal = 1;
origin = "{1, 9}";
type = Anchor;
},
{
horizontal = 1;
origin = "{1, 10}";
type = Anchor;
},
{
horizontal = 1;
origin = "{1, 11}";
type = Anchor;
},
{
horizontal = 1;
origin = "{1, 12}";
type = Anchor;
},
{
horizontal = 1;
origin = "{1, 13}";
type = Anchor;
},
{
horizontal = 1;
origin = "{1, 14}";
type = Anchor;
},
{
horizontal = 1;
origin = "{1, 15}";
type = Anchor;
}
);
layerId = "2831174B-BB35-4064-B049-1570B14F4C27";
paths = (
{
closed = 1;
nodes = (
"1141 1536 LINE",
"959 1536 LINE",
"855 973 LINE",
"790 1058 OFFCURVE",
"697 1101 OFFCURVE",
"577 1102 CURVE SMOOTH",
"478 1105 OFFCURVE",
"395 1080 OFFCURVE",
"326 1027 CURVE SMOOTH",
"193 925 OFFCURVE",
"110 758 OFFCURVE",
"79 526 CURVE SMOOTH",
"63 370 OFFCURVE",
"91 188 OFFCURVE",
"194 72 CURVE SMOOTH",
"297 -45 OFFCURVE",
"554 -71 OFFCURVE",
"729 116 CURVE",
"710 0 LINE",
"875 0 LINE"
);
},
{
closed = 1;
nodes = (
"285 688 OFFCURVE",
"337 813 OFFCURVE",
"433 892 CURVE SMOOTH",
"529 971 OFFCURVE",
"750 991 OFFCURVE",
"830 794 CURVE",
"743 293 LINE",
"666 186 OFFCURVE",
"574 134 OFFCURVE",
"467 137 CURVE SMOOTH",
"398 139 OFFCURVE",
"349 161 OFFCURVE",
"318 204 CURVE SMOOTH",
"256 289 OFFCURVE",
"250 422 OFFCURVE",
"262 527 CURVE SMOOTH"
);
}
);
width = 1120;
}
);
leftKerningGroup = c;
note = d;
unicode = 0064;
},
{
glyphname = e;
lastChange = "2017-05-28 19:46:42 +0000";
layers = (
{
hints = (
{
horizontal = 1;
origin = "{0, 0}";
type = Anchor;
},
{
horizontal = 1;
origin = "{0, 1}";
type = Anchor;
},
{
horizontal = 1;
origin = "{0, 2}";
type = Anchor;
},
{
horizontal = 1;
origin = "{0, 3}";
type = Anchor;
},
{
horizontal = 1;
origin = "{0, 4}";
type = Anchor;
},
{
horizontal = 1;
origin = "{0, 5}";
type = Anchor;
},
{
horizontal = 1;
origin = "{0, 6}";
type = Anchor;
},
{
horizontal = 1;
origin = "{0, 7}";
type = Anchor;
},
{
horizontal = 1;
origin = "{0, 8}";
type = Anchor;
},
{
horizontal = 1;
origin = "{0, 9}";
type = Anchor;
},
{
horizontal = 1;
origin = "{0, 10}";
type = Anchor;
},
{
horizontal = 1;
origin = "{0, 11}";
type = Anchor;
},
{
horizontal = 1;
origin = "{0, 12}";
type = Anchor;
},
{
horizontal = 1;
origin = "{0, 13}";
type = Anchor;
},
{
horizontal = 1;
origin = "{0, 14}";
type = Anchor;
},
{
horizontal = 1;
origin = "{0, 15}";
type = Anchor;
},
{
horizontal = 1;
origin = "{0, 16}";
type = Anchor;
},
{
horizontal = 1;
origin = "{0, 17}";
type = Anchor;
},
{
horizontal = 1;
origin = "{0, 18}";
type = Anchor;
},
{
horizontal = 1;
origin = "{0, 19}";
type = Anchor;
},
{
horizontal = 1;
origin = "{0, 20}";
type = Anchor;
},
{
horizontal = 1;
origin = "{0, 21}";
type = Anchor;
},
{
horizontal = 1;
origin = "{0, 22}";
type = Anchor;
},
{
horizontal = 1;
origin = "{0, 23}";
type = Anchor;
},
{
horizontal = 1;
origin = "{0, 24}";
type = Anchor;
},
{
horizontal = 1;
origin = "{1, 0}";
type = Anchor;
},
{
horizontal = 1;
origin = "{1, 1}";
type = Anchor;
},
{
horizontal = 1;
origin = "{1, 2}";
type = Anchor;
},
{
horizontal = 1;
origin = "{1, 3}";
type = Anchor;
},
{
horizontal = 1;
origin = "{1, 4}";
type = Anchor;
},
{
horizontal = 1;
origin = "{1, 5}";
type = Anchor;
},
{
horizontal = 1;
origin = "{1, 6}";
type = Anchor;
},
{
horizontal = 1;
origin = "{1, 7}";
type = Anchor;
}
);
layerId = "2831174B-BB35-4064-B049-1570B14F4C27";
paths = (
{
closed = 1;
nodes = (
"720 191 OFFCURVE",
"625 128 OFFCURVE",
"504 131 CURVE SMOOTH",
"308 136 OFFCURVE",
"238 318 OFFCURVE",
"257 489 CURVE",
"963 489 LINE",
"974 572 LINE SMOOTH",
"994 747 OFFCURVE",
"958 917 OFFCURVE",
"846 1021 CURVE SMOOTH",
"733 1125 OFFCURVE",
"498 1133 OFFCURVE",
"347 1026 CURVE SMOOTH",
"196 918 OFFCURVE",
"103 737 OFFCURVE",
"82 553 CURVE SMOOTH",
"76 500 LINE",
"55 228 OFFCURVE",
"194 -15 OFFCURVE",
"489 -20 CURVE SMOOTH",
"656 -23 OFFCURVE",
"808 49 OFFCURVE",
"903 188 CURVE",
"800 276 LINE"
);
},
{
closed = 1;
nodes = (
"763 946 OFFCURVE",
"824 799 OFFCURVE",
"804 655 CURVE",
"801 639 LINE",
"276 640 LINE",
"324 792 OFFCURVE",
"420 958 OFFCURVE",
"603 951 CURVE SMOOTH"
);
}
);
width = 1053;
}
);
leftKerningGroup = c;
note = e;
rightKerningGroup = e;
unicode = 0065;
},
{
glyphname = f;
lastChange = "2017-05-28 19:46:44 +0000";
layers = (
{
hints = (
{
horizontal = 1;
origin = "{0, 0}";
type = Anchor;
},
{
horizontal = 1;
origin = "{0, 1}";
type = Anchor;
},
{
horizontal = 1;
origin = "{0, 2}";
type = Anchor;
},
{
horizontal = 1;
origin = "{0, 3}";
type = Anchor;
},
{
horizontal = 1;
origin = "{0, 4}";
type = Anchor;
},
{
horizontal = 1;
origin = "{0, 5}";
type = Anchor;
},
{
horizontal = 1;
origin = "{0, 6}";
type = Anchor;
},
{
horizontal = 1;
origin = "{0, 7}";
type = Anchor;
},
{
horizontal = 1;
origin = "{0, 8}";
type = Anchor;
},
{
horizontal = 1;
origin = "{0, 9}";
type = Anchor;
},
{
horizontal = 1;
origin = "{0, 10}";
type = Anchor;
},
{
horizontal = 1;
origin = "{0, 11}";
type = Anchor;
},
{
horizontal = 1;
origin = "{0, 12}";
type = Anchor;
},
{
horizontal = 1;
origin = "{0, 13}";
type = Anchor;
},
{
horizontal = 1;
origin = "{0, 14}";
type = Anchor;
},
{
horizontal = 1;
origin = "{0, 15}";
type = Anchor;
},
{
horizontal = 1;
origin = "{0, 16}";
type = Anchor;
},
{
horizontal = 1;
origin = "{0, 17}";
type = Anchor;
},
{
horizontal = 1;
origin = "{0, 18}";
type = Anchor;
},
{
horizontal = 1;
origin = "{0, 19}";
type = Anchor;
},
{
horizontal = 1;
origin = "{0, 20}";
type = Anchor;
},
{
horizontal = 1;
origin = "{0, 21}";
type = Anchor;
},
{
horizontal = 1;
origin = "{0, 22}";
type = Anchor;
},
{
horizontal = 1;
origin = "{0, 23}";
type = Anchor;
}
);
layerId = "2831174B-BB35-4064-B049-1570B14F4C27";
paths = (
{
closed = 1;
nodes = (
"488 1082 LINE",
"504 1190 LINE SMOOTH",
"513 1253 OFFCURVE",
"537 1304 OFFCURVE",
"575 1344 CURVE SMOOTH",
"651 1423 OFFCURVE",
"758 1406 OFFCURVE",
"826 1391 CURVE",
"848 1543 LINE",
"791 1554 OFFCURVE",
"748 1559 OFFCURVE",
"718 1559 CURVE SMOOTH",
"490 1562 OFFCURVE",
"351 1415 OFFCURVE",
"323 1196 CURVE SMOOTH",
"307 1082 LINE",
"141 1082 LINE",
"117 940 LINE",
"283 940 LINE",
"119 0 LINE",
"300 0 LINE",
"463 940 LINE",
"686 940 LINE",
"711 1082 LINE"
);
}
);
width = 691;
}
);
note = f;
unicode = 0066;
},
{
glyphname = g;
lastChange = "2017-05-28 19:46:46 +0000";
layers = (
{
hints = (
{
horizontal = 1;
origin = "{0, 0}";
type = Anchor;
},
{
horizontal = 1;
origin = "{0, 1}";
type = Anchor;
},
{
horizontal = 1;
origin = "{0, 2}";
type = Anchor;
},
{
horizontal = 1;
origin = "{0, 3}";
type = Anchor;
},
{
horizontal = 1;
origin = "{0, 4}";
type = Anchor;
},
{
horizontal = 1;
origin = "{0, 5}";
type = Anchor;
},
{
horizontal = 1;
origin = "{0, 6}";
type = Anchor;
},
{
horizontal = 1;
origin = "{0, 7}";
type = Anchor;
},
{
horizontal = 1;
origin = "{0, 8}";
type = Anchor;
},
{
horizontal = 1;
origin = "{0, 9}";
type = Anchor;
},
{
horizontal = 1;
origin = "{0, 10}";
type = Anchor;
},
{
horizontal = 1;
origin = "{0, 11}";
type = Anchor;
},
{
horizontal = 1;
origin = "{0, 12}";
type = Anchor;
},
{
horizontal = 1;
origin = "{0, 13}";
type = Anchor;
},
{
horizontal = 1;
origin = "{0, 14}";
type = Anchor;
},
{
horizontal = 1;
origin = "{0, 15}";
type = Anchor;
},
{
horizontal = 1;
origin = "{0, 16}";
type = Anchor;
},
{
horizontal = 1;
origin = "{0, 17}";
type = Anchor;
},
{
horizontal = 1;
origin = "{0, 18}";
type = Anchor;
},
{
horizontal = 1;
origin = "{0, 19}";
type = Anchor;
},
{
horizontal = 1;
origin = "{0, 20}";
type = Anchor;
},
{
horizontal = 1;
origin = "{0, 21}";
type = Anchor;
},
{
horizontal = 1;
origin = "{0, 22}";
type = Anchor;
},
{
horizontal = 1;
origin = "{0, 23}";
type = Anchor;
},
{
horizontal = 1;
origin = "{0, 24}";
type = Anchor;
},
{
horizontal = 1;
origin = "{0, 25}";
type = Anchor;
},
{
horizontal = 1;
origin = "{0, 26}";
type = Anchor;
},
{
horizontal = 1;
origin = "{0, 27}";
type = Anchor;
},
{
horizontal = 1;
origin = "{0, 28}";
type = Anchor;
},
{
horizontal = 1;
origin = "{0, 29}";
type = Anchor;
},
{
horizontal = 1;
origin = "{1, 0}";
type = Anchor;
},
{
horizontal = 1;
origin = "{1, 1}";
type = Anchor;
},
{
horizontal = 1;
origin = "{1, 2}";
type = Anchor;
},
{
horizontal = 1;
origin = "{1, 3}";
type = Anchor;
},
{
horizontal = 1;
origin = "{1, 4}";
type = Anchor;
},
{
horizontal = 1;
origin = "{1, 5}";
type = Anchor;
},
{
horizontal = 1;
origin = "{1, 6}";
type = Anchor;
},
{
horizontal = 1;
origin = "{1, 7}";
type = Anchor;
},
{
horizontal = 1;
origin = "{1, 8}";
type = Anchor;
},
{
horizontal = 1;
origin = "{1, 9}";
type = Anchor;
},
{
horizontal = 1;
origin = "{1, 10}";
type = Anchor;
},
{
horizontal = 1;
origin = "{1, 11}";
type = Anchor;
},
{
horizontal = 1;
origin = "{1, 12}";
type = Anchor;
},
{
horizontal = 1;
origin = "{1, 13}";
type = Anchor;
},
{
horizontal = 1;
origin = "{1, 14}";
type = Anchor;
},
{
horizontal = 1;
origin = "{1, 15}";
type = Anchor;
}
);
layerId = "2831174B-BB35-4064-B049-1570B14F4C27";
paths = (
{
closed = 1;
nodes = (
"898 1082 LINE",
"863 961 LINE",
"736 1144 OFFCURVE",
"460 1134 OFFCURVE",
"321 1023 CURVE SMOOTH",
"182 912 OFFCURVE",
"107 727 OFFCURVE",
"84 548 CURVE",
"82 526 LINE SMOOTH",
"65 370 OFFCURVE",
"93 188 OFFCURVE",
"194 72 CURVE SMOOTH",
"295 -45 OFFCURVE",
"548 -68 OFFCURVE",
"723 109 CURVE",
"702 7 LINE SMOOTH",
"684 -78 OFFCURVE",
"646 -147 OFFCURVE",
"589 -200 CURVE SMOOTH",
"473 -306 OFFCURVE",
"241 -318 OFFCURVE",
"106 -127 CURVE",
"2 -235 LINE",
"82 -356 OFFCURVE",
"227 -423 OFFCURVE",
"372 -427 CURVE SMOOTH",
"651 -435 OFFCURVE",
"844 -246 OFFCURVE",
"883 23 CURVE SMOOTH",
"1063 1082 LINE"
);
},
{
closed = 1;
nodes = (
"258 413 OFFCURVE",
"258 476 OFFCURVE",
"265 548 CURVE",
"282 673 OFFCURVE",
"334 809 OFFCURVE",
"431 890 CURVE SMOOTH",
"527 971 OFFCURVE",
"753 992 OFFCURVE",
"832 791 CURVE",
"746 296 LINE",
"678 201 OFFCURVE",
"590 133 OFFCURVE",
"467 137 CURVE SMOOTH",
"330 141 OFFCURVE",
"274 239 OFFCURVE",
"263 359 CURVE SMOOTH"
);
}
);
width = 1116;
}
);
leftKerningGroup = c;
note = g;
unicode = 0067;
},
{
glyphname = h;
lastChange = "2017-05-28 19:46:49 +0000";
layers = (
{
hints = (
{
horizontal = 1;
origin = "{0, 0}";
type = Anchor;
},
{
horizontal = 1;
origin = "{0, 1}";
type = Anchor;
},
{
horizontal = 1;
origin = "{0, 2}";
type = Anchor;
},
{
horizontal = 1;
origin = "{0, 3}";
type = Anchor;
},
{
horizontal = 1;
origin = "{0, 4}";
type = Anchor;
},
{
horizontal = 1;
origin = "{0, 5}";
type = Anchor;
},
{
horizontal = 1;
origin = "{0, 6}";
type = Anchor;
},
{
horizontal = 1;
origin = "{0, 7}";
type = Anchor;
},
{
horizontal = 1;
origin = "{0, 8}";
type = Anchor;
},
{
horizontal = 1;
origin = "{0, 9}";
type = Anchor;
},
{
horizontal = 1;
origin = "{0, 10}";
type = Anchor;
},
{
horizontal = 1;
origin = "{0, 11}";
type = Anchor;
},
{
horizontal = 1;
origin = "{0, 12}";
type = Anchor;
},
{
horizontal = 1;
origin = "{0, 13}";
type = Anchor;
},
{
horizontal = 1;
origin = "{0, 14}";
type = Anchor;
},
{
horizontal = 1;
origin = "{0, 15}";
type = Anchor;
},
{
horizontal = 1;
origin = "{0, 16}";
type = Anchor;
},
{
horizontal = 1;
origin = "{0, 17}";
type = Anchor;
},
{
horizontal = 1;
origin = "{0, 18}";
type = Anchor;
},
{
horizontal = 1;
origin = "{0, 19}";
type = Anchor;
}
);
layerId = "2831174B-BB35-4064-B049-1570B14F4C27";
paths = (
{
closed = 1;
nodes = (
"777 943 OFFCURVE",
"812 841 OFFCURVE",
"797 712 CURVE",
"677 0 LINE",
"859 0 LINE",
"977 709 LINE",
"988 814 OFFCURVE",
"973 905 OFFCURVE",
"932 982 CURVE SMOOTH",
"850 1137 OFFCURVE",
"559 1156 OFFCURVE",
"370 952 CURVE",
"480 1536 LINE",
"299 1536 LINE",
"32 0 LINE",
"213 0 LINE",
"347 774 LINE",
"415 870 OFFCURVE",
"509 950 OFFCURVE",
"633 947 CURVE SMOOTH"
);
}
);
width = 1094;
}
);
note = h;
rightKerningGroup = h;
unicode = 0068;
},
{
glyphname = i;
lastChange = "2017-05-28 19:46:51 +0000";
layers = (
{
hints = (
{
horizontal = 1;
origin = "{0, 0}";
type = Anchor;
},
{
horizontal = 1;
origin = "{0, 1}";
type = Anchor;
},
{
horizontal = 1;
origin = "{0, 2}";
type = Anchor;
},
{
horizontal = 1;
origin = "{0, 3}";
type = Anchor;
},
{
horizontal = 1;
origin = "{0, 4}";
type = Anchor;
},
{
horizontal = 1;
origin = "{0, 5}";
type = Anchor;
},
{
horizontal = 1;
origin = "{0, 6}";
type = Anchor;
},
{
horizontal = 1;
origin = "{0, 7}";
type = Anchor;
},
{
horizontal = 1;
origin = "{0, 8}";
type = Anchor;
},
{
horizontal = 1;
origin = "{0, 9}";
type = Anchor;
},
{
horizontal = 1;
origin = "{0, 10}";
type = Anchor;
},
{
horizontal = 1;
origin = "{0, 11}";
type = Anchor;
},
{
horizontal = 1;
origin = "{1, 0}";
type = Anchor;
},
{
horizontal = 1;
origin = "{1, 1}";
type = Anchor;
},
{
horizontal = 1;
origin = "{1, 2}";
type = Anchor;
},
{
horizontal = 1;
origin = "{1, 3}";
type = Anchor;
}
);
layerId = "2831174B-BB35-4064-B049-1570B14F4C27";
paths = (
{
closed = 1;
nodes = (
"270 1305 OFFCURVE",
"315 1263 OFFCURVE",
"376 1264 CURVE SMOOTH",
"437 1265 OFFCURVE",
"483 1311 OFFCURVE",
"483 1372 CURVE SMOOTH",
"484 1433 OFFCURVE",
"439 1478 OFFCURVE",
"376 1477 CURVE SMOOTH",
"313 1476 OFFCURVE",
"270 1429 OFFCURVE",
"270 1366 CURVE SMOOTH"
);
},
{
closed = 1;
nodes = (
"46 0 LINE",
"227 0 LINE",
"415 1082 LINE",
"234 1082 LINE"
);
}
);
width = 483;
}
);
note = i;
unicode = 0069;
},
{
glyphname = j;
lastChange = "2017-05-28 19:46:55 +0000";
layers = (
{
hints = (
{
horizontal = 1;
origin = "{0, 0}";
type = Anchor;
},
{
horizontal = 1;
origin = "{0, 1}";
type = Anchor;
},
{
horizontal = 1;
origin = "{0, 2}";
type = Anchor;
},
{
horizontal = 1;
origin = "{0, 3}";
type = Anchor;
},
{
horizontal = 1;
origin = "{0, 4}";
type = Anchor;
},
{
horizontal = 1;
origin = "{0, 5}";
type = Anchor;
},
{
horizontal = 1;
origin = "{0, 6}";
type = Anchor;
},
{
horizontal = 1;
origin = "{0, 7}";
type = Anchor;
},
{
horizontal = 1;
origin = "{0, 8}";
type = Anchor;
},
{
horizontal = 1;
origin = "{0, 9}";
type = Anchor;
},
{
horizontal = 1;
origin = "{0, 10}";
type = Anchor;
},
{
horizontal = 1;
origin = "{0, 11}";
type = Anchor;
},
{
horizontal = 1;
origin = "{1, 0}";
type = Anchor;
},
{
horizontal = 1;
origin = "{1, 1}";
type = Anchor;
},
{
horizontal = 1;
origin = "{1, 2}";
type = Anchor;
},
{
horizontal = 1;
origin = "{1, 3}";
type = Anchor;
},
{
horizontal = 1;
origin = "{1, 4}";
type = Anchor;
},
{
horizontal = 1;
origin = "{1, 5}";
type = Anchor;
},
{
horizontal = 1;
origin = "{1, 6}";
type = Anchor;
},
{
horizontal = 1;
origin = "{1, 7}";
type = Anchor;
},
{
horizontal = 1;
origin = "{1, 8}";
type = Anchor;
},
{
horizontal = 1;
origin = "{1, 9}";
type = Anchor;
},
{
horizontal = 1;
origin = "{1, 10}";
type = Anchor;
},
{
horizontal = 1;
origin = "{1, 11}";
type = Anchor;
},
{
horizontal = 1;
origin = "{1, 12}";
type = Anchor;
},
{
horizontal = 1;
origin = "{1, 13}";
type = Anchor;
},
{
horizontal = 1;
origin = "{1, 14}";
type = Anchor;
},
{
horizontal = 1;
origin = "{1, 15}";
type = Anchor;
}
);
layerId = "2831174B-BB35-4064-B049-1570B14F4C27";
paths = (
{
closed = 1;
nodes = (
"256 1305 OFFCURVE",
"302 1263 OFFCURVE",
"363 1264 CURVE SMOOTH",
"424 1265 OFFCURVE",
"469 1309 OFFCURVE",
"470 1372 CURVE SMOOTH",
"470 1433 OFFCURVE",
"426 1478 OFFCURVE",
"363 1477 CURVE SMOOTH",
"300 1476 OFFCURVE",
"257 1429 OFFCURVE",
"257 1366 CURVE SMOOTH"
);
},
{
closed = 1;
nodes = (
"1 -232 OFFCURVE",
"-51 -284 OFFCURVE",
"-136 -284 CURVE SMOOTH",
"-159 -284 OFFCURVE",
"-187 -280 OFFCURVE",
"-220 -272 CURVE",
"-237 -421 LINE",
"-194 -432 OFFCURVE",
"-154 -439 OFFCURVE",
"-116 -440 CURVE SMOOTH",
"80 -444 OFFCURVE",
"179 -310 OFFCURVE",
"202 -129 CURVE",
"407 1082 LINE",
"225 1082 LINE",
"18 -129 LINE SMOOTH"
);
}
);
width = 475;
}
);
note = j;
unicode = 006A;
},
{
glyphname = k;
lastChange = "2017-05-28 19:46:57 +0000";
layers = (
{
hints = (
{
horizontal = 1;
origin = "{0, 0}";
type = Anchor;
},
{
horizontal = 1;
origin = "{0, 1}";
type = Anchor;
},
{
horizontal = 1;
origin = "{0, 2}";
type = Anchor;
},
{
horizontal = 1;
origin = "{0, 3}";
type = Anchor;
},
{
horizontal = 1;
origin = "{0, 4}";
type = Anchor;
},
{
horizontal = 1;
origin = "{0, 5}";
type = Anchor;
},
{
horizontal = 1;
origin = "{0, 6}";
type = Anchor;
},
{
horizontal = 1;
origin = "{0, 7}";
type = Anchor;
},
{
horizontal = 1;
origin = "{0, 8}";
type = Anchor;
},
{
horizontal = 1;
origin = "{0, 9}";
type = Anchor;
},
{
horizontal = 1;
origin = "{0, 10}";
type = Anchor;
},
{
horizontal = 1;
origin = "{0, 11}";
type = Anchor;
},
{
horizontal = 1;
origin = "{0, 12}";
type = Anchor;
}
);
layerId = "2831174B-BB35-4064-B049-1570B14F4C27";
paths = (
{
closed = 1;
nodes = (
"553 622 LINE",
"1050 1081 LINE",
"815 1082 LINE",
"430 729 LINE",
"321 619 LINE",
"481 1536 LINE",
"299 1536 LINE",
"32 0 LINE",
"214 0 LINE",
"279 373 LINE",
"421 500 LINE",
"697 0 LINE",
"896 0 LINE"
);
}
);
width = 1007;
}
);
note = k;
unicode = 006B;
},
{
glyphname = l;
lastChange = "2017-05-28 19:47:00 +0000";
layers = (
{
hints = (
{
horizontal = 1;
origin = "{0, 0}";
type = Anchor;
},
{
horizontal = 1;
origin = "{0, 1}";
type = Anchor;
},
{
horizontal = 1;
origin = "{0, 2}";
type = Anchor;
},
{
horizontal = 1;
origin = "{0, 3}";
type = Anchor;
}
);
layerId = "2831174B-BB35-4064-B049-1570B14F4C27";
paths = (
{
closed = 1;
nodes = (
"46 0 LINE",
"227 0 LINE",
"494 1536 LINE",
"312 1536 LINE"
);
}
);
width = 483;
}
);
note = l;
unicode = 006C;
},
{
glyphname = m;
lastChange = "2017-05-28 19:47:02 +0000";
layers = (
{
hints = (
{
horizontal = 1;
origin = "{0, 0}";
type = Anchor;
},
{
horizontal = 1;
origin = "{0, 1}";
type = Anchor;
},
{
horizontal = 1;
origin = "{0, 2}";
type = Anchor;
},
{
horizontal = 1;
origin = "{0, 3}";
type = Anchor;
},
{
horizontal = 1;
origin = "{0, 4}";
type = Anchor;
},
{
horizontal = 1;
origin = "{0, 5}";
type = Anchor;
},
{
horizontal = 1;
origin = "{0, 6}";
type = Anchor;
},
{
horizontal = 1;
origin = "{0, 7}";
type = Anchor;
},
{
horizontal = 1;
origin = "{0, 8}";
type = Anchor;
},
{
horizontal = 1;
origin = "{0, 9}";
type = Anchor;
},
{
horizontal = 1;
origin = "{0, 10}";
type = Anchor;
},
{
horizontal = 1;
origin = "{0, 11}";
type = Anchor;
},
{
horizontal = 1;
origin = "{0, 12}";
type = Anchor;
},
{
horizontal = 1;
origin = "{0, 13}";
type = Anchor;
},
{
horizontal = 1;
origin = "{0, 14}";
type = Anchor;
},
{
horizontal = 1;
origin = "{0, 15}";
type = Anchor;
},
{
horizontal = 1;
origin = "{0, 16}";
type = Anchor;
},
{
horizontal = 1;
origin = "{0, 17}";
type = Anchor;
},
{
horizontal = 1;
origin = "{0, 18}";
type = Anchor;
},
{
horizontal = 1;
origin = "{0, 19}";
type = Anchor;
},
{
horizontal = 1;
origin = "{0, 20}";
type = Anchor;
},
{
horizontal = 1;
origin = "{0, 21}";
type = Anchor;
},
{
horizontal = 1;
origin = "{0, 22}";
type = Anchor;
},
{
horizontal = 1;
origin = "{0, 23}";
type = Anchor;
},
{
horizontal = 1;
origin = "{0, 24}";
type = Anchor;
},
{
horizontal = 1;
origin = "{0, 25}";
type = Anchor;
},
{
horizontal = 1;
origin = "{0, 26}";
type = Anchor;
},
{
horizontal = 1;
origin = "{0, 27}";
type = Anchor;
},
{
horizontal = 1;
origin = "{0, 28}";
type = Anchor;
},
{
horizontal = 1;
origin = "{0, 29}";
type = Anchor;
},
{
horizontal = 1;
origin = "{0, 30}";
type = Anchor;
},
{
horizontal = 1;
origin = "{0, 31}";
type = Anchor;
},
{
horizontal = 1;
origin = "{0, 32}";
type = Anchor;
},
{
horizontal = 1;
origin = "{0, 33}";
type = Anchor;
},
{
horizontal = 1;
origin = "{0, 34}";
type = Anchor;
}
);
layerId = "2831174B-BB35-4064-B049-1570B14F4C27";
paths = (
{
closed = 1;
nodes = (
"762 943 OFFCURVE",
"811 846 OFFCURVE",
"796 713 CURVE",
"676 0 LINE",
"857 0 LINE",
"980 719 LINE",
"1009 852 OFFCURVE",
"1126 951 OFFCURVE",
"1263 948 CURVE SMOOTH",
"1412 945 OFFCURVE",
"1457 853 OFFCURVE",
"1442 714 CURVE",
"1322 0 LINE",
"1504 0 LINE",
"1623 711 LINE",
"1634 820 OFFCURVE",
"1617 912 OFFCURVE",
"1571 987 CURVE SMOOTH",
"1478 1137 OFFCURVE",
"1175 1165 OFFCURVE",
"968 929 CURVE",
"928 1049 OFFCURVE",
"814 1099 OFFCURVE",
"693 1102 CURVE SMOOTH",
"566 1105 OFFCURVE",
"457 1059 OFFCURVE",
"366 964 CURVE",
"389 1083 LINE",
"218 1082 LINE",
"30 0 LINE",
"212 0 LINE",
"349 794 LINE",
"417 899 OFFCURVE",
"507 950 OFFCURVE",
"618 946 CURVE SMOOTH"
);
}
);
width = 1742;
}
);
leftKerningGroup = m;
note = m;
rightKerningGroup = h;
unicode = 006D;
},
{
glyphname = n;
lastChange = "2017-05-28 19:47:04 +0000";
layers = (
{
hints = (
{
horizontal = 1;
origin = "{0, 0}";
type = Anchor;
},
{
horizontal = 1;
origin = "{0, 1}";
type = Anchor;
},
{
horizontal = 1;
origin = "{0, 2}";
type = Anchor;
},
{
horizontal = 1;
origin = "{0, 3}";
type = Anchor;
},
{
horizontal = 1;
origin = "{0, 4}";
type = Anchor;
},
{
horizontal = 1;
origin = "{0, 5}";
type = Anchor;
},
{
horizontal = 1;
origin = "{0, 6}";
type = Anchor;
},
{
horizontal = 1;
origin = "{0, 7}";
type = Anchor;
},
{
horizontal = 1;
origin = "{0, 8}";
type = Anchor;
},
{
horizontal = 1;
origin = "{0, 9}";
type = Anchor;
},
{
horizontal = 1;
origin = "{0, 10}";
type = Anchor;
},
{
horizontal = 1;
origin = "{0, 11}";
type = Anchor;
},
{
horizontal = 1;
origin = "{0, 12}";
type = Anchor;
},
{
horizontal = 1;
origin = "{0, 13}";
type = Anchor;
},
{
horizontal = 1;
origin = "{0, 14}";
type = Anchor;
},
{
horizontal = 1;
origin = "{0, 15}";
type = Anchor;
},
{
horizontal = 1;
origin = "{0, 16}";
type = Anchor;
},
{
horizontal = 1;
origin = "{0, 17}";
type = Anchor;
},
{
horizontal = 1;
origin = "{0, 18}";
type = Anchor;
},
{
horizontal = 1;
origin = "{0, 19}";
type = Anchor;
}
);
layerId = "2831174B-BB35-4064-B049-1570B14F4C27";
paths = (
{
closed = 1;
nodes = (
"777 943 OFFCURVE",
"812 841 OFFCURVE",
"797 712 CURVE",
"677 0 LINE",
"859 0 LINE",
"977 709 LINE",
"988 814 OFFCURVE",
"973 905 OFFCURVE",
"932 983 CURVE SMOOTH",
"850 1138 OFFCURVE",
"554 1156 OFFCURVE",
"365 947 CURVE",
"391 1083 LINE",
"220 1082 LINE",
"32 0 LINE",
"213 0 LINE",
"347 774 LINE",
"415 870 OFFCURVE",
"509 950 OFFCURVE",
"633 947 CURVE SMOOTH"
);
}
);
width = 1097;
}
);
leftKerningGroup = m;
note = n;
rightKerningGroup = h;
unicode = 006E;
},
{
glyphname = o;
lastChange = "2017-05-28 19:47:06 +0000";
layers = (
{
hints = (
{
horizontal = 1;
origin = "{0, 0}";
type = Anchor;
},
{
horizontal = 1;
origin = "{0, 1}";
type = Anchor;
},
{
horizontal = 1;
origin = "{0, 2}";
type = Anchor;
},
{
horizontal = 1;
origin = "{0, 3}";
type = Anchor;
},
{
horizontal = 1;
origin = "{0, 4}";
type = Anchor;
},
{
horizontal = 1;
origin = "{0, 5}";
type = Anchor;
},
{
horizontal = 1;
origin = "{0, 6}";
type = Anchor;
},
{
horizontal = 1;
origin = "{0, 7}";
type = Anchor;
},
{
horizontal = 1;
origin = "{0, 8}";
type = Anchor;
},
{
horizontal = 1;
origin = "{0, 9}";
type = Anchor;
},
{
horizontal = 1;
origin = "{0, 10}";
type = Anchor;
},
{
horizontal = 1;
origin = "{0, 11}";
type = Anchor;
},
{
horizontal = 1;
origin = "{0, 12}";
type = Anchor;
},
{
horizontal = 1;
origin = "{0, 13}";
type = Anchor;
},
{
horizontal = 1;
origin = "{0, 14}";
type = Anchor;
},
{
horizontal = 1;
origin = "{0, 15}";
type = Anchor;
},
{
horizontal = 1;
origin = "{0, 16}";
type = Anchor;
},
{
horizontal = 1;
origin = "{0, 17}";
type = Anchor;
},
{
horizontal = 1;
origin = "{0, 18}";
type = Anchor;
},
{
horizontal = 1;
origin = "{0, 19}";
type = Anchor;
},
{
horizontal = 1;
origin = "{1, 0}";
type = Anchor;
},
{
horizontal = 1;
origin = "{1, 1}";
type = Anchor;
},
{
horizontal = 1;
origin = "{1, 2}";
type = Anchor;
},
{
horizontal = 1;
origin = "{1, 3}";
type = Anchor;
},
{
horizontal = 1;
origin = "{1, 4}";
type = Anchor;
},
{
horizontal = 1;
origin = "{1, 5}";
type = Anchor;
},
{
horizontal = 1;
origin = "{1, 6}";
type = Anchor;
},
{
horizontal = 1;
origin = "{1, 7}";
type = Anchor;
},
{
horizontal = 1;
origin = "{1, 8}";
type = Anchor;
},
{
horizontal = 1;
origin = "{1, 9}";
type = Anchor;
},
{
horizontal = 1;
origin = "{1, 10}";
type = Anchor;
},
{
horizontal = 1;
origin = "{1, 11}";
type = Anchor;
},
{
horizontal = 1;
origin = "{1, 12}";
type = Anchor;
},
{
horizontal = 1;
origin = "{1, 13}";
type = Anchor;
},
{
horizontal = 1;
origin = "{1, 14}";
type = Anchor;
},
{
horizontal = 1;
origin = "{1, 15}";
type = Anchor;
},
{
horizontal = 1;
origin = "{1, 16}";
type = Anchor;
},
{
horizontal = 1;
origin = "{1, 17}";
type = Anchor;
},
{
horizontal = 1;
origin = "{1, 18}";
type = Anchor;
},
{
horizontal = 1;
origin = "{1, 19}";
type = Anchor;
}
);
layerId = "2831174B-BB35-4064-B049-1570B14F4C27";
paths = (
{
closed = 1;
nodes = (
"62 342 OFFCURVE",
"115 166 OFFCURVE",
"241 62 CURVE SMOOTH",
"367 -43 OFFCURVE",
"604 -50 OFFCURVE",
"760 54 CURVE SMOOTH",
"916 157 OFFCURVE",
"1012 336 OFFCURVE",
"1035 531 CURVE SMOOTH",
"1037 554 LINE SMOOTH",
"1054 737 OFFCURVE",
"1002 914 OFFCURVE",
"876 1020 CURVE SMOOTH",
"750 1126 OFFCURVE",
"511 1132 OFFCURVE",
"356 1028 CURVE SMOOTH",
"200 924 OFFCURVE",
"105 745 OFFCURVE",
"82 546 CURVE SMOOTH",
"79 523 LINE"
);
},
{
closed = 1;
nodes = (
"278 673 OFFCURVE",
"335 809 OFFCURVE",
"436 892 CURVE SMOOTH",
"536 975 OFFCURVE",
"708 968 OFFCURVE",
"780 884 CURVE SMOOTH",
"851 799 OFFCURVE",
"867 667 OFFCURVE",
"855 554 CURVE SMOOTH",
"853 531 LINE",
"836 404 OFFCURVE",
"779 269 OFFCURVE",
"679 189 CURVE SMOOTH",
"578 108 OFFCURVE",
"407 113 OFFCURVE",
"336 196 CURVE SMOOTH",
"264 279 OFFCURVE",
"248 409 OFFCURVE",
"260 522 CURVE SMOOTH",
"262 546 LINE"
);
}
);
width = 1133;
}
);
leftKerningGroup = o;
note = o;
rightKerningGroup = o;
unicode = 006F;
},
{
glyphname = p;
lastChange = "2017-05-28 19:47:09 +0000";
layers = (
{
hints = (
{
horizontal = 1;
origin = "{0, 0}";
type = Anchor;
},
{
horizontal = 1;
origin = "{0, 1}";
type = Anchor;
},
{
horizontal = 1;
origin = "{0, 2}";
type = Anchor;
},
{
horizontal = 1;
origin = "{0, 3}";
type = Anchor;
},
{
horizontal = 1;
origin = "{0, 4}";
type = Anchor;
},
{
horizontal = 1;
origin = "{0, 5}";
type = Anchor;
},
{
horizontal = 1;
origin = "{0, 6}";
type = Anchor;
},
{
horizontal = 1;
origin = "{0, 7}";
type = Anchor;
},
{
horizontal = 1;
origin = "{0, 8}";
type = Anchor;
},
{
horizontal = 1;
origin = "{0, 9}";
type = Anchor;
},
{
horizontal = 1;
origin = "{0, 10}";
type = Anchor;
},
{
horizontal = 1;
origin = "{0, 11}";
type = Anchor;
},
{
horizontal = 1;
origin = "{0, 12}";
type = Anchor;
},
{
horizontal = 1;
origin = "{0, 13}";
type = Anchor;
},
{
horizontal = 1;
origin = "{0, 14}";
type = Anchor;
},
{
horizontal = 1;
origin = "{0, 15}";
type = Anchor;
},
{
horizontal = 1;
origin = "{0, 16}";
type = Anchor;
},
{
horizontal = 1;
origin = "{0, 17}";
type = Anchor;
},
{
horizontal = 1;
origin = "{0, 18}";
type = Anchor;
},
{
horizontal = 1;
origin = "{0, 19}";
type = Anchor;
},
{
horizontal = 1;
origin = "{1, 0}";
type = Anchor;
},
{
horizontal = 1;
origin = "{1, 1}";
type = Anchor;
},
{
horizontal = 1;
origin = "{1, 2}";
type = Anchor;
},
{
horizontal = 1;
origin = "{1, 3}";
type = Anchor;
},
{
horizontal = 1;
origin = "{1, 4}";
type = Anchor;
},
{
horizontal = 1;
origin = "{1, 5}";
type = Anchor;
},
{
horizontal = 1;
origin = "{1, 6}";
type = Anchor;
},
{
horizontal = 1;
origin = "{1, 7}";
type = Anchor;
},
{
horizontal = 1;
origin = "{1, 8}";
type = Anchor;
},
{
horizontal = 1;
origin = "{1, 9}";
type = Anchor;
},
{
horizontal = 1;
origin = "{1, 10}";
type = Anchor;
},
{
horizontal = 1;
origin = "{1, 11}";
type = Anchor;
},
{
horizontal = 1;
origin = "{1, 12}";
type = Anchor;
},
{
horizontal = 1;
origin = "{1, 13}";
type = Anchor;
},
{
horizontal = 1;
origin = "{1, 14}";
type = Anchor;
},
{
horizontal = 1;
origin = "{1, 15}";
type = Anchor;
},
{
horizontal = 1;
origin = "{1, 16}";
type = Anchor;
}
);
layerId = "2831174B-BB35-4064-B049-1570B14F4C27";
paths = (
{
closed = 1;
nodes = (
"620 -23 OFFCURVE",
"701 1 OFFCURVE",
"767 50 CURVE SMOOTH",
"900 149 OFFCURVE",
"983 317 OFFCURVE",
"1015 553 CURVE SMOOTH",
"1032 714 OFFCURVE",
"1009 896 OFFCURVE",
"909 1012 CURVE SMOOTH",
"808 1127 OFFCURVE",
"542 1154 OFFCURVE",
"365 963 CURVE",
"384 1083 LINE",
"219 1082 LINE",
"-41 -416 LINE",
"141 -416 LINE",
"238 106 LINE",
"306 24 OFFCURVE",
"402 -18 OFFCURVE",
"525 -21 CURVE SMOOTH"
);
},
{
closed = 1;
nodes = (
"692 945 OFFCURVE",
"743 922 OFFCURVE",
"775 879 CURVE SMOOTH",
"838 792 OFFCURVE",
"845 659 OFFCURVE",
"832 552 CURVE SMOOTH",
"830 532 LINE SMOOTH",
"813 405 OFFCURVE",
"760 270 OFFCURVE",
"663 189 CURVE SMOOTH",
"566 108 OFFCURVE",
"344 89 OFFCURVE",
"261 278 CURVE",
"352 798 LINE",
"428 900 OFFCURVE",
"518 950 OFFCURVE",
"623 947 CURVE SMOOTH"
);
}
);
width = 1116;
}
);
leftKerningGroup = m;
note = p;
rightKerningGroup = b;
unicode = 0070;
},
{
glyphname = q;
lastChange = "2017-05-28 19:47:11 +0000";
layers = (
{
hints = (
{
horizontal = 1;
origin = "{0, 0}";
type = Anchor;
},
{
horizontal = 1;
origin = "{0, 1}";
type = Anchor;
},
{
horizontal = 1;
origin = "{0, 2}";
type = Anchor;
},
{
horizontal = 1;
origin = "{0, 3}";
type = Anchor;
},
{
horizontal = 1;
origin = "{0, 4}";
type = Anchor;
},
{
horizontal = 1;
origin = "{0, 5}";
type = Anchor;
},
{
horizontal = 1;
origin = "{0, 6}";
type = Anchor;
},
{
horizontal = 1;
origin = "{0, 7}";
type = Anchor;
},
{
horizontal = 1;
origin = "{0, 8}";
type = Anchor;
},
{
horizontal = 1;
origin = "{0, 9}";
type = Anchor;
},
{
horizontal = 1;
origin = "{0, 10}";
type = Anchor;
},
{
horizontal = 1;
origin = "{0, 11}";
type = Anchor;
},
{
horizontal = 1;
origin = "{0, 12}";
type = Anchor;
},
{
horizontal = 1;
origin = "{0, 13}";
type = Anchor;
},
{
horizontal = 1;
origin = "{0, 14}";
type = Anchor;
},
{
horizontal = 1;
origin = "{0, 15}";
type = Anchor;
},
{
horizontal = 1;
origin = "{0, 16}";
type = Anchor;
},
{
horizontal = 1;
origin = "{0, 17}";
type = Anchor;
},
{
horizontal = 1;
origin = "{0, 18}";
type = Anchor;
},
{
horizontal = 1;
origin = "{0, 19}";
type = Anchor;
},
{
horizontal = 1;
origin = "{1, 0}";
type = Anchor;
},
{
horizontal = 1;
origin = "{1, 1}";
type = Anchor;
},
{
horizontal = 1;
origin = "{1, 2}";
type = Anchor;
},
{
horizontal = 1;
origin = "{1, 3}";
type = Anchor;
},
{
horizontal = 1;
origin = "{1, 4}";
type = Anchor;
},
{
horizontal = 1;
origin = "{1, 5}";
type = Anchor;
},
{
horizontal = 1;
origin = "{1, 6}";
type = Anchor;
},
{
horizontal = 1;
origin = "{1, 7}";
type = Anchor;
},
{
horizontal = 1;
origin = "{1, 8}";
type = Anchor;
},
{
horizontal = 1;
origin = "{1, 9}";
type = Anchor;
},
{
horizontal = 1;
origin = "{1, 10}";
type = Anchor;
},
{
horizontal = 1;
origin = "{1, 11}";
type = Anchor;
},
{
horizontal = 1;
origin = "{1, 12}";
type = Anchor;
},
{
horizontal = 1;
origin = "{1, 13}";
type = Anchor;
},
{
horizontal = 1;
origin = "{1, 14}";
type = Anchor;
},
{
horizontal = 1;
origin = "{1, 15}";
type = Anchor;
}
);
layerId = "2831174B-BB35-4064-B049-1570B14F4C27";
paths = (
{
closed = 1;
nodes = (
"861 972 LINE",
"794 1057 OFFCURVE",
"700 1101 OFFCURVE",
"580 1102 CURVE SMOOTH",
"482 1105 OFFCURVE",
"399 1081 OFFCURVE",
"330 1030 CURVE SMOOTH",
"195 931 OFFCURVE",
"111 763 OFFCURVE",
"79 526 CURVE SMOOTH",
"63 367 OFFCURVE",
"90 186 OFFCURVE",
"194 71 CURVE SMOOTH",
"297 -45 OFFCURVE",
"546 -64 OFFCURVE",
"718 100 CURVE",
"620 -416 LINE",
"801 -416 LINE",
"1061 1082 LINE",
"894 1082 LINE"
);
},
{
closed = 1;
nodes = (
"285 688 OFFCURVE",
"338 815 OFFCURVE",
"435 895 CURVE SMOOTH",
"532 975 OFFCURVE",
"746 993 OFFCURVE",
"833 810 CURVE",
"739 276 LINE",
"661 177 OFFCURVE",
"571 129 OFFCURVE",
"469 132 CURVE SMOOTH",
"400 134 OFFCURVE",
"350 157 OFFCURVE",
"319 201 CURVE SMOOTH",
"256 288 OFFCURVE",
"250 422 OFFCURVE",
"262 527 CURVE SMOOTH"
);
}
);
width = 1129;
}
);
leftKerningGroup = c;
note = q;
unicode = 0071;
},
{
glyphname = r;
lastChange = "2017-05-28 19:47:13 +0000";
layers = (
{
hints = (
{
horizontal = 1;
origin = "{0, 0}";
type = Anchor;
},
{
horizontal = 1;
origin = "{0, 1}";
type = Anchor;
},
{
horizontal = 1;
origin = "{0, 2}";
type = Anchor;
},
{
horizontal = 1;
origin = "{0, 3}";
type = Anchor;
},
{
horizontal = 1;
origin = "{0, 4}";
type = Anchor;
},
{
horizontal = 1;
origin = "{0, 5}";
type = Anchor;
},
{
horizontal = 1;
origin = "{0, 6}";
type = Anchor;
},
{
horizontal = 1;
origin = "{0, 7}";
type = Anchor;
},
{
horizontal = 1;
origin = "{0, 8}";
type = Anchor;
},
{
horizontal = 1;
origin = "{0, 9}";
type = Anchor;
},
{
horizontal = 1;
origin = "{0, 10}";
type = Anchor;
},
{
horizontal = 1;
origin = "{0, 11}";
type = Anchor;
},
{
horizontal = 1;
origin = "{0, 12}";
type = Anchor;
},
{
horizontal = 1;
origin = "{0, 13}";
type = Anchor;
},
{
horizontal = 1;
origin = "{0, 14}";
type = Anchor;
},
{
horizontal = 1;
origin = "{0, 15}";
type = Anchor;
},
{
horizontal = 1;
origin = "{0, 16}";
type = Anchor;
},
{
horizontal = 1;
origin = "{0, 17}";
type = Anchor;
}
);
layerId = "2831174B-BB35-4064-B049-1570B14F4C27";
paths = (
{
closed = 1;
nodes = (
"645 926 OFFCURVE",
"673 923 OFFCURVE",
"704 917 CURVE",
"721 1091 LINE",
"688 1100 OFFCURVE",
"659 1104 OFFCURVE",
"636 1105 CURVE SMOOTH",
"531 1106 OFFCURVE",
"442 1057 OFFCURVE",
"369 958 CURVE",
"395 1083 LINE",
"220 1082 LINE",
"32 0 LINE",
"213 0 LINE",
"346 769 LINE",
"414 876 OFFCURVE",
"505 928 OFFCURVE",
"620 927 CURVE SMOOTH"
);
}
);
width = 673;
}
);
note = r;
rightKerningGroup = r;
unicode = 0072;
},
{
glyphname = s;
lastChange = "2017-05-28 19:47:15 +0000";
layers = (
{
hints = (
{
horizontal = 1;
origin = "{0, 0}";
type = Anchor;
},
{
horizontal = 1;
origin = "{0, 1}";
type = Anchor;
},
{
horizontal = 1;
origin = "{0, 2}";
type = Anchor;
},
{
horizontal = 1;
origin = "{0, 3}";
type = Anchor;
},
{
horizontal = 1;
origin = "{0, 4}";
type = Anchor;
},
{
horizontal = 1;
origin = "{0, 5}";
type = Anchor;
},
{
horizontal = 1;
origin = "{0, 6}";
type = Anchor;
},
{
horizontal = 1;
origin = "{0, 7}";
type = Anchor;
},
{
horizontal = 1;
origin = "{0, 8}";
type = Anchor;
},
{
horizontal = 1;
origin = "{0, 9}";
type = Anchor;
},
{
horizontal = 1;
origin = "{0, 10}";
type = Anchor;
},
{
horizontal = 1;
origin = "{0, 11}";
type = Anchor;
},
{
horizontal = 1;
origin = "{0, 12}";
type = Anchor;
},
{
horizontal = 1;
origin = "{0, 13}";
type = Anchor;
},
{
horizontal = 1;
origin = "{0, 14}";
type = Anchor;
},
{
horizontal = 1;
origin = "{0, 15}";
type = Anchor;
},
{
horizontal = 1;
origin = "{0, 16}";
type = Anchor;
},
{
horizontal = 1;
origin = "{0, 17}";
type = Anchor;
},
{
horizontal = 1;
origin = "{0, 18}";
type = Anchor;
},
{
horizontal = 1;
origin = "{0, 19}";
type = Anchor;
},
{
horizontal = 1;
origin = "{0, 20}";
type = Anchor;
},
{
horizontal = 1;
origin = "{0, 21}";
type = Anchor;
},
{
horizontal = 1;
origin = "{0, 22}";
type = Anchor;
},
{
horizontal = 1;
origin = "{0, 23}";
type = Anchor;
},
{
horizontal = 1;
origin = "{0, 24}";
type = Anchor;
},
{
horizontal = 1;
origin = "{0, 25}";
type = Anchor;
},
{
horizontal = 1;
origin = "{0, 26}";
type = Anchor;
},
{
horizontal = 1;
origin = "{0, 27}";
type = Anchor;
},
{
horizontal = 1;
origin = "{0, 28}";
type = Anchor;
},
{
horizontal = 1;
origin = "{0, 29}";
type = Anchor;
},
{
horizontal = 1;
origin = "{0, 30}";
type = Anchor;
},
{
horizontal = 1;
origin = "{0, 31}";
type = Anchor;
},
{
horizontal = 1;
origin = "{0, 32}";
type = Anchor;
},
{
horizontal = 1;
origin = "{0, 33}";
type = Anchor;
},
{
horizontal = 1;
origin = "{0, 34}";
type = Anchor;
},
{
horizontal = 1;
origin = "{0, 35}";
type = Anchor;
},
{
horizontal = 1;
origin = "{0, 36}";
type = Anchor;
},
{
horizontal = 1;
origin = "{0, 37}";
type = Anchor;
},
{
horizontal = 1;
origin = "{0, 38}";
type = Anchor;
},
{
horizontal = 1;
origin = "{0, 39}";
type = Anchor;
},
{
horizontal = 1;
origin = "{0, 40}";
type = Anchor;
},
{
horizontal = 1;
origin = "{0, 41}";
type = Anchor;
},
{
horizontal = 1;
origin = "{0, 42}";
type = Anchor;
},
{
horizontal = 1;
origin = "{0, 43}";
type = Anchor;
},
{
horizontal = 1;
origin = "{0, 44}";
type = Anchor;
}
);
layerId = "2831174B-BB35-4064-B049-1570B14F4C27";
paths = (
{
closed = 1;
nodes = (
"683 173 OFFCURVE",
"553 132 OFFCURVE",
"446 133 CURVE SMOOTH",
"319 134 OFFCURVE",
"230 203 OFFCURVE",
"230 334 CURVE",
"49 335 LINE",
"42 108 OFFCURVE",
"229 -16 OFFCURVE",
"440 -20 CURVE SMOOTH",
"576 -23 OFFCURVE",
"718 24 OFFCURVE",
"807 121 CURVE SMOOTH",
"896 218 OFFCURVE",
"900 382 OFFCURVE",
"841 463 CURVE SMOOTH",
"781 543 OFFCURVE",
"671 589 OFFCURVE",
"528 628 CURVE SMOOTH",
"451 650 LINE SMOOTH",
"382 671 OFFCURVE",
"329 708 OFFCURVE",
"338 784 CURVE SMOOTH",
"354 900 OFFCURVE",
"468 950 OFFCURVE",
"573 949 CURVE SMOOTH",
"684 948 OFFCURVE",
"768 877 OFFCURVE",
"765 764 CURVE",
"944 763 LINE",
"951 978 OFFCURVE",
"783 1098 OFFCURVE",
"580 1102 CURVE SMOOTH",
"452 1105 OFFCURVE",
"315 1055 OFFCURVE",
"228 959 CURVE SMOOTH",
"141 862 OFFCURVE",
"136 700 OFFCURVE",
"206 620 CURVE SMOOTH",
"276 540 OFFCURVE",
"392 500 OFFCURVE",
"494 475 CURVE SMOOTH",
"596 450 OFFCURVE",
"717 416 OFFCURVE",
"700 293 CURVE SMOOTH"
);
}
);
width = 1025;
}
);
leftKerningGroup = s;
note = s;
unicode = 0073;
},
{
glyphname = t;
lastChange = "2017-05-28 19:47:17 +0000";
layers = (
{
hints = (
{
horizontal = 1;
origin = "{0, 0}";
type = Anchor;
},
{
horizontal = 1;
origin = "{0, 1}";
type = Anchor;
},
{
horizontal = 1;
origin = "{0, 2}";
type = Anchor;
},
{
horizontal = 1;
origin = "{0, 3}";
type = Anchor;
},
{
horizontal = 1;
origin = "{0, 4}";
type = Anchor;
},
{
horizontal = 1;
origin = "{0, 5}";
type = Anchor;
},
{
horizontal = 1;
origin = "{0, 6}";
type = Anchor;
},
{
horizontal = 1;
origin = "{0, 7}";
type = Anchor;
},
{
horizontal = 1;
origin = "{0, 8}";
type = Anchor;
},
{
horizontal = 1;
origin = "{0, 9}";
type = Anchor;
},
{
horizontal = 1;
origin = "{0, 10}";
type = Anchor;
},
{
horizontal = 1;
origin = "{0, 11}";
type = Anchor;
},
{
horizontal = 1;
origin = "{0, 12}";
type = Anchor;
},
{
horizontal = 1;
origin = "{0, 13}";
type = Anchor;
},
{
horizontal = 1;
origin = "{0, 14}";
type = Anchor;
},
{
horizontal = 1;
origin = "{0, 15}";
type = Anchor;
},
{
horizontal = 1;
origin = "{0, 16}";
type = Anchor;
},
{
horizontal = 1;
origin = "{0, 17}";
type = Anchor;
},
{
horizontal = 1;
origin = "{0, 18}";
type = Anchor;
},
{
horizontal = 1;
origin = "{0, 19}";
type = Anchor;
},
{
horizontal = 1;
origin = "{0, 20}";
type = Anchor;
},
{
horizontal = 1;
origin = "{0, 21}";
type = Anchor;
},
{
horizontal = 1;
origin = "{0, 22}";
type = Anchor;
},
{
horizontal = 1;
origin = "{0, 23}";
type = Anchor;
}
);
layerId = "2831174B-BB35-4064-B049-1570B14F4C27";
paths = (
{
closed = 1;
nodes = (
"449 144 OFFCURVE",
"420 141 OFFCURVE",
"411 141 CURVE SMOOTH",
"334 142 OFFCURVE",
"319 197 OFFCURVE",
"327 266 CURVE",
"440 940 LINE",
"636 940 LINE",
"661 1082 LINE",
"464 1082 LINE",
"511 1345 LINE",
"330 1345 LINE",
"284 1082 LINE",
"92 1082 LINE",
"67 940 LINE",
"259 940 LINE",
"149 269 LINE",
"142 196 OFFCURVE",
"154 130 OFFCURVE",
"184 71 CURVE SMOOTH",
"243 -46 OFFCURVE",
"413 -25 OFFCURVE",
"485 0 CURVE",
"498 151 LINE"
);
}
);
width = 650;
}
);
note = t;
unicode = 0074;
},
{
glyphname = u;
lastChange = "2017-05-28 19:47:19 +0000";
layers = (
{
hints = (
{
horizontal = 1;
origin = "{0, 0}";
type = Anchor;
},
{
horizontal = 1;
origin = "{0, 1}";
type = Anchor;
},
{
horizontal = 1;
origin = "{0, 2}";
type = Anchor;
},
{
horizontal = 1;
origin = "{0, 3}";
type = Anchor;
},
{
horizontal = 1;
origin = "{0, 4}";
type = Anchor;
},
{
horizontal = 1;
origin = "{0, 5}";
type = Anchor;
},
{
horizontal = 1;
origin = "{0, 6}";
type = Anchor;
},
{
horizontal = 1;
origin = "{0, 7}";
type = Anchor;
},
{
horizontal = 1;
origin = "{0, 8}";
type = Anchor;
},
{
horizontal = 1;
origin = "{0, 9}";
type = Anchor;
},
{
horizontal = 1;
origin = "{0, 10}";
type = Anchor;
},
{
horizontal = 1;
origin = "{0, 11}";
type = Anchor;
},
{
horizontal = 1;
origin = "{0, 12}";
type = Anchor;
},
{
horizontal = 1;
origin = "{0, 13}";
type = Anchor;
},
{
horizontal = 1;
origin = "{0, 14}";
type = Anchor;
},
{
horizontal = 1;
origin = "{0, 15}";
type = Anchor;
},
{
horizontal = 1;
origin = "{0, 16}";
type = Anchor;
},
{
horizontal = 1;
origin = "{0, 17}";
type = Anchor;
},
{
horizontal = 1;
origin = "{0, 18}";
type = Anchor;
},
{
horizontal = 1;
origin = "{0, 19}";
type = Anchor;
}
);
layerId = "2831174B-BB35-4064-B049-1570B14F4C27";
paths = (
{
closed = 1;
nodes = (
"1043 1082 LINE",
"861 1082 LINE",
"724 293 LINE",
"653 184 OFFCURVE",
"553 132 OFFCURVE",
"425 137 CURVE SMOOTH",
"288 142 OFFCURVE",
"267 266 OFFCURVE",
"279 381 CURVE",
"396 1082 LINE",
"215 1082 LINE",
"99 384 LINE",
"88 279 OFFCURVE",
"104 186 OFFCURVE",
"146 105 CURVE SMOOTH",
"229 -58 OFFCURVE",
"539 -69 OFFCURVE",
"706 108 CURVE",
"683 0 LINE",
"855 0 LINE"
);
}
);
width = 1095;
}
);
leftKerningGroup = u;
note = u;
unicode = 0075;
},
{
glyphname = v;
lastChange = "2017-05-28 19:47:21 +0000";
layers = (
{
hints = (
{
horizontal = 1;
origin = "{0, 0}";
type = Anchor;
},
{
horizontal = 1;
origin = "{0, 1}";
type = Anchor;
},
{
horizontal = 1;
origin = "{0, 2}";
type = Anchor;
},
{
horizontal = 1;
origin = "{0, 3}";
type = Anchor;
},
{
horizontal = 1;
origin = "{0, 4}";
type = Anchor;
},
{
horizontal = 1;
origin = "{0, 5}";
type = Anchor;
},
{
horizontal = 1;
origin = "{0, 6}";
type = Anchor;
}
);
layerId = "2831174B-BB35-4064-B049-1570B14F4C27";
paths = (
{
closed = 1;
nodes = (
"425 255 LINE",
"289 1082 LINE",
"110 1082 LINE",
"322 0 LINE",
"459 0 LINE",
"1006 1082 LINE",
"815 1082 LINE"
);
}
);
width = 962;
}
);
leftKerningGroup = v;
note = v;
rightKerningGroup = v;
unicode = 0076;
},
{
glyphname = w;
lastChange = "2017-05-28 19:47:23 +0000";
layers = (
{
hints = (
{
horizontal = 1;
origin = "{0, 0}";
type = Anchor;
},
{
horizontal = 1;
origin = "{0, 1}";
type = Anchor;
},
{
horizontal = 1;
origin = "{0, 2}";
type = Anchor;
},
{
horizontal = 1;
origin = "{0, 3}";
type = Anchor;
},
{
horizontal = 1;
origin = "{0, 4}";
type = Anchor;
},
{
horizontal = 1;
origin = "{0, 5}";
type = Anchor;
},
{
horizontal = 1;
origin = "{0, 6}";
type = Anchor;
},
{
horizontal = 1;
origin = "{0, 7}";
type = Anchor;
},
{
horizontal = 1;
origin = "{0, 8}";
type = Anchor;
},
{
horizontal = 1;
origin = "{0, 9}";
type = Anchor;
},
{
horizontal = 1;
origin = "{0, 10}";
type = Anchor;
},
{
horizontal = 1;
origin = "{0, 11}";
type = Anchor;
},
{
horizontal = 1;
origin = "{0, 12}";
type = Anchor;
}
);
layerId = "2831174B-BB35-4064-B049-1570B14F4C27";
paths = (
{
closed = 1;
nodes = (
"1003 259 LINE",
"898 1082 LINE",
"752 1082 LINE",
"368 277 LINE",
"303 1082 LINE",
"128 1082 LINE",
"245 0 LINE",
"393 0 LINE",
"783 817 LINE",
"895 0 LINE",
"1042 0 LINE",
"1534 1082 LINE",
"1348 1082 LINE"
);
}
);
width = 1493;
}
);
note = w;
unicode = 0077;
},
{
glyphname = x;
lastChange = "2017-05-28 19:47:26 +0000";
layers = (
{
hints = (
{
horizontal = 1;
origin = "{0, 0}";
type = Anchor;
},
{
horizontal = 1;
origin = "{0, 1}";
type = Anchor;
},
{
horizontal = 1;
origin = "{0, 2}";
type = Anchor;
},
{
horizontal = 1;
origin = "{0, 3}";
type = Anchor;
},
{
horizontal = 1;
origin = "{0, 4}";
type = Anchor;
},
{
horizontal = 1;
origin = "{0, 5}";
type = Anchor;
},
{
horizontal = 1;
origin = "{0, 6}";
type = Anchor;
},
{
horizontal = 1;
origin = "{0, 7}";
type = Anchor;
},
{
horizontal = 1;
origin = "{0, 8}";
type = Anchor;
},
{
horizontal = 1;
origin = "{0, 9}";
type = Anchor;
},
{
horizontal = 1;
origin = "{0, 10}";
type = Anchor;
},
{
horizontal = 1;
origin = "{0, 11}";
type = Anchor;
}
);
layerId = "2831174B-BB35-4064-B049-1570B14F4C27";
paths = (
{
closed = 1;
nodes = (
"386 557 LINE",
"-60 0 LINE",
"161 0 LINE",
"466 405 LINE",
"645 0 LINE",
"842 0 LINE",
"578 539 LINE",
"1012 1082 LINE",
"789 1082 LINE",
"495 689 LINE",
"328 1082 LINE",
"131 1082 LINE"
);
}
);
width = 986;
}
);
leftKerningGroup = x;
note = x;
rightKerningGroup = x;
unicode = 0078;
},
{
glyphname = y;
lastChange = "2017-05-28 19:47:28 +0000";
layers = (
{
hints = (
{
horizontal = 1;
origin = "{0, 0}";
type = Anchor;
},
{
horizontal = 1;
origin = "{0, 1}";
type = Anchor;
},
{
horizontal = 1;
origin = "{0, 2}";
type = Anchor;
},
{
horizontal = 1;
origin = "{0, 3}";
type = Anchor;
},
{
horizontal = 1;
origin = "{0, 4}";
type = Anchor;
},
{
horizontal = 1;
origin = "{0, 5}";
type = Anchor;
},
{
horizontal = 1;
origin = "{0, 6}";
type = Anchor;
},
{
horizontal = 1;
origin = "{0, 7}";
type = Anchor;
},
{
horizontal = 1;
origin = "{0, 8}";
type = Anchor;
},
{
horizontal = 1;
origin = "{0, 9}";
type = Anchor;
},
{
horizontal = 1;
origin = "{0, 10}";
type = Anchor;
},
{
horizontal = 1;
origin = "{0, 11}";
type = Anchor;
},
{
horizontal = 1;
origin = "{0, 12}";
type = Anchor;
},
{
horizontal = 1;
origin = "{0, 13}";
type = Anchor;
},
{
horizontal = 1;
origin = "{0, 14}";
type = Anchor;
},
{
horizontal = 1;
origin = "{0, 15}";
type = Anchor;
},
{
horizontal = 1;
origin = "{0, 16}";
type = Anchor;
},
{
horizontal = 1;
origin = "{0, 17}";
type = Anchor;
}
);
layerId = "2831174B-BB35-4064-B049-1570B14F4C27";
paths = (
{
closed = 1;
nodes = (
"803 1082 LINE",
"419 274 LINE",
"297 1082 LINE",
"108 1082 LINE",
"296 23 LINE",
"232 -103 LINE SMOOTH",
"175 -216 OFFCURVE",
"102 -284 OFFCURVE",
"-29 -277 CURVE",
"-76 -272 LINE",
"-87 -424 LINE",
"-42 -434 OFFCURVE",
"-6 -440 OFFCURVE",
"21 -441 CURVE SMOOTH",
"192 -442 OFFCURVE",
"300 -309 OFFCURVE",
"368 -168 CURVE SMOOTH",
"1003 1082 LINE"
);
}
);
width = 940;
}
);
leftKerningGroup = v;
note = y;
rightKerningGroup = v;
unicode = 0079;
},
{
glyphname = z;
lastChange = "2017-05-28 19:47:30 +0000";
layers = (
{
hints = (
{
horizontal = 1;
origin = "{0, 0}";
type = Anchor;
},
{
horizontal = 1;
origin = "{0, 1}";
type = Anchor;
},
{
horizontal = 1;
origin = "{0, 2}";
type = Anchor;
},
{
horizontal = 1;
origin = "{0, 3}";
type = Anchor;
},
{
horizontal = 1;
origin = "{0, 4}";
type = Anchor;
},
{
horizontal = 1;
origin = "{0, 5}";
type = Anchor;
},
{
horizontal = 1;
origin = "{0, 6}";
type = Anchor;
},
{
horizontal = 1;
origin = "{0, 7}";
type = Anchor;
},
{
horizontal = 1;
origin = "{0, 8}";
type = Anchor;
},
{
horizontal = 1;
origin = "{0, 9}";
type = Anchor;
}
);
layerId = "2831174B-BB35-4064-B049-1570B14F4C27";
paths = (
{
closed = 1;
nodes = (
"6 145 LINE",
"-19 0 LINE",
"814 0 LINE",
"841 152 LINE",
"236 152 LINE",
"950 942 LINE",
"974 1082 LINE",
"177 1082 LINE",
"149 929 LINE",
"714 929 LINE"
);
}
);
width = 986;
}
);
leftKerningGroup = z;
note = z;
rightKerningGroup = z;
unicode = 007A;
},
{
glyphname = braceleft;
lastChange = "2017-05-19 14:51:26 +0000";
layers = (
{
layerId = "2831174B-BB35-4064-B049-1570B14F4C27";
paths = (
{
closed = 1;
nodes = (
"167 -121 OFFCURVE",
"260 -293 OFFCURVE",
"473 -364 CURVE",
"519 -251 LINE",
"370 -192 OFFCURVE",
"354 -46 OFFCURVE",
"373 98 CURVE SMOOTH",
"400 305 LINE SMOOTH",
"412 421 OFFCURVE",
"385 539 OFFCURVE",
"288 611 CURVE",
"412 677 OFFCURVE",
"484 782 OFFCURVE",
"503 925 CURVE SMOOTH",
"530 1125 LINE SMOOTH",
"553 1290 OFFCURVE",
"626 1430 OFFCURVE",
"790 1483 CURVE",
"762 1599 LINE",
"521 1529 OFFCURVE",
"384 1376 OFFCURVE",
"349 1140 CURVE SMOOTH",
"322 938 LINE SMOOTH",
"300 775 OFFCURVE",
"217 691 OFFCURVE",
"72 686 CURVE",
"56 542 LINE",
"197 531 OFFCURVE",
"234 438 OFFCURVE",
"219 306 CURVE SMOOTH",
"191 99 LINE SMOOTH"
);
}
);
width = 672;
}
);
note = braceleft;
unicode = 007B;
},
{
glyphname = bar;
lastChange = "2017-05-19 14:51:26 +0000";
layers = (
{
layerId = "2831174B-BB35-4064-B049-1570B14F4C27";
paths = (
{
closed = 1;
nodes = (
"34 -270 LINE",
"180 -270 LINE",
"450 1456 LINE",
"304 1456 LINE"
);
}
);
width = 485;
}
);
note = bar;
unicode = 007C;
},
{
glyphname = braceright;
lastChange = "2017-05-19 14:51:26 +0000";
layers = (
{
layerId = "2831174B-BB35-4064-B049-1570B14F4C27";
paths = (
{
closed = 1;
nodes = (
"509 1352 OFFCURVE",
"416 1524 OFFCURVE",
"203 1595 CURVE",
"157 1483 LINE",
"306 1424 OFFCURVE",
"322 1277 OFFCURVE",
"303 1133 CURVE SMOOTH",
"276 925 LINE SMOOTH",
"264 805 OFFCURVE",
"294 685 OFFCURVE",
"402 620 CURVE",
"269 557 OFFCURVE",
"192 452 OFFCURVE",
"173 305 CURVE SMOOTH",
"146 106 LINE SMOOTH",
"123 -59 OFFCURVE",
"49 -198 OFFCURVE",
"-115 -251 CURVE",
"-87 -368 LINE",
"152 -299 OFFCURVE",
"290 -148 OFFCURVE",
"325 85 CURVE SMOOTH",
"353 291 LINE SMOOTH",
"375 455 OFFCURVE",
"459 540 OFFCURVE",
"604 545 CURVE",
"619 690 LINE",
"479 699 OFFCURVE",
"442 792 OFFCURVE",
"457 924 CURVE SMOOTH",
"484 1132 LINE SMOOTH"
);
}
);
width = 672;
}
);
note = braceright;
unicode = 007D;
},
{
glyphname = asciitilde;
lastChange = "2017-05-19 14:51:26 +0000";
layers = (
{
layerId = "2831174B-BB35-4064-B049-1570B14F4C27";
paths = (
{
closed = 1;
nodes = (
"1084 672 OFFCURVE",
"1025 562 OFFCURVE",
"904 563 CURVE SMOOTH",
"848 564 OFFCURVE",
"815 582 OFFCURVE",
"735 662 CURVE SMOOTH",
"655 741 OFFCURVE",
"569 803 OFFCURVE",
"457 804 CURVE SMOOTH",
"248 809 OFFCURVE",
"125 625 OFFCURVE",
"105 436 CURVE",
"261 439 LINE",
"278 542 OFFCURVE",
"330 644 OFFCURVE",
"449 641 CURVE SMOOTH",
"505 640 OFFCURVE",
"541 620 OFFCURVE",
"618 543 CURVE SMOOTH",
"695 466 OFFCURVE",
"784 404 OFFCURVE",
"896 401 CURVE SMOOTH",
"1107 398 OFFCURVE",
"1228 590 OFFCURVE",
"1245 779 CURVE",
"1103 776 LINE"
);
}
);
width = 1351;
}
);
note = asciitilde;
unicode = 007E;
},
{
glyphname = exclamdown;
lastChange = "2017-05-19 14:51:26 +0000";
layers = (
{
layerId = "2831174B-BB35-4064-B049-1570B14F4C27";
paths = (
{
closed = 1;
nodes = (
"416 1060 OFFCURVE",
"371 1103 OFFCURVE",
"310 1102 CURVE SMOOTH",
"247 1101 OFFCURVE",
"203 1056 OFFCURVE",
"202 993 CURVE SMOOTH",
"202 932 OFFCURVE",
"248 888 OFFCURVE",
"309 889 CURVE SMOOTH",
"372 890 OFFCURVE",
"415 936 OFFCURVE",
"415 999 CURVE SMOOTH"
);
},
{
closed = 1;
nodes = (
"342 684 LINE",
"179 684 LINE",
"-16 -361 LINE",
"175 -361 LINE"
);
}
);
width = 485;
}
);
note = exclamdown;
unicode = 00A1;
},
{
glyphname = cent;
lastChange = "2017-05-19 14:51:26 +0000";
layers = (
{
layerId = "2831174B-BB35-4064-B049-1570B14F4C27";
paths = (
{
closed = 1;
nodes = (
"750 278 OFFCURVE",
"715 226 OFFCURVE",
"664 187 CURVE SMOOTH",
"560 108 OFFCURVE",
"397 114 OFFCURVE",
"331 196 CURVE SMOOTH",
"265 278 OFFCURVE",
"256 406 OFFCURVE",
"269 518 CURVE SMOOTH",
"273 552 LINE SMOOTH",
"281 617 OFFCURVE",
"299 681 OFFCURVE",
"327 743 CURVE SMOOTH",
"382 867 OFFCURVE",
"481 955 OFFCURVE",
"629 950 CURVE SMOOTH",
"768 946 OFFCURVE",
"837 838 OFFCURVE",
"837 709 CURVE",
"1008 709 LINE",
"1009 894 OFFCURVE",
"917 1050 OFFCURVE",
"730 1093 CURVE",
"775 1318 LINE",
"593 1318 LINE",
"549 1093 LINE",
"278 1044 OFFCURVE",
"127 823 OFFCURVE",
"94 560 CURVE SMOOTH",
"90 517 LINE SMOOTH",
"82 444 OFFCURVE",
"85 371 OFFCURVE",
"99 298 CURVE SMOOTH",
"126 152 OFFCURVE",
"208 32 OFFCURVE",
"368 -9 CURVE",
"321 -245 LINE",
"503 -245 LINE",
"549 -13 LINE",
"737 22 OFFCURVE",
"907 143 OFFCURVE",
"938 342 CURVE",
"767 341 LINE"
);
}
);
width = 1087;
}
);
note = cent;
unicode = 00A2;
},
{
glyphname = sterling;
lastChange = "2017-05-19 14:51:26 +0000";
layers = (
{
layerId = "2831174B-BB35-4064-B049-1570B14F4C27";
paths = (
{
closed = 1;
nodes = (
"1019 157 LINE",
"304 154 LINE",
"361 222 OFFCURVE",
"397 305 OFFCURVE",
"411 403 CURVE SMOOTH",
"440 623 LINE",
"745 623 LINE",
"773 780 LINE",
"462 780 LINE",
"496 1041 LINE SMOOTH",
"516 1185 OFFCURVE",
"615 1325 OFFCURVE",
"776 1321 CURVE SMOOTH",
"916 1316 OFFCURVE",
"975 1219 OFFCURVE",
"966 1087 CURVE",
"1154 1086 LINE",
"1166 1314 OFFCURVE",
"1033 1471 OFFCURVE",
"801 1476 CURVE SMOOTH",
"537 1483 OFFCURVE",
"339 1296 OFFCURVE",
"308 1039 CURVE SMOOTH",
"276 780 LINE",
"119 780 LINE",
"92 623 LINE",
"254 623 LINE",
"226 415 LINE SMOOTH",
"213 312 OFFCURVE",
"179 190 OFFCURVE",
"86 154 CURVE",
"10 156 LINE",
"-7 0 LINE",
"991 0 LINE"
);
}
);
width = 1155;
}
);
note = sterling;
unicode = 00A3;
},
{
glyphname = currency;
lastChange = "2017-05-19 14:51:26 +0000";
layers = (
{
layerId = "2831174B-BB35-4064-B049-1570B14F4C27";
paths = (
{
closed = 1;
nodes = (
"1310 467 OFFCURVE",
"1336 736 OFFCURVE",
"1248 973 CURVE",
"1421 1119 LINE",
"1310 1265 LINE",
"1136 1113 LINE",
"953 1272 OFFCURVE",
"686 1276 OFFCURVE",
"450 1116 CURVE",
"336 1264 LINE",
"194 1137 LINE",
"311 981 LINE",
"116 758 OFFCURVE",
"94 487 OFFCURVE",
"177 252 CURVE",
"18 119 LINE",
"128 -26 LINE",
"285 110 LINE",
"468 -59 OFFCURVE",
"749 -69 OFFCURVE",
"996 110 CURVE",
"1101 -27 LINE",
"1245 101 LINE",
"1131 252 LINE"
);
},
{
closed = 1;
nodes = (
"326 759 OFFCURVE",
"424 912 OFFCURVE",
"565 1000 CURVE SMOOTH",
"706 1088 OFFCURVE",
"890 1081 OFFCURVE",
"994 993 CURVE SMOOTH",
"1097 904 OFFCURVE",
"1142 760 OFFCURVE",
"1123 617 CURVE SMOOTH",
"1102 457 OFFCURVE",
"1005 303 OFFCURVE",
"864 215 CURVE SMOOTH",
"723 126 OFFCURVE",
"538 133 OFFCURVE",
"435 222 CURVE SMOOTH",
"331 311 OFFCURVE",
"286 456 OFFCURVE",
"305 599 CURVE SMOOTH"
);
}
);
width = 1417;
}
);
note = currency;
unicode = 00A4;
},
{
glyphname = yen;
lastChange = "2017-05-19 14:51:26 +0000";
layers = (
{
layerId = "2831174B-BB35-4064-B049-1570B14F4C27";
paths = (
{
closed = 1;
nodes = (
"583 446 LINE",
"617 609 LINE",
"622 615 LINE",
"928 612 LINE",
"950 737 LINE",
"702 737 LINE",
"1182 1456 LINE",
"964 1456 LINE",
"550 794 LINE",
"368 1456 LINE",
"167 1456 LINE",
"398 737 LINE",
"139 737 LINE",
"117 612 LINE",
"426 612 LINE",
"396 446 LINE",
"89 446 LINE",
"67 322 LINE",
"376 322 LINE",
"319 0 LINE",
"507 0 LINE",
"563 322 LINE",
"878 322 LINE",
"900 446 LINE"
);
}
);
width = 1044;
}
);
note = yen;
unicode = 00A5;
},
{
glyphname = brokenbar;
lastChange = "2017-05-19 14:51:26 +0000";
layers = (
{
layerId = "2831174B-BB35-4064-B049-1570B14F4C27";
paths = (
{
closed = 1;
nodes = (
"160 698 LINE",
"341 698 LINE",
"473 1456 LINE",
"292 1456 LINE"
);
},
{
closed = 1;
nodes = (
"130 522 LINE",
"-8 -270 LINE",
"173 -270 LINE",
"311 522 LINE"
);
}
);
width = 477;
}
);
note = brokenbar;
unicode = 00A6;
},
{
glyphname = section;
lastChange = "2017-05-19 14:51:26 +0000";
layers = (
{
layerId = "2831174B-BB35-4064-B049-1570B14F4C27";
paths = (
{
closed = 1;
nodes = (
"952 -10 OFFCURVE",
"923 82 OFFCURVE",
"854 153 CURVE",
"995 217 OFFCURVE",
"1071 312 OFFCURVE",
"1082 439 CURVE SMOOTH",
"1089 524 OFFCURVE",
"1074 592 OFFCURVE",
"1037 645 CURVE SMOOTH",
"963 750 OFFCURVE",
"829 810 OFFCURVE",
"682 857 CURVE SMOOTH",
"645 869 OFFCURVE",
"602 884 OFFCURVE",
"555 901 CURVE SMOOTH",
"460 936 OFFCURVE",
"391 993 OFFCURVE",
"407 1106 CURVE SMOOTH",
"430 1267 OFFCURVE",
"596 1328 OFFCURVE",
"741 1325 CURVE SMOOTH",
"908 1321 OFFCURVE",
"1000 1209 OFFCURVE",
"988 1046 CURVE",
"1168 1046 LINE",
"1185 1318 OFFCURVE",
"1016 1473 OFFCURVE",
"749 1477 CURVE SMOOTH",
"590 1480 OFFCURVE",
"424 1431 OFFCURVE",
"317 1320 CURVE SMOOTH",
"209 1208 OFFCURVE",
"176 973 OFFCURVE",
"311 830 CURVE",
"250 801 OFFCURVE",
"198 764 OFFCURVE",
"157 718 CURVE SMOOTH",
"73 625 OFFCURVE",
"57 442 OFFCURVE",
"130 338 CURVE SMOOTH",
"203 233 OFFCURVE",
"334 173 OFFCURVE",
"482 124 CURVE SMOOTH",
"517 112 OFFCURVE",
"559 97 OFFCURVE",
"607 79 CURVE SMOOTH",
"702 43 OFFCURVE",
"776 -16 OFFCURVE",
"760 -124 CURVE SMOOTH",
"737 -283 OFFCURVE",
"570 -346 OFFCURVE",
"427 -343 CURVE SMOOTH",
"254 -340 OFFCURVE",
"140 -241 OFFCURVE",
"153 -62 CURVE",
"-33 -64 LINE",
"-40 -205 OFFCURVE",
"1 -312 OFFCURVE",
"88 -384 CURVE SMOOTH",
"263 -528 OFFCURVE",
"502 -509 OFFCURVE",
"657 -459 CURVE SMOOTH",
"812 -409 OFFCURVE",
"929 -301 OFFCURVE",
"942 -121 CURVE SMOOTH"
);
},
{
closed = 1;
nodes = (
"421 335 LINE SMOOTH",
"321 371 OFFCURVE",
"252 430 OFFCURVE",
"268 545 CURVE SMOOTH",
"283 646 OFFCURVE",
"346 712 OFFCURVE",
"458 745 CURVE",
"497 728 OFFCURVE",
"548 710 OFFCURVE",
"612 691 CURVE",
"737 646 LINE SMOOTH",
"841 606 OFFCURVE",
"915 544 OFFCURVE",
"899 436 CURVE SMOOTH",
"884 340 OFFCURVE",
"819 274 OFFCURVE",
"704 237 CURVE",
"652 257 LINE"
);
}
);
width = 1218;
}
);
note = section;
unicode = 00A7;
},
{
glyphname = dieresis;
lastChange = "2017-05-19 14:51:26 +0000";
layers = (
{
layerId = "2831174B-BB35-4064-B049-1570B14F4C27";
paths = (
{
closed = 1;
nodes = (
"217 1308 OFFCURVE",
"263 1265 OFFCURVE",
"323 1266 CURVE SMOOTH",
"384 1267 OFFCURVE",
"430 1312 OFFCURVE",
"431 1373 CURVE SMOOTH",
"431 1436 OFFCURVE",
"387 1480 OFFCURVE",
"324 1479 CURVE SMOOTH",
"261 1478 OFFCURVE",
"218 1430 OFFCURVE",
"217 1369 CURVE SMOOTH"
);
},
{
closed = 1;
nodes = (
"635 1304 OFFCURVE",
"680 1263 OFFCURVE",
"741 1264 CURVE SMOOTH",
"802 1265 OFFCURVE",
"848 1310 OFFCURVE",
"848 1371 CURVE SMOOTH",
"849 1434 OFFCURVE",
"804 1478 OFFCURVE",
"741 1477 CURVE SMOOTH",
"678 1476 OFFCURVE",
"635 1428 OFFCURVE",
"635 1367 CURVE SMOOTH"
);
}
);
width = 831;
}
);
note = dieresis;
unicode = 00A8;
},
{
glyphname = copyright;
lastChange = "2017-05-19 14:51:26 +0000";
layers = (
{
layerId = "2831174B-BB35-4064-B049-1570B14F4C27";
paths = (
{
closed = 1;
nodes = (
"81 475 OFFCURVE",
"171 235 OFFCURVE",
"355 91 CURVE SMOOTH",
"539 -54 OFFCURVE",
"843 -61 OFFCURVE",
"1072 82 CURVE SMOOTH",
"1300 225 OFFCURVE",
"1456 472 OFFCURVE",
"1485 735 CURVE SMOOTH",
"1513 983 OFFCURVE",
"1422 1222 OFFCURVE",
"1238 1366 CURVE SMOOTH",
"1054 1509 OFFCURVE",
"751 1516 OFFCURVE",
"522 1374 CURVE SMOOTH",
"293 1232 OFFCURVE",
"139 987 OFFCURVE",
"108 722 CURVE SMOOTH"
);
},
{
closed = 1;
nodes = (
"250 945 OFFCURVE",
"385 1152 OFFCURVE",
"581 1272 CURVE SMOOTH",
"776 1391 OFFCURVE",
"1032 1384 OFFCURVE",
"1181 1263 CURVE SMOOTH",
"1329 1142 OFFCURVE",
"1398 940 OFFCURVE",
"1371 736 CURVE SMOOTH",
"1342 513 OFFCURVE",
"1209 305 OFFCURVE",
"1014 185 CURVE SMOOTH",
"818 64 OFFCURVE",
"561 71 OFFCURVE",
"412 193 CURVE SMOOTH",
"263 315 OFFCURVE",
"194 517 OFFCURVE",
"221 722 CURVE SMOOTH"
);
},
{
closed = 1;
nodes = (
"920 469 OFFCURVE",
"851 407 OFFCURVE",
"736 412 CURVE SMOOTH",
"596 416 OFFCURVE",
"571 557 OFFCURVE",
"582 670 CURVE SMOOTH",
"595 787 LINE SMOOTH",
"612 916 OFFCURVE",
"683 1049 OFFCURVE",
"830 1046 CURVE SMOOTH",
"951 1045 OFFCURVE",
"992 973 OFFCURVE",
"985 860 CURVE",
"1127 859 LINE",
"1136 1050 OFFCURVE",
"1028 1170 OFFCURVE",
"835 1174 CURVE SMOOTH",
"610 1178 OFFCURVE",
"477 994 OFFCURVE",
"453 786 CURVE SMOOTH",
"441 671 LINE SMOOTH",
"425 475 OFFCURVE",
"517 289 OFFCURVE",
"732 284 CURVE SMOOTH",
"935 277 OFFCURVE",
"1063 399 OFFCURVE",
"1082 598 CURVE",
"942 597 LINE"
);
}
);
width = 1561;
}
);
note = copyright;
unicode = 00A9;
},
{
glyphname = ordfeminine;
lastChange = "2017-05-19 14:51:26 +0000";
layers = (
{
layerId = "2831174B-BB35-4064-B049-1570B14F4C27";
paths = (
{
closed = 1;
nodes = (
"778 736 OFFCURVE",
"776 766 OFFCURVE",
"777 796 CURVE",
"782 867 LINE",
"834 1201 LINE",
"847 1364 OFFCURVE",
"753 1474 OFFCURVE",
"588 1478 CURVE SMOOTH",
"437 1481 OFFCURVE",
"286 1407 OFFCURVE",
"270 1244 CURVE",
"426 1232 LINE",
"446 1307 OFFCURVE",
"508 1339 OFFCURVE",
"584 1336 CURVE SMOOTH",
"664 1333 OFFCURVE",
"685 1275 OFFCURVE",
"674 1204 CURVE SMOOTH",
"664 1149 LINE",
"554 1150 LINE SMOOTH",
"449 1150 OFFCURVE",
"331 1127 OFFCURVE",
"256 1058 CURVE SMOOTH",
"181 989 OFFCURVE",
"172 829 OFFCURVE",
"256 751 CURVE SMOOTH",
"339 673 OFFCURVE",
"500 662 OFFCURVE",
"625 778 CURVE",
"628 704 LINE",
"783 705 LINE"
);
},
{
closed = 1;
nodes = (
"401 827 OFFCURVE",
"349 850 OFFCURVE",
"358 915 CURVE SMOOTH",
"373 1008 OFFCURVE",
"473 1035 OFFCURVE",
"556 1038 CURVE",
"652 1038 LINE",
"625 896 LINE",
"566 850 OFFCURVE",
"510 827 OFFCURVE",
"457 827 CURVE SMOOTH"
);
}
);
width = 889;
}
);
note = ordfeminine;
unicode = 00AA;
},
{
glyphname = guillemotleft;
lastChange = "2017-05-19 14:51:26 +0000";
layers = (
{
layerId = "2831174B-BB35-4064-B049-1570B14F4C27";
paths = (
{
closed = 1;
nodes = (
"261 539 LINE",
"589 946 LINE",
"436 946 LINE",
"89 558 LINE",
"88 537 LINE",
"316 150 LINE",
"437 150 LINE"
);
},
{
closed = 1;
nodes = (
"582 539 LINE",
"910 946 LINE",
"757 946 LINE",
"410 558 LINE",
"409 537 LINE",
"637 150 LINE",
"758 150 LINE"
);
}
);
width = 942;
}
);
note = guillemotleft;
unicode = 00AB;
},
{
glyphname = logicalnot;
lastChange = "2017-05-19 14:51:26 +0000";
layers = (
{
layerId = "2831174B-BB35-4064-B049-1570B14F4C27";
paths = (
{
closed = 1;
nodes = (
"756 639 LINE",
"710 376 LINE",
"891 376 LINE",
"965 801 LINE",
"158 801 LINE",
"129 639 LINE"
);
}
);
width = 1100;
}
);
note = logicalnot;
unicode = 00AC;
},
{
glyphname = registered;
lastChange = "2017-05-19 14:51:26 +0000";
layers = (
{
layerId = "2831174B-BB35-4064-B049-1570B14F4C27";
paths = (
{
closed = 1;
nodes = (
"80 475 OFFCURVE",
"170 235 OFFCURVE",
"354 91 CURVE SMOOTH",
"538 -54 OFFCURVE",
"842 -61 OFFCURVE",
"1071 82 CURVE SMOOTH",
"1299 225 OFFCURVE",
"1455 472 OFFCURVE",
"1484 735 CURVE SMOOTH",
"1512 983 OFFCURVE",
"1421 1222 OFFCURVE",
"1238 1366 CURVE SMOOTH",
"1054 1509 OFFCURVE",
"750 1516 OFFCURVE",
"522 1374 CURVE SMOOTH",
"293 1232 OFFCURVE",
"137 987 OFFCURVE",
"108 722 CURVE SMOOTH"
);
},
{
closed = 1;
nodes = (
"249 945 OFFCURVE",
"384 1152 OFFCURVE",
"580 1272 CURVE SMOOTH",
"775 1391 OFFCURVE",
"1031 1384 OFFCURVE",
"1180 1263 CURVE SMOOTH",
"1328 1142 OFFCURVE",
"1397 940 OFFCURVE",
"1370 736 CURVE SMOOTH",
"1341 513 OFFCURVE",
"1208 305 OFFCURVE",
"1013 185 CURVE SMOOTH",
"817 64 OFFCURVE",
"560 71 OFFCURVE",
"411 193 CURVE SMOOTH",
"262 315 OFFCURVE",
"193 517 OFFCURVE",
"221 722 CURVE SMOOTH"
);
},
{
closed = 1;
nodes = (
"901 649 OFFCURVE",
"928 602 OFFCURVE",
"919 514 CURVE SMOOTH",
"907 389 LINE SMOOTH",
"905 365 OFFCURVE",
"906 341 OFFCURVE",
"909 316 CURVE",
"1047 316 LINE",
"1049 333 LINE",
"1046 397 LINE SMOOTH",
"1045 420 OFFCURVE",
"1048 459 OFFCURVE",
"1054 516 CURVE SMOOTH",
"1062 615 OFFCURVE",
"1034 682 OFFCURVE",
"970 717 CURVE",
"1051 761 OFFCURVE",
"1116 820 OFFCURVE",
"1123 917 CURVE SMOOTH",
"1134 1090 OFFCURVE",
"995 1160 OFFCURVE",
"842 1164 CURVE SMOOTH",
"584 1165 LINE",
"451 317 LINE",
"589 317 LINE",
"642 655 LINE",
"810 654 LINE"
);
},
{
closed = 1;
nodes = (
"932 1036 OFFCURVE",
"1004 1014 OFFCURVE",
"987 910 CURVE SMOOTH",
"974 822 OFFCURVE",
"884 785 OFFCURVE",
"805 782 CURVE",
"662 783 LINE",
"702 1038 LINE",
"844 1037 LINE SMOOTH"
);
}
);
width = 1562;
}
);
note = registered;
unicode = 00AE;
},
{
glyphname = macron;
lastChange = "2017-05-19 14:51:26 +0000";
layers = (
{
layerId = "2831174B-BB35-4064-B049-1570B14F4C27";
paths = (
{
closed = 1;
nodes = (
"247 1303 LINE",
"899 1303 LINE",
"922 1445 LINE",
"270 1445 LINE"
);
}
);
width = 911;
}
);
note = macron;
unicode = 00AF;
},
{
glyphname = degree;
lastChange = "2017-05-19 14:51:26 +0000";
layers = (
{
layerId = "2831174B-BB35-4064-B049-1570B14F4C27";
paths = (
{
closed = 1;
nodes = (
"230 1079 OFFCURVE",
"325 962 OFFCURVE",
"460 959 CURVE SMOOTH",
"605 956 OFFCURVE",
"720 1085 OFFCURVE",
"725 1226 CURVE SMOOTH",
"729 1354 OFFCURVE",
"637 1475 OFFCURVE",
"504 1478 CURVE SMOOTH",
"357 1481 OFFCURVE",
"239 1349 OFFCURVE",
"235 1208 CURVE SMOOTH"
);
},
{
closed = 1;
nodes = (
"363 1283 OFFCURVE",
"428 1350 OFFCURVE",
"503 1350 CURVE SMOOTH",
"572 1349 OFFCURVE",
"612 1288 OFFCURVE",
"604 1224 CURVE SMOOTH",
"596 1152 OFFCURVE",
"535 1087 OFFCURVE",
"460 1087 CURVE SMOOTH",
"392 1087 OFFCURVE",
"348 1145 OFFCURVE",
"355 1210 CURVE SMOOTH"
);
}
);
width = 742;
}
);
note = degree;
unicode = 00B0;
},
{
glyphname = plusminus;
lastChange = "2017-05-19 14:51:26 +0000";
layers = (
{
layerId = "2831174B-BB35-4064-B049-1570B14F4C27";
paths = (
{
closed = 1;
nodes = (
"670 855 LINE",
"735 1267 LINE",
"572 1267 LINE",
"507 855 LINE",
"133 855 LINE",
"108 703 LINE",
"483 703 LINE",
"418 289 LINE",
"582 289 LINE",
"647 703 LINE",
"998 703 LINE",
"1023 855 LINE"
);
},
{
closed = 1;
nodes = (
"37 1 LINE",
"848 1 LINE",
"872 152 LINE",
"61 152 LINE"
);
}
);
width = 1062;
}
);
note = plusminus;
unicode = 00B1;
},
{
glyphname = twosuperior;
lastChange = "2017-05-19 14:51:26 +0000";
layers = (
{
layerId = "2831174B-BB35-4064-B049-1570B14F4C27";
paths = (
{
closed = 1;
nodes = (
"515 941 LINE SMOOTH",
"608 1014 OFFCURVE",
"731 1111 OFFCURVE",
"738 1240 CURVE SMOOTH",
"746 1392 OFFCURVE",
"623 1468 OFFCURVE",
"484 1469 CURVE SMOOTH",
"321 1470 OFFCURVE",
"187 1373 OFFCURVE",
"170 1206 CURVE",
"325 1207 LINE",
"334 1248 OFFCURVE",
"352 1281 OFFCURVE",
"379 1306 CURVE SMOOTH",
"432 1356 OFFCURVE",
"523 1351 OFFCURVE",
"559 1315 CURVE SMOOTH",
"594 1278 OFFCURVE",
"587 1198 OFFCURVE",
"519 1131 CURVE SMOOTH",
"441 1058 LINE",
"113 783 LINE",
"93 667 LINE",
"674 667 LINE",
"697 795 LINE",
"319 795 LINE"
);
}
);
width = 738;
}
);
note = twosuperior;
unicode = 00B2;
},
{
glyphname = threesuperior;
lastChange = "2017-05-19 14:51:26 +0000";
layers = (
{
layerId = "2831174B-BB35-4064-B049-1570B14F4C27";
paths = (
{
closed = 1;
nodes = (
"493 1009 OFFCURVE",
"559 986 OFFCURVE",
"547 902 CURVE SMOOTH",
"536 822 OFFCURVE",
"459 785 OFFCURVE",
"386 785 CURVE SMOOTH",
"315 786 OFFCURVE",
"262 818 OFFCURVE",
"262 891 CURVE",
"111 891 LINE",
"110 813 OFFCURVE",
"137 755 OFFCURVE",
"190 716 CURVE SMOOTH",
"296 639 OFFCURVE",
"456 635 OFFCURVE",
"592 712 CURVE SMOOTH",
"727 788 OFFCURVE",
"742 1010 OFFCURVE",
"585 1067 CURVE",
"665 1104 OFFCURVE",
"737 1156 OFFCURVE",
"742 1252 CURVE SMOOTH",
"750 1404 OFFCURVE",
"612 1466 OFFCURVE",
"480 1469 CURVE SMOOTH",
"336 1470 OFFCURVE",
"201 1398 OFFCURVE",
"185 1247 CURVE",
"341 1247 LINE",
"361 1310 OFFCURVE",
"408 1341 OFFCURVE",
"483 1341 CURVE SMOOTH",
"544 1340 OFFCURVE",
"597 1310 OFFCURVE",
"588 1242 CURVE SMOOTH",
"576 1159 OFFCURVE",
"493 1129 OFFCURVE",
"420 1126 CURVE",
"348 1126 LINE",
"328 1011 LINE",
"422 1010 LINE SMOOTH"
);
}
);
width = 738;
}
);
note = threesuperior;
unicode = 00B3;
},
{
glyphname = acute;
lastChange = "2017-05-19 14:51:26 +0000";
layers = (
{
layerId = "2831174B-BB35-4064-B049-1570B14F4C27";
paths = (
{
closed = 1;
nodes = (
"678 1536 LINE",
"448 1536 LINE",
"213 1242 LINE",
"372 1242 LINE"
);
}
);
width = 623;
}
);
note = acute;
unicode = 00B4;
},
{
glyphname = mu;
lastChange = "2017-05-19 14:51:26 +0000";
layers = (
{
layerId = "2831174B-BB35-4064-B049-1570B14F4C27";
paths = (
{
closed = 1;
nodes = (
"565 -23 OFFCURVE",
"656 23 OFFCURVE",
"730 115 CURVE",
"710 0 LINE",
"872 0 LINE",
"1060 1082 LINE",
"879 1082 LINE",
"740 283 LINE",
"677 178 OFFCURVE",
"583 127 OFFCURVE",
"460 131 CURVE SMOOTH",
"401 132 OFFCURVE",
"361 151 OFFCURVE",
"339 188 CURVE SMOOTH",
"294 260 OFFCURVE",
"299 371 OFFCURVE",
"310 459 CURVE",
"413 1082 LINE",
"233 1082 LINE",
"-27 -416 LINE",
"152 -416 LINE",
"240 54 LINE",
"293 4 OFFCURVE",
"366 -22 OFFCURVE",
"457 -23 CURVE SMOOTH"
);
}
);
width = 1126;
}
);
note = mu;
unicode = 00B5;
},
{
glyphname = paragraph;
lastChange = "2017-05-19 14:51:26 +0000";
layers = (
{
layerId = "2831174B-BB35-4064-B049-1570B14F4C27";
paths = (
{
closed = 1;
nodes = (
"680 1457 LINE SMOOTH",
"391 1457 OFFCURVE",
"163 1275 OFFCURVE",
"134 980 CURVE SMOOTH",
"106 711 OFFCURVE",
"271 528 OFFCURVE",
"542 521 CURVE SMOOTH",
"614 520 LINE",
"523 0 LINE",
"705 0 LINE",
"957 1456 LINE"
);
}
);
width = 972;
}
);
note = paragraph;
unicode = 00B6;
},
{
glyphname = periodcentered;
lastChange = "2017-05-19 14:51:26 +0000";
layers = (
{
layerId = "2831174B-BB35-4064-B049-1570B14F4C27";
paths = (
{
closed = 1;
nodes = (
"165 662 OFFCURVE",
"212 618 OFFCURVE",
"276 619 CURVE SMOOTH",
"341 620 OFFCURVE",
"388 667 OFFCURVE",
"389 732 CURVE SMOOTH",
"389 797 OFFCURVE",
"343 843 OFFCURVE",
"278 842 CURVE SMOOTH",
"211 841 OFFCURVE",
"167 791 OFFCURVE",
"166 726 CURVE SMOOTH"
);
}
);
width = 519;
}
);
note = periodcentered;
unicode = 00B7;
},
{
glyphname = cedilla;
lastChange = "2017-05-19 14:51:26 +0000";
layers = (
{
layerId = "2831174B-BB35-4064-B049-1570B14F4C27";
paths = (
{
closed = 1;
nodes = (
"48 -141 OFFCURVE",
"142 -143 OFFCURVE",
"130 -222 CURVE SMOOTH",
"115 -309 OFFCURVE",
"20 -325 OFFCURVE",
"-52 -329 CURVE",
"-56 -437 LINE",
"39 -434 OFFCURVE",
"147 -413 OFFCURVE",
"217 -352 CURVE SMOOTH",
"287 -291 OFFCURVE",
"317 -93 OFFCURVE",
"146 -56 CURVE",
"167 0 LINE",
"38 0 LINE",
"-7 -134 LINE"
);
}
);
width = 493;
}
);
note = cedilla;
unicode = 00B8;
},
{
glyphname = onesuperior;
lastChange = "2017-05-19 14:51:26 +0000";
layers = (
{
layerId = "2831174B-BB35-4064-B049-1570B14F4C27";
paths = (
{
closed = 1;
nodes = (
"247 1344 LINE",
"223 1208 LINE",
"443 1264 LINE",
"338 667 LINE",
"491 667 LINE",
"623 1456 LINE",
"601 1456 LINE"
);
}
);
width = 738;
}
);
note = onesuperior;
unicode = 00B9;
},
{
glyphname = ordmasculine;
lastChange = "2017-05-19 14:51:26 +0000";
layers = (
{
layerId = "2831174B-BB35-4064-B049-1570B14F4C27";
paths = (
{
closed = 1;
nodes = (
"183 852 OFFCURVE",
"288 695 OFFCURVE",
"488 690 CURVE SMOOTH",
"699 685 OFFCURVE",
"839 843 OFFCURVE",
"862 1043 CURVE SMOOTH",
"870 1124 LINE SMOOTH",
"886 1313 OFFCURVE",
"782 1473 OFFCURVE",
"582 1478 CURVE SMOOTH",
"371 1483 OFFCURVE",
"228 1323 OFFCURVE",
"205 1123 CURVE SMOOTH",
"198 1043 LINE SMOOTH"
);
},
{
closed = 1;
nodes = (
"382 1236 OFFCURVE",
"450 1341 OFFCURVE",
"574 1337 CURVE SMOOTH",
"693 1334 OFFCURVE",
"721 1225 OFFCURVE",
"712 1125 CURVE SMOOTH",
"703 1043 LINE SMOOTH",
"688 931 OFFCURVE",
"621 825 OFFCURVE",
"497 829 CURVE SMOOTH",
"377 832 OFFCURVE",
"349 940 OFFCURVE",
"358 1041 CURVE SMOOTH",
"367 1124 LINE SMOOTH"
);
}
);
width = 904;
}
);
note = ordmasculine;
unicode = 00BA;
},
{
glyphname = guillemotright;
lastChange = "2017-05-19 14:51:26 +0000";
layers = (
{
layerId = "2831174B-BB35-4064-B049-1570B14F4C27";
paths = (
{
closed = 1;
nodes = (
"343 560 LINE",
"15 153 LINE",
"167 153 LINE",
"514 541 LINE",
"516 562 LINE",
"288 949 LINE",
"166 949 LINE"
);
},
{
closed = 1;
nodes = (
"681 560 LINE",
"353 153 LINE",
"505 153 LINE",
"852 541 LINE",
"854 562 LINE",
"626 949 LINE",
"504 949 LINE"
);
}
);
width = 941;
}
);
note = guillemotright;
unicode = 00BB;
},
{
glyphname = onequarter;
lastChange = "2017-05-19 14:51:26 +0000";
layers = (
{
layerId = "2831174B-BB35-4064-B049-1570B14F4C27";
paths = (
{
closed = 1;
nodes = (
"210 1341 LINE",
"186 1205 LINE",
"406 1261 LINE",
"302 664 LINE",
"455 664 LINE",
"586 1453 LINE",
"565 1453 LINE"
);
},
{
closed = 1;
nodes = (
"257 193 LINE",
"355 121 LINE",
"1236 1249 LINE",
"1138 1321 LINE"
);
},
{
closed = 1;
nodes = (
"1051 170 LINE",
"1021 0 LINE",
"1175 0 LINE",
"1205 170 LINE",
"1309 170 LINE",
"1332 300 LINE",
"1227 300 LINE",
"1312 789 LINE",
"1149 789 LINE",
"701 282 LINE",
"689 170 LINE"
);
},
{
closed = 1;
nodes = (
"1130 589 LINE",
"1073 300 LINE",
"865 300 LINE",
"1110 560 LINE"
);
}
);
width = 1465;
}
);
note = onequarter;
unicode = 00BC;
},
{
glyphname = onehalf;
lastChange = "2017-05-19 14:51:26 +0000";
layers = (
{
layerId = "2831174B-BB35-4064-B049-1570B14F4C27";
paths = (
{
closed = 1;
nodes = (
"214 193 LINE",
"312 121 LINE",
"1193 1249 LINE",
"1095 1321 LINE"
);
},
{
closed = 1;
nodes = (
"205 1341 LINE",
"181 1205 LINE",
"401 1261 LINE",
"297 664 LINE",
"450 664 LINE",
"581 1453 LINE",
"560 1453 LINE"
);
},
{
closed = 1;
nodes = (
"1174 275 LINE SMOOTH",
"1266 346 OFFCURVE",
"1389 444 OFFCURVE",
"1397 573 CURVE SMOOTH",
"1405 725 OFFCURVE",
"1282 801 OFFCURVE",
"1143 802 CURVE SMOOTH",
"979 803 OFFCURVE",
"846 706 OFFCURVE",
"829 539 CURVE",
"984 540 LINE",
"993 581 OFFCURVE",
"1011 614 OFFCURVE",
"1038 639 CURVE SMOOTH",
"1091 689 OFFCURVE",
"1182 684 OFFCURVE",
"1217 648 CURVE SMOOTH",
"1252 611 OFFCURVE",
"1239 545 OFFCURVE",
"1207 498 CURVE",
"1190 475 OFFCURVE",
"1153 438 OFFCURVE",
"1095 387 CURVE SMOOTH",
"772 116 LINE",
"752 0 LINE",
"1333 0 LINE",
"1356 128 LINE",
"978 128 LINE"
);
}
);
width = 1551;
}
);
note = onehalf;
unicode = 00BD;
},
{
glyphname = threequarters;
lastChange = "2017-05-19 14:51:26 +0000";
layers = (
{
layerId = "2831174B-BB35-4064-B049-1570B14F4C27";
paths = (
{
closed = 1;
nodes = (
"379 193 LINE",
"477 121 LINE",
"1358 1249 LINE",
"1260 1321 LINE"
);
},
{
closed = 1;
nodes = (
"1139 170 LINE",
"1109 0 LINE",
"1263 0 LINE",
"1293 170 LINE",
"1397 170 LINE",
"1420 300 LINE",
"1315 300 LINE",
"1400 789 LINE",
"1237 789 LINE",
"789 282 LINE",
"777 170 LINE"
);
},
{
closed = 1;
nodes = (
"1218 589 LINE",
"1161 300 LINE",
"953 300 LINE",
"1198 560 LINE"
);
},
{
closed = 1;
nodes = (
"540 1009 OFFCURVE",
"606 986 OFFCURVE",
"594 902 CURVE SMOOTH",
"583 822 OFFCURVE",
"507 785 OFFCURVE",
"432 785 CURVE SMOOTH",
"363 786 OFFCURVE",
"308 818 OFFCURVE",
"308 891 CURVE",
"158 891 LINE",
"157 813 OFFCURVE",
"184 755 OFFCURVE",
"237 716 CURVE SMOOTH",
"343 639 OFFCURVE",
"503 635 OFFCURVE",
"639 712 CURVE SMOOTH",
"774 788 OFFCURVE",
"789 1010 OFFCURVE",
"632 1067 CURVE",
"711 1104 OFFCURVE",
"784 1156 OFFCURVE",
"789 1252 CURVE SMOOTH",
"797 1404 OFFCURVE",
"659 1466 OFFCURVE",
"526 1469 CURVE SMOOTH",
"383 1470 OFFCURVE",
"247 1398 OFFCURVE",
"231 1247 CURVE",
"387 1247 LINE",
"408 1310 OFFCURVE",
"455 1341 OFFCURVE",
"529 1341 CURVE SMOOTH",
"592 1340 OFFCURVE",
"644 1310 OFFCURVE",
"635 1242 CURVE SMOOTH",
"623 1159 OFFCURVE",
"541 1129 OFFCURVE",
"466 1126 CURVE",
"395 1126 LINE",
"375 1011 LINE",
"469 1010 LINE SMOOTH"
);
}
);
width = 1555;
}
);
note = threequarters;
unicode = 00BE;
},
{
glyphname = questiondown;
lastChange = "2017-05-19 14:51:26 +0000";
layers = (
{
layerId = "2831174B-BB35-4064-B049-1570B14F4C27";
paths = (
{
closed = 1;
nodes = (
"648 1061 OFFCURVE",
"604 1104 OFFCURVE",
"541 1103 CURVE SMOOTH",
"480 1102 OFFCURVE",
"435 1057 OFFCURVE",
"434 994 CURVE SMOOTH",
"434 933 OFFCURVE",
"480 889 OFFCURVE",
"541 890 CURVE SMOOTH",
"604 891 OFFCURVE",
"647 937 OFFCURVE",
"647 1000 CURVE SMOOTH"
);
},
{
closed = 1;
nodes = (
"372 657 OFFCURVE",
"353 617 OFFCURVE",
"342 562 CURVE SMOOTH",
"330 507 OFFCURVE",
"305 463 OFFCURVE",
"267 431 CURVE SMOOTH",
"128 314 OFFCURVE",
"-22 180 OFFCURVE",
"-38 -15 CURVE SMOOTH",
"-58 -243 OFFCURVE",
"86 -382 OFFCURVE",
"309 -387 CURVE SMOOTH",
"537 -391 OFFCURVE",
"724 -249 OFFCURVE",
"751 -20 CURVE",
"571 -21 LINE",
"546 -146 OFFCURVE",
"452 -230 OFFCURVE",
"321 -226 CURVE SMOOTH",
"189 -223 OFFCURVE",
"132 -135 OFFCURVE",
"148 -10 CURVE SMOOTH",
"165 126 OFFCURVE",
"246 188 OFFCURVE",
"371 306 CURVE SMOOTH",
"496 424 OFFCURVE",
"560 520 OFFCURVE",
"577 681 CURVE",
"399 680 LINE"
);
}
);
width = 941;
}
);
note = questiondown;
unicode = 00BF;
},
{
glyphname = AE;
lastChange = "2017-05-19 14:51:26 +0000";
layers = (
{
layerId = "2831174B-BB35-4064-B049-1570B14F4C27";
paths = (
{
closed = 1;
nodes = (
"1133 682 LINE",
"1699 682 LINE",
"1726 834 LINE",
"1152 834 LINE",
"1215 1304 LINE",
"1885 1304 LINE",
"1912 1456 LINE",
"981 1456 LINE",
"-126 0 LINE",
"107 0 LINE",
"367 353 LINE",
"908 353 LINE",
"861 0 LINE",
"1719 0 LINE",
"1746 152 LINE",
"1062 152 LINE"
);
},
{
closed = 1;
nodes = (
"931 528 LINE",
"496 528 LINE",
"1028 1249 LINE"
);
}
);
width = 1857;
}
);
note = AE;
unicode = 00C6;
},
{
glyphname = multiply;
lastChange = "2017-05-19 14:51:26 +0000";
layers = (
{
layerId = "2831174B-BB35-4064-B049-1570B14F4C27";
paths = (
{
closed = 1;
nodes = (
"1026 991 LINE",
"925 1124 LINE",
"548 790 LINE",
"288 1124 LINE",
"159 1009 LINE",
"420 675 LINE",
"40 338 LINE",
"142 206 LINE",
"522 543 LINE",
"786 205 LINE",
"913 321 LINE",
"650 658 LINE"
);
}
);
width = 1060;
}
);
note = multiply;
unicode = 00D7;
},
{
glyphname = Oslash;
lastChange = "2017-05-19 14:51:26 +0000";
layers = (
{
layerId = "2831174B-BB35-4064-B049-1570B14F4C27";
paths = (
{
closed = 1;
nodes = (
"718 -23 OFFCURVE",
"828 7 OFFCURVE",
"920 69 CURVE SMOOTH",
"1104 192 OFFCURVE",
"1219 410 OFFCURVE",
"1262 651 CURVE SMOOTH",
"1311 931 OFFCURVE",
"1293 1107 OFFCURVE",
"1228 1260 CURVE",
"1435 1515 LINE",
"1286 1516 LINE",
"1154 1351 LINE",
"983 1515 OFFCURVE",
"681 1508 OFFCURVE",
"501 1393 CURVE SMOOTH",
"321 1277 OFFCURVE",
"200 1069 OFFCURVE",
"152 825 CURVE SMOOTH",
"89 506 OFFCURVE",
"121 304 OFFCURVE",
"221 141 CURVE",
"31 -92 LINE",
"183 -93 LINE",
"309 63 LINE",
"388 10 OFFCURVE",
"481 -18 OFFCURVE",
"590 -21 CURVE SMOOTH"
);
},
{
closed = 1;
nodes = (
"303 559 OFFCURVE",
"311 645 OFFCURVE",
"326 747 CURVE SMOOTH",
"356 951 OFFCURVE",
"429 1127 OFFCURVE",
"562 1236 CURVE SMOOTH",
"695 1345 OFFCURVE",
"945 1344 OFFCURVE",
"1045 1205 CURVE",
"335 297 LINE",
"313 358 OFFCURVE",
"302 421 OFFCURVE",
"303 488 CURVE SMOOTH"
);
},
{
closed = 1;
nodes = (
"1109 905 OFFCURVE",
"1107 877 OFFCURVE",
"1104 850 CURVE SMOOTH",
"1101 822 OFFCURVE",
"1092 764 OFFCURVE",
"1079 676 CURVE SMOOTH",
"1052 500 OFFCURVE",
"980 321 OFFCURVE",
"849 217 CURVE SMOOTH",
"717 112 OFFCURVE",
"512 123 OFFCURVE",
"412 203 CURVE",
"1102 1090 LINE",
"1110 1038 OFFCURVE",
"1113 986 OFFCURVE",
"1110 933 CURVE SMOOTH"
);
}
);
width = 1367;
}
);
leftKerningGroup = C;
note = Oslash;
unicode = 00D8;
},
{
glyphname = Thorn;
lastChange = "2017-05-19 14:51:26 +0000";
layers = (
{
layerId = "2831174B-BB35-4064-B049-1570B14F4C27";
paths = (
{
closed = 1;
nodes = (
"842 313 OFFCURVE",
"1083 461 OFFCURVE",
"1107 746 CURVE SMOOTH",
"1130 1006 OFFCURVE",
"945 1155 OFFCURVE",
"697 1162 CURVE SMOOTH",
"440 1163 LINE",
"491 1456 LINE",
"310 1456 LINE",
"57 0 LINE",
"238 0 LINE",
"293 314 LINE",
"574 313 LINE SMOOTH"
);
},
{
closed = 1;
nodes = (
"851 1006 OFFCURVE",
"947 904 OFFCURVE",
"927 744 CURVE SMOOTH",
"903 564 OFFCURVE",
"752 465 OFFCURVE",
"577 464 CURVE SMOOTH",
"319 465 LINE",
"414 1012 LINE",
"694 1011 LINE SMOOTH"
);
}
);
width = 1174;
}
);
note = Thorn;
unicode = 00DE;
},
{
glyphname = germandbls;
lastChange = "2017-05-19 14:51:26 +0000";
layers = (
{
layerId = "2831174B-BB35-4064-B049-1570B14F4C27";
paths = (
{
closed = 1;
nodes = (
"411 1186 OFFCURVE",
"436 1254 OFFCURVE",
"476 1317 CURVE SMOOTH",
"555 1442 OFFCURVE",
"735 1422 OFFCURVE",
"783 1346 CURVE SMOOTH",
"831 1270 OFFCURVE",
"814 1155 OFFCURVE",
"756 1075 CURVE SMOOTH",
"698 994 OFFCURVE",
"628 916 OFFCURVE",
"619 812 CURVE SMOOTH",
"611 703 OFFCURVE",
"675 626 OFFCURVE",
"747 555 CURVE SMOOTH",
"783 520 OFFCURVE",
"814 483 OFFCURVE",
"840 446 CURVE SMOOTH",
"891 371 OFFCURVE",
"880 236 OFFCURVE",
"782 175 CURVE SMOOTH",
"684 114 OFFCURVE",
"541 107 OFFCURVE",
"398 207 CURVE",
"343 51 LINE",
"418 6 OFFCURVE",
"514 -19 OFFCURVE",
"631 -22 CURVE SMOOTH",
"848 -25 OFFCURVE",
"1034 97 OFFCURVE",
"1046 326 CURVE SMOOTH",
"1053 430 OFFCURVE",
"987 507 OFFCURVE",
"916 577 CURVE SMOOTH",
"880 612 OFFCURVE",
"850 648 OFFCURVE",
"825 685 CURVE SMOOTH",
"776 759 OFFCURVE",
"799 867 OFFCURVE",
"856 951 CURVE SMOOTH",
"912 1035 OFFCURVE",
"975 1115 OFFCURVE",
"984 1226 CURVE SMOOTH",
"1001 1433 OFFCURVE",
"863 1550 OFFCURVE",
"664 1555 CURVE SMOOTH",
"397 1560 OFFCURVE",
"254 1356 OFFCURVE",
"221 1112 CURVE SMOOTH",
"31 0 LINE",
"211 0 LINE",
"400 1113 LINE SMOOTH"
);
}
);
width = 1181;
}
);
note = germandbls;
unicode = 00DF;
},
{
glyphname = ae;
lastChange = "2017-05-19 14:51:26 +0000";
layers = (
{
layerId = "2831174B-BB35-4064-B049-1570B14F4C27";
paths = (
{
closed = 1;
nodes = (
"1360 177 OFFCURVE",
"1259 129 OFFCURVE",
"1138 133 CURVE SMOOTH",
"930 137 OFFCURVE",
"869 318 OFFCURVE",
"892 498 CURVE",
"1594 498 LINE",
"1612 616 LINE SMOOTH",
"1627 744 OFFCURVE",
"1606 856 OFFCURVE",
"1549 953 CURVE SMOOTH",
"1434 1145 OFFCURVE",
"1116 1164 OFFCURVE",
"897 937 CURVE",
"844 1057 OFFCURVE",
"714 1100 OFFCURVE",
"591 1103 CURVE SMOOTH",
"384 1107 OFFCURVE",
"161 1005 OFFCURVE",
"138 778 CURVE",
"315 761 LINE",
"339 886 OFFCURVE",
"456 954 OFFCURVE",
"579 950 CURVE SMOOTH",
"714 946 OFFCURVE",
"758 841 OFFCURVE",
"743 721 CURVE SMOOTH",
"731 636 LINE",
"506 637 LINE SMOOTH",
"431 637 OFFCURVE",
"357 627 OFFCURVE",
"286 606 CURVE SMOOTH",
"142 564 OFFCURVE",
"36 468 OFFCURVE",
"25 296 CURVE SMOOTH",
"13 101 OFFCURVE",
"138 -17 OFFCURVE",
"329 -21 CURVE SMOOTH",
"498 -24 OFFCURVE",
"658 35 OFFCURVE",
"774 159 CURVE",
"849 34 OFFCURVE",
"991 -20 OFFCURVE",
"1132 -21 CURVE SMOOTH",
"1263 -22 OFFCURVE",
"1411 13 OFFCURVE",
"1512 101 CURVE",
"1460 238 LINE"
);
},
{
closed = 1;
nodes = (
"1405 947 OFFCURVE",
"1461 819 OFFCURVE",
"1438 672 CURVE SMOOTH",
"1432 640 LINE",
"911 640 LINE",
"962 792 OFFCURVE",
"1060 957 OFFCURVE",
"1244 952 CURVE SMOOTH"
);
},
{
closed = 1;
nodes = (
"272 132 OFFCURVE",
"194 185 OFFCURVE",
"207 292 CURVE SMOOTH",
"226 437 OFFCURVE",
"378 496 OFFCURVE",
"506 497 CURVE SMOOTH",
"708 496 LINE",
"665 257 LINE",
"562 170 OFFCURVE",
"464 128 OFFCURVE",
"371 129 CURVE SMOOTH"
);
}
);
width = 1678;
}
);
note = ae;
unicode = 00E6;
},
{
glyphname = eth;
lastChange = "2017-05-19 14:51:26 +0000";
layers = (
{
layerId = "2831174B-BB35-4064-B049-1570B14F4C27";
paths = (
{
closed = 1;
nodes = (
"596 -24 OFFCURVE",
"686 2 OFFCURVE",
"761 57 CURVE SMOOTH",
"912 165 OFFCURVE",
"1002 351 OFFCURVE",
"1029 535 CURVE SMOOTH",
"1043 633 LINE SMOOTH",
"1076 880 OFFCURVE",
"1034 1103 OFFCURVE",
"916 1300 CURVE",
"1097 1409 LINE",
"1039 1517 LINE",
"831 1389 LINE",
"728 1480 OFFCURVE",
"605 1543 OFFCURVE",
"462 1580 CURVE",
"392 1421 LINE",
"508 1388 OFFCURVE",
"601 1343 OFFCURVE",
"670 1284 CURVE",
"464 1159 LINE",
"522 1050 LINE",
"758 1198 LINE",
"831 1098 OFFCURVE",
"868 987 OFFCURVE",
"870 864 CURVE",
"723 1012 OFFCURVE",
"496 1007 OFFCURVE",
"351 909 CURVE SMOOTH",
"206 811 OFFCURVE",
"117 640 OFFCURVE",
"100 460 CURVE SMOOTH",
"76 208 OFFCURVE",
"228 -14 OFFCURVE",
"492 -21 CURVE SMOOTH"
);
},
{
closed = 1;
nodes = (
"303 655 OFFCURVE",
"427 832 OFFCURVE",
"640 827 CURVE SMOOTH",
"735 824 OFFCURVE",
"825 787 OFFCURVE",
"866 698 CURVE",
"858 626 OFFCURVE",
"850 488 OFFCURVE",
"796 356 CURVE SMOOTH",
"742 224 OFFCURVE",
"649 125 OFFCURVE",
"506 130 CURVE SMOOTH",
"333 137 OFFCURVE",
"265 307 OFFCURVE",
"282 460 CURVE SMOOTH"
);
}
);
width = 1165;
}
);
note = eth;
unicode = 00F0;
},
{
glyphname = divide;
lastChange = "2017-05-19 14:51:26 +0000";
layers = (
{
layerId = "2831174B-BB35-4064-B049-1570B14F4C27";
paths = (
{
closed = 1;
nodes = (
"534 1031 OFFCURVE",
"581 987 OFFCURVE",
"645 988 CURVE SMOOTH",
"709 989 OFFCURVE",
"756 1036 OFFCURVE",
"757 1101 CURVE SMOOTH",
"758 1166 OFFCURVE",
"711 1212 OFFCURVE",
"646 1211 CURVE SMOOTH",
"581 1210 OFFCURVE",
"535 1160 OFFCURVE",
"534 1095 CURVE SMOOTH"
);
},
{
closed = 1;
nodes = (
"68 600 LINE",
"1038 600 LINE",
"1070 784 LINE",
"101 784 LINE"
);
},
{
closed = 1;
nodes = (
"392 215 OFFCURVE",
"439 170 OFFCURVE",
"503 171 CURVE SMOOTH",
"568 172 OFFCURVE",
"615 220 OFFCURVE",
"616 285 CURVE SMOOTH",
"617 350 OFFCURVE",
"570 396 OFFCURVE",
"505 395 CURVE SMOOTH",
"438 394 OFFCURVE",
"394 344 OFFCURVE",
"393 279 CURVE SMOOTH"
);
}
);
width = 1135;
}
);
note = divide;
unicode = 00F7;
},
{
glyphname = oslash;
lastChange = "2017-05-19 14:51:26 +0000";
layers = (
{
layerId = "2831174B-BB35-4064-B049-1570B14F4C27";
paths = (
{
closed = 1;
nodes = (
"764 -26 OFFCURVE",
"988 201 OFFCURVE",
"1032 538 CURVE SMOOTH",
"1034 554 LINE SMOOTH",
"1051 713 OFFCURVE",
"1027 877 OFFCURVE",
"922 1001 CURVE",
"1065 1208 LINE",
"934 1209 LINE",
"832 1060 LINE",
"771 1088 OFFCURVE",
"706 1103 OFFCURVE",
"637 1104 CURVE SMOOTH",
"346 1108 OFFCURVE",
"121 882 OFFCURVE",
"77 526 CURVE SMOOTH",
"60 365 OFFCURVE",
"84 195 OFFCURVE",
"199 72 CURVE",
"57 -134 LINE",
"187 -135 LINE",
"290 16 LINE",
"349 -8 OFFCURVE",
"410 -21 OFFCURVE",
"473 -22 CURVE SMOOTH"
);
},
{
closed = 1;
nodes = (
"287 707 OFFCURVE",
"348 824 OFFCURVE",
"448 900 CURVE SMOOTH",
"548 975 OFFCURVE",
"678 962 OFFCURVE",
"749 922 CURVE",
"290 224 LINE",
"239 316 OFFCURVE",
"243 426 OFFCURVE",
"256 527 CURVE"
);
},
{
closed = 1;
nodes = (
"864 654 OFFCURVE",
"861 597 OFFCURVE",
"852 531 CURVE SMOOTH",
"842 467 OFFCURVE",
"822 404 OFFCURVE",
"792 341 CURVE SMOOTH",
"732 216 OFFCURVE",
"629 125 OFFCURVE",
"480 129 CURVE SMOOTH",
"442 130 OFFCURVE",
"406 138 OFFCURVE",
"373 153 CURVE",
"828 845 LINE",
"849 800 OFFCURVE",
"860 752 OFFCURVE",
"862 702 CURVE SMOOTH"
);
}
);
width = 1126;
}
);
note = oslash;
unicode = 00F8;
},
{
glyphname = thorn;
lastChange = "2017-05-19 14:51:26 +0000";
layers = (
{
layerId = "2831174B-BB35-4064-B049-1570B14F4C27";
paths = (
{
closed = 1;
nodes = (
"636 -23 OFFCURVE",
"723 6 OFFCURVE",
"794 65 CURVE SMOOTH",
"917 168 OFFCURVE",
"993 330 OFFCURVE",
"1023 552 CURVE SMOOTH",
"1040 713 OFFCURVE",
"1017 896 OFFCURVE",
"916 1012 CURVE SMOOTH",
"815 1127 OFFCURVE",
"556 1150 OFFCURVE",
"381 971 CURVE",
"487 1536 LINE",
"306 1536 LINE",
"-33 -416 LINE",
"149 -416 LINE",
"246 106 LINE",
"313 24 OFFCURVE",
"408 -18 OFFCURVE",
"533 -21 CURVE SMOOTH"
);
},
{
closed = 1;
nodes = (
"700 945 OFFCURVE",
"751 922 OFFCURVE",
"783 879 CURVE SMOOTH",
"846 792 OFFCURVE",
"853 659 OFFCURVE",
"840 552 CURVE SMOOTH",
"838 532 LINE SMOOTH",
"821 405 OFFCURVE",
"768 270 OFFCURVE",
"671 189 CURVE SMOOTH",
"574 108 OFFCURVE",
"352 89 OFFCURVE",
"269 278 CURVE",
"359 798 LINE",
"436 900 OFFCURVE",
"527 950 OFFCURVE",
"631 947 CURVE SMOOTH"
);
}
);
width = 1145;
}
);
note = thorn;
rightKerningGroup = b;
unicode = 00FE;
},
{
glyphname = dcroat;
lastChange = "2017-05-19 14:51:26 +0000";
layers = (
{
layerId = "2831174B-BB35-4064-B049-1570B14F4C27";
paths = (
{
closed = 1;
nodes = (
"1088 1233 LINE",
"1270 1233 LINE",
"1297 1385 LINE",
"1114 1385 LINE",
"1141 1536 LINE",
"959 1536 LINE",
"933 1385 LINE",
"678 1385 LINE",
"651 1233 LINE",
"907 1233 LINE",
"855 973 LINE",
"790 1058 OFFCURVE",
"697 1101 OFFCURVE",
"577 1102 CURVE SMOOTH",
"478 1105 OFFCURVE",
"395 1080 OFFCURVE",
"326 1027 CURVE SMOOTH",
"193 925 OFFCURVE",
"110 758 OFFCURVE",
"79 526 CURVE SMOOTH",
"63 370 OFFCURVE",
"91 188 OFFCURVE",
"194 72 CURVE SMOOTH",
"297 -45 OFFCURVE",
"554 -71 OFFCURVE",
"729 116 CURVE",
"710 0 LINE",
"875 0 LINE"
);
},
{
closed = 1;
nodes = (
"285 688 OFFCURVE",
"337 813 OFFCURVE",
"433 892 CURVE SMOOTH",
"529 971 OFFCURVE",
"750 991 OFFCURVE",
"830 794 CURVE",
"743 293 LINE",
"666 186 OFFCURVE",
"574 134 OFFCURVE",
"467 137 CURVE SMOOTH",
"398 139 OFFCURVE",
"349 161 OFFCURVE",
"318 204 CURVE SMOOTH",
"256 289 OFFCURVE",
"250 422 OFFCURVE",
"262 527 CURVE SMOOTH"
);
}
);
width = 1187;
}
);
note = dcroat;
unicode = 0111;
},
{
glyphname = Hbar;
lastChange = "2017-05-19 14:51:26 +0000";
layers = (
{
layerId = "2831174B-BB35-4064-B049-1570B14F4C27";
paths = (
{
closed = 1;
nodes = (
"1319 1024 LINE",
"1449 1024 LINE",
"1474 1167 LINE",
"1344 1167 LINE",
"1394 1456 LINE",
"1206 1456 LINE",
"1155 1167 LINE",
"444 1167 LINE",
"495 1456 LINE",
"307 1456 LINE",
"257 1167 LINE",
"127 1167 LINE",
"102 1024 LINE",
"232 1024 LINE",
"54 0 LINE",
"242 0 LINE",
"359 673 LINE",
"1070 673 LINE",
"953 0 LINE",
"1141 0 LINE"
);
},
{
closed = 1;
nodes = (
"1131 1024 LINE",
"1096 830 LINE",
"386 830 LINE",
"420 1024 LINE"
);
}
);
width = 1392;
}
);
note = Hbar;
unicode = 0126;
},
{
glyphname = dotlessi;
lastChange = "2017-05-19 14:51:26 +0000";
layers = (
{
layerId = "2831174B-BB35-4064-B049-1570B14F4C27";
paths = (
{
closed = 1;
nodes = (
"46 0 LINE",
"226 0 LINE",
"414 1082 LINE",
"234 1082 LINE"
);
}
);
width = 492;
}
);
note = dotlessi;
unicode = 0131;
},
{
glyphname = kgreenlandic;
lastChange = "2017-05-19 14:51:26 +0000";
layers = (
{
layerId = "2831174B-BB35-4064-B049-1570B14F4C27";
paths = (
{
closed = 1;
nodes = (
"572 549 LINE",
"1111 1082 LINE",
"878 1082 LINE",
"414 624 LINE",
"333 624 LINE",
"414 1082 LINE",
"233 1082 LINE",
"45 0 LINE",
"226 0 LINE",
"306 462 LINE",
"417 462 LINE",
"731 0 LINE",
"944 0 LINE"
);
}
);
width = 1106;
}
);
note = kgreenlandic;
unicode = 0138;
},
{
glyphname = Lslash;
lastChange = "2017-05-19 14:51:26 +0000";
layers = (
{
layerId = "2831174B-BB35-4064-B049-1570B14F4C27";
paths = (
{
closed = 1;
nodes = (
"371 716 LINE",
"641 799 LINE",
"664 931 LINE",
"394 849 LINE",
"500 1456 LINE",
"312 1456 LINE",
"196 787 LINE",
"59 745 LINE",
"35 613 LINE",
"173 654 LINE",
"59 0 LINE",
"917 0 LINE",
"945 157 LINE",
"274 157 LINE"
);
}
);
width = 1070;
}
);
note = Lslash;
unicode = 0141;
},
{
glyphname = lslash;
lastChange = "2017-05-19 14:51:26 +0000";
layers = (
{
layerId = "2831174B-BB35-4064-B049-1570B14F4C27";
paths = (
{
closed = 1;
nodes = (
"401 874 LINE",
"516 1536 LINE",
"336 1536 LINE",
"208 802 LINE",
"59 747 LINE",
"36 617 LINE",
"186 671 LINE",
"69 0 LINE",
"250 0 LINE",
"379 743 LINE",
"543 804 LINE",
"567 934 LINE"
);
}
);
width = 537;
}
);
note = lslash;
unicode = 0142;
},
{
glyphname = Eng;
lastChange = "2017-05-19 14:51:26 +0000";
layers = (
{
layerId = "2831174B-BB35-4064-B049-1570B14F4C27";
paths = (
{
closed = 1;
nodes = (
"438 1137 LINE",
"938 0 LINE",
"923 -84 LINE SMOOTH",
"916 -131 OFFCURVE",
"899 -176 OFFCURVE",
"873 -219 CURVE SMOOTH",
"821 -305 OFFCURVE",
"727 -288 OFFCURVE",
"654 -267 CURVE",
"624 -420 LINE",
"668 -433 OFFCURVE",
"708 -439 OFFCURVE",
"744 -439 CURVE SMOOTH",
"964 -442 OFFCURVE",
"1085 -291 OFFCURVE",
"1112 -84 CURVE",
"1376 1456 LINE",
"1187 1456 LINE",
"989 319 LINE",
"486 1456 LINE",
"304 1456 LINE",
"52 0 LINE",
"240 0 LINE"
);
}
);
width = 1376;
}
);
note = Eng;
unicode = 014A;
},
{
glyphname = eng;
lastChange = "2017-05-19 14:51:26 +0000";
layers = (
{
layerId = "2831174B-BB35-4064-B049-1570B14F4C27";
paths = (
{
closed = 1;
nodes = (
"1001 791 OFFCURVE",
"986 888 OFFCURVE",
"943 973 CURVE SMOOTH",
"857 1141 OFFCURVE",
"547 1165 OFFCURVE",
"364 929 CURVE",
"386 1083 LINE",
"225 1082 LINE",
"37 0 LINE",
"218 0 LINE",
"360 813 LINE",
"435 905 OFFCURVE",
"526 950 OFFCURVE",
"634 947 CURVE SMOOTH",
"795 943 OFFCURVE",
"825 823 OFFCURVE",
"808 680 CURVE",
"683 -89 LINE SMOOTH",
"667 -189 OFFCURVE",
"619 -279 OFFCURVE",
"511 -279 CURVE SMOOTH",
"478 -279 OFFCURVE",
"445 -274 OFFCURVE",
"412 -264 CURVE",
"382 -420 LINE",
"425 -433 OFFCURVE",
"465 -439 OFFCURVE",
"501 -439 CURVE SMOOTH",
"717 -442 OFFCURVE",
"838 -293 OFFCURVE",
"865 -89 CURVE SMOOTH",
"990 682 LINE"
);
}
);
width = 1126;
}
);
note = eng;
unicode = 014B;
},
{
glyphname = OE;
lastChange = "2017-05-19 14:51:26 +0000";
layers = (
{
layerId = "2831174B-BB35-4064-B049-1570B14F4C27";
paths = (
{
closed = 1;
nodes = (
"1050 673 LINE",
"1660 673 LINE",
"1688 830 LINE",
"1077 830 LINE",
"1158 1298 LINE",
"1858 1298 LINE",
"1886 1456 LINE",
"1061 1456 LINE",
"849 1476 LINE",
"777 1478 LINE SMOOTH",
"450 1479 OFFCURVE",
"204 1243 OFFCURVE",
"145 868 CURVE SMOOTH",
"99 576 LINE SMOOTH",
"86 474 OFFCURVE",
"94 378 OFFCURVE",
"124 289 CURVE SMOOTH",
"183 109 OFFCURVE",
"326 -14 OFFCURVE",
"546 -19 CURVE",
"615 -18 LINE",
"832 0 LINE",
"1643 0 LINE",
"1671 157 LINE",
"960 157 LINE"
);
},
{
closed = 1;
nodes = (
"347 1000 OFFCURVE",
"392 1105 OFFCURVE",
"465 1195 CURVE SMOOTH",
"610 1374 OFFCURVE",
"822 1333 OFFCURVE",
"974 1312 CURVE",
"765 145 LINE",
"597 126 OFFCURVE",
"449 115 OFFCURVE",
"365 204 CURVE SMOOTH",
"280 292 OFFCURVE",
"261 435 OFFCURVE",
"280 575 CURVE SMOOTH",
"328 881 LINE SMOOTH"
);
}
);
width = 1894;
}
);
leftKerningGroup = C;
note = OE;
unicode = 0152;
},
{
glyphname = oe;
lastChange = "2017-05-19 14:51:26 +0000";
layers = (
{
layerId = "2831174B-BB35-4064-B049-1570B14F4C27";
paths = (
{
closed = 1;
nodes = (
"1467 164 OFFCURVE",
"1361 129 OFFCURVE",
"1250 133 CURVE SMOOTH",
"1184 135 OFFCURVE",
"1134 155 OFFCURVE",
"1100 193 CURVE SMOOTH",
"1032 269 OFFCURVE",
"1016 390 OFFCURVE",
"1029 498 CURVE",
"1720 498 LINE",
"1739 620 LINE SMOOTH",
"1771 875 OFFCURVE",
"1658 1095 OFFCURVE",
"1381 1103 CURVE SMOOTH",
"1217 1107 OFFCURVE",
"1086 1010 OFFCURVE",
"987 886 CURVE",
"956 957 OFFCURVE",
"908 1010 OFFCURVE",
"843 1046 CURVE SMOOTH",
"713 1118 OFFCURVE",
"514 1132 OFFCURVE",
"359 1028 CURVE SMOOTH",
"203 924 OFFCURVE",
"109 743 OFFCURVE",
"84 550 CURVE",
"82 527 LINE SMOOTH",
"73 438 OFFCURVE",
"80 352 OFFCURVE",
"103 269 CURVE SMOOTH",
"150 103 OFFCURVE",
"270 -17 OFFCURVE",
"471 -21 CURVE SMOOTH",
"632 -25 OFFCURVE",
"771 46 OFFCURVE",
"887 191 CURVE",
"951 52 OFFCURVE",
"1094 -17 OFFCURVE",
"1243 -20 CURVE SMOOTH",
"1380 -23 OFFCURVE",
"1527 14 OFFCURVE",
"1627 111 CURVE",
"1566 238 LINE"
);
},
{
closed = 1;
nodes = (
"1526 947 OFFCURVE",
"1589 817 OFFCURVE",
"1566 676 CURVE SMOOTH",
"1561 648 LINE",
"1051 649 LINE",
"1102 788 OFFCURVE",
"1199 956 OFFCURVE",
"1371 951 CURVE SMOOTH"
);
},
{
closed = 1;
nodes = (
"283 674 OFFCURVE",
"336 807 OFFCURVE",
"436 891 CURVE SMOOTH",
"535 975 OFFCURVE",
"709 968 OFFCURVE",
"776 883 CURVE SMOOTH",
"843 798 OFFCURVE",
"854 665 OFFCURVE",
"841 554 CURVE SMOOTH",
"839 531 LINE",
"822 404 OFFCURVE",
"766 268 OFFCURVE",
"667 187 CURVE SMOOTH",
"567 106 OFFCURVE",
"394 112 OFFCURVE",
"327 197 CURVE SMOOTH",
"260 281 OFFCURVE",
"251 411 OFFCURVE",
"263 522 CURVE SMOOTH"
);
}
);
width = 1804;
}
);
leftKerningGroup = c;
note = oe;
unicode = 0153;
},
{
glyphname = longs;
lastChange = "2017-05-19 14:51:26 +0000";
layers = (
{
layerId = "2831174B-BB35-4064-B049-1570B14F4C27";
paths = (
{
closed = 1;
nodes = (
"456 1315 OFFCURVE",
"527 1410 OFFCURVE",
"655 1409 CURVE SMOOTH",
"682 1408 OFFCURVE",
"712 1404 OFFCURVE",
"744 1395 CURVE",
"778 1538 LINE",
"717 1552 OFFCURVE",
"668 1559 OFFCURVE",
"632 1560 CURVE SMOOTH",
"407 1563 OFFCURVE",
"281 1407 OFFCURVE",
"254 1196 CURVE",
"51 0 LINE",
"231 0 LINE",
"436 1196 LINE SMOOTH"
);
}
);
width = 493;
}
);
note = longs;
unicode = 017F;
},
{
glyphname = uni0181;
lastChange = "2017-05-19 14:51:26 +0000";
layers = (
{
layerId = "2831174B-BB35-4064-B049-1570B14F4C27";
paths = (
{
closed = 1;
nodes = (
"120 1136 OFFCURVE",
"123 1099 OFFCURVE",
"130 1056 CURVE",
"274 1057 LINE",
"272 1091 LINE",
"268 1122 OFFCURVE",
"273 1155 OFFCURVE",
"288 1190 CURVE SMOOTH",
"316 1258 OFFCURVE",
"389 1297 OFFCURVE",
"484 1301 CURVE",
"258 0 LINE",
"768 0 LINE SMOOTH",
"1037 -1 OFFCURVE",
"1269 141 OFFCURVE",
"1290 428 CURVE SMOOTH",
"1301 568 OFFCURVE",
"1245 710 OFFCURVE",
"1106 762 CURVE",
"1242 822 OFFCURVE",
"1355 919 OFFCURVE",
"1368 1076 CURVE SMOOTH",
"1389 1341 OFFCURVE",
"1200 1454 OFFCURVE",
"953 1455 CURVE SMOOTH",
"502 1457 LINE",
"502 1456 LINE",
"310 1457 OFFCURVE",
"138 1381 OFFCURVE",
"123 1169 CURVE SMOOTH"
);
},
{
closed = 1;
nodes = (
"1100 1294 OFFCURVE",
"1198 1236 OFFCURVE",
"1179 1079 CURVE SMOOTH",
"1159 915 OFFCURVE",
"1015 835 OFFCURVE",
"862 835 CURVE SMOOTH",
"591 836 LINE",
"671 1298 LINE",
"959 1297 LINE SMOOTH"
);
},
{
closed = 1;
nodes = (
"1084 250 OFFCURVE",
"940 156 OFFCURVE",
"769 156 CURVE SMOOTH",
"473 157 LINE",
"564 681 LINE",
"891 680 LINE SMOOTH",
"1054 675 OFFCURVE",
"1125 590 OFFCURVE",
"1105 426 CURVE SMOOTH"
);
}
);
width = 1436;
}
);
note = uni0181;
unicode = 0181;
},
{
glyphname = uni0183;
lastChange = "2017-05-19 14:51:26 +0000";
layers = (
{
layerId = "2831174B-BB35-4064-B049-1570B14F4C27";
paths = (
{
closed = 1;
nodes = (
"236 126 LINE",
"299 33 OFFCURVE",
"396 -16 OFFCURVE",
"526 -21 CURVE SMOOTH",
"624 -23 OFFCURVE",
"707 2 OFFCURVE",
"774 54 CURVE SMOOTH",
"905 155 OFFCURVE",
"986 321 OFFCURVE",
"1017 552 CURVE SMOOTH",
"1034 713 OFFCURVE",
"1011 896 OFFCURVE",
"910 1012 CURVE SMOOTH",
"809 1127 OFFCURVE",
"544 1153 OFFCURVE",
"372 964 CURVE",
"453 1384 LINE",
"951 1384 LINE",
"978 1536 LINE",
"298 1536 LINE",
"31 0 LINE",
"199 0 LINE"
);
},
{
closed = 1;
nodes = (
"704 945 OFFCURVE",
"754 922 OFFCURVE",
"785 879 CURVE SMOOTH",
"845 792 OFFCURVE",
"847 660 OFFCURVE",
"834 552 CURVE SMOOTH",
"832 532 LINE",
"815 408 OFFCURVE",
"767 274 OFFCURVE",
"672 194 CURVE SMOOTH",
"577 113 OFFCURVE",
"347 88 OFFCURVE",
"266 305 CURVE",
"348 779 LINE",
"426 894 OFFCURVE",
"521 950 OFFCURVE",
"633 947 CURVE SMOOTH"
);
}
);
width = 1116;
}
);
note = uni0183;
rightKerningGroup = b;
unicode = 0183;
},
{
glyphname = uni0184;
lastChange = "2017-05-19 14:51:26 +0000";
layers = (
{
layerId = "2831174B-BB35-4064-B049-1570B14F4C27";
paths = (
{
closed = 1;
nodes = (
"1242 713 OFFCURVE",
"1060 857 OFFCURVE",
"809 862 CURVE SMOOTH",
"481 863 LINE",
"584 1456 LINE",
"389 1456 LINE",
"207 1258 LINE",
"194 1183 LINE",
"313 977 LINE",
"143 0 LINE",
"690 0 LINE SMOOTH",
"962 0 OFFCURVE",
"1201 153 OFFCURVE",
"1225 442 CURVE SMOOTH",
"1226 456 LINE SMOOTH"
);
},
{
closed = 1;
nodes = (
"805 704 LINE SMOOTH",
"962 699 OFFCURVE",
"1057 606 OFFCURVE",
"1037 445 CURVE SMOOTH",
"1014 261 OFFCURVE",
"869 156 OFFCURVE",
"689 155 CURVE SMOOTH",
"359 157 LINE",
"454 705 LINE"
);
}
);
width = 1334;
}
);
note = uni0184;
unicode = 0184;
},
{
glyphname = uni0185;
lastChange = "2017-05-19 14:51:26 +0000";
layers = (
{
layerId = "2831174B-BB35-4064-B049-1570B14F4C27";
paths = (
{
closed = 1;
nodes = (
"1143 713 OFFCURVE",
"1121 896 OFFCURVE",
"1021 1012 CURVE SMOOTH",
"920 1127 OFFCURVE",
"654 1154 OFFCURVE",
"481 963 CURVE",
"589 1536 LINE",
"401 1536 LINE",
"220 1338 LINE",
"207 1263 LINE",
"326 1057 LINE",
"142 0 LINE",
"309 0 LINE",
"346 126 LINE",
"473 -65 OFFCURVE",
"754 -52 OFFCURVE",
"891 60 CURVE SMOOTH",
"1027 171 OFFCURVE",
"1101 355 OFFCURVE",
"1124 530 CURVE",
"1126 552 LINE SMOOTH"
);
},
{
closed = 1;
nodes = (
"814 945 OFFCURVE",
"864 922 OFFCURVE",
"895 879 CURVE SMOOTH",
"955 792 OFFCURVE",
"957 659 OFFCURVE",
"945 552 CURVE SMOOTH",
"921 380 OFFCURVE",
"866 259 OFFCURVE",
"774 187 CURVE SMOOTH",
"682 115 OFFCURVE",
"455 87 OFFCURVE",
"376 306 CURVE",
"457 777 LINE",
"525 877 OFFCURVE",
"616 951 OFFCURVE",
"743 947 CURVE SMOOTH"
);
}
);
width = 1224;
}
);
note = uni0185;
rightKerningGroup = b;
unicode = 0185;
},
{
glyphname = uni0186;
lastChange = "2017-05-19 14:51:26 +0000";
layers = (
{
layerId = "2831174B-BB35-4064-B049-1570B14F4C27";
paths = (
{
closed = 1;
nodes = (
"68 327 OFFCURVE",
"108 212 OFFCURVE",
"183 121 CURVE SMOOTH",
"334 -60 OFFCURVE",
"666 -56 OFFCURVE",
"854 72 CURVE SMOOTH",
"1041 199 OFFCURVE",
"1154 420 OFFCURVE",
"1190 656 CURVE SMOOTH",
"1211 801 LINE SMOOTH",
"1225 908 OFFCURVE",
"1220 1012 OFFCURVE",
"1195 1115 CURVE SMOOTH",
"1146 1320 OFFCURVE",
"1008 1471 OFFCURVE",
"763 1476 CURVE SMOOTH",
"455 1483 OFFCURVE",
"224 1292 OFFCURVE",
"163 993 CURVE",
"351 994 LINE",
"380 1096 OFFCURVE",
"427 1177 OFFCURVE",
"491 1236 CURVE SMOOTH",
"618 1355 OFFCURVE",
"871 1343 OFFCURVE",
"953 1230 CURVE SMOOTH",
"1035 1117 OFFCURVE",
"1043 943 OFFCURVE",
"1023 802 CURVE SMOOTH",
"1000 648 LINE SMOOTH",
"986 564 OFFCURVE",
"960 483 OFFCURVE",
"923 404 CURVE SMOOTH",
"848 246 OFFCURVE",
"719 131 OFFCURVE",
"526 138 CURVE SMOOTH",
"323 143 OFFCURVE",
"259 284 OFFCURVE",
"252 468 CURVE",
"65 468 LINE"
);
}
);
width = 1293;
}
);
note = uni0186;
rightKerningGroup = D;
unicode = 0186;
},
{
glyphname = uni0187;
lastChange = "2017-05-19 14:51:26 +0000";
layers = (
{
layerId = "2831174B-BB35-4064-B049-1570B14F4C27";
paths = (
{
closed = 1;
nodes = (
"1530 1347 OFFCURVE",
"1551 1343 OFFCURVE",
"1574 1338 CURVE",
"1591 1493 LINE",
"1541 1505 OFFCURVE",
"1501 1511 OFFCURVE",
"1472 1511 CURVE SMOOTH",
"1343 1514 OFFCURVE",
"1247 1450 OFFCURVE",
"1184 1320 CURVE",
"1142 1377 OFFCURVE",
"1088 1417 OFFCURVE",
"1022 1440 CURVE SMOOTH",
"890 1487 OFFCURVE",
"672 1511 OFFCURVE",
"485 1384 CURVE SMOOTH",
"297 1256 OFFCURVE",
"184 1036 OFFCURVE",
"148 800 CURVE SMOOTH",
"127 655 LINE SMOOTH",
"113 548 OFFCURVE",
"118 444 OFFCURVE",
"143 342 CURVE SMOOTH",
"191 137 OFFCURVE",
"327 -15 OFFCURVE",
"574 -20 CURVE SMOOTH",
"882 -27 OFFCURVE",
"1113 163 OFFCURVE",
"1174 463 CURVE",
"987 462 LINE",
"957 361 OFFCURVE",
"910 280 OFFCURVE",
"847 221 CURVE SMOOTH",
"719 101 OFFCURVE",
"468 113 OFFCURVE",
"385 226 CURVE SMOOTH",
"302 339 OFFCURVE",
"295 514 OFFCURVE",
"314 654 CURVE SMOOTH",
"335 795 LINE SMOOTH",
"348 881 OFFCURVE",
"373 965 OFFCURVE",
"411 1046 CURVE SMOOTH",
"487 1209 OFFCURVE",
"616 1324 OFFCURVE",
"811 1319 CURVE SMOOTH",
"1016 1312 OFFCURVE",
"1078 1172 OFFCURVE",
"1087 988 CURVE",
"1269 989 LINE",
"1296 1155 LINE SMOOTH",
"1317 1288 OFFCURVE",
"1388 1352 OFFCURVE",
"1509 1348 CURVE SMOOTH"
);
}
);
width = 1405;
}
);
leftKerningGroup = C;
note = uni0187;
unicode = 0187;
},
{
glyphname = uni0188;
lastChange = "2017-05-19 14:51:26 +0000";
layers = (
{
layerId = "2831174B-BB35-4064-B049-1570B14F4C27";
paths = (
{
closed = 1;
nodes = (
"1272 1138 LINE",
"1230 1149 OFFCURVE",
"1195 1155 OFFCURVE",
"1166 1155 CURVE SMOOTH",
"1041 1156 OFFCURVE",
"966 1089 OFFCURVE",
"917 981 CURVE",
"782 1137 OFFCURVE",
"509 1131 OFFCURVE",
"355 1031 CURVE SMOOTH",
"201 931 OFFCURVE",
"106 755 OFFCURVE",
"83 560 CURVE SMOOTH",
"78 517 LINE SMOOTH",
"69 427 OFFCURVE",
"76 341 OFFCURVE",
"99 260 CURVE SMOOTH",
"145 97 OFFCURVE",
"262 -16 OFFCURVE",
"465 -21 CURVE SMOOTH",
"680 -25 OFFCURVE",
"894 125 OFFCURVE",
"926 342 CURVE",
"754 341 LINE",
"737 278 OFFCURVE",
"702 226 OFFCURVE",
"651 187 CURVE SMOOTH",
"547 108 OFFCURVE",
"385 114 OFFCURVE",
"319 194 CURVE SMOOTH",
"253 274 OFFCURVE",
"244 402 OFFCURVE",
"256 518 CURVE SMOOTH",
"260 552 LINE SMOOTH",
"268 617 OFFCURVE",
"286 681 OFFCURVE",
"314 744 CURVE SMOOTH",
"370 868 OFFCURVE",
"468 956 OFFCURVE",
"617 951 CURVE SMOOTH",
"756 946 OFFCURVE",
"823 838 OFFCURVE",
"826 709 CURVE",
"993 710 LINE",
"1013 838 LINE SMOOTH",
"1032 962 OFFCURVE",
"1095 1023 OFFCURVE",
"1201 1020 CURVE",
"1258 1011 LINE"
);
}
);
width = 1205;
}
);
leftKerningGroup = c;
note = uni0188;
unicode = 0188;
},
{
glyphname = uni018A;
lastChange = "2017-05-19 14:51:26 +0000";
layers = (
{
layerId = "2831174B-BB35-4064-B049-1570B14F4C27";
paths = (
{
closed = 1;
nodes = (
"120 1136 OFFCURVE",
"122 1099 OFFCURVE",
"129 1056 CURVE",
"273 1057 LINE",
"271 1091 LINE",
"270 1115 LINE",
"277 1239 OFFCURVE",
"362 1296 OFFCURVE",
"483 1301 CURVE",
"257 0 LINE",
"660 0 LINE SMOOTH",
"1065 3 OFFCURVE",
"1340 289 OFFCURVE",
"1399 678 CURVE SMOOTH",
"1412 771 LINE SMOOTH",
"1427 890 OFFCURVE",
"1418 1002 OFFCURVE",
"1385 1105 CURVE SMOOTH",
"1319 1311 OFFCURVE",
"1156 1451 OFFCURVE",
"897 1455 CURVE SMOOTH",
"501 1457 LINE",
"501 1456 LINE",
"309 1457 OFFCURVE",
"138 1381 OFFCURVE",
"122 1169 CURVE SMOOTH"
);
},
{
closed = 1;
nodes = (
"992 1294 OFFCURVE",
"1068 1267 OFFCURVE",
"1120 1216 CURVE SMOOTH",
"1224 1113 OFFCURVE",
"1248 945 OFFCURVE",
"1225 774 CURVE SMOOTH",
"1213 684 LINE SMOOTH",
"1166 384 OFFCURVE",
"973 155 OFFCURVE",
"656 156 CURVE SMOOTH",
"472 157 LINE",
"670 1298 LINE",
"893 1297 LINE SMOOTH"
);
}
);
width = 1502;
}
);
note = uni018A;
rightKerningGroup = D;
unicode = 018A;
},
{
glyphname = uni018B;
lastChange = "2017-05-19 14:51:26 +0000";
layers = (
{
layerId = "2831174B-BB35-4064-B049-1570B14F4C27";
paths = (
{
closed = 1;
nodes = (
"365 1456 LINE",
"337 1298 LINE",
"1019 1298 LINE",
"943 863 LINE",
"592 864 LINE SMOOTH",
"317 864 OFFCURVE",
"75 719 OFFCURVE",
"50 427 CURVE SMOOTH",
"27 158 OFFCURVE",
"210 9 OFFCURVE",
"466 1 CURVE SMOOTH",
"982 0 LINE",
"1235 1456 LINE"
);
},
{
closed = 1;
nodes = (
"310 165 OFFCURVE",
"218 269 OFFCURVE",
"238 430 CURVE SMOOTH",
"262 613 OFFCURVE",
"411 706 OFFCURVE",
"586 707 CURVE SMOOTH",
"916 705 LINE",
"821 157 LINE",
"470 158 LINE"
);
}
);
width = 1245;
}
);
note = uni018B;
rightKerningGroup = H;
unicode = 018B;
},
{
glyphname = uni018C;
lastChange = "2017-05-19 14:51:26 +0000";
layers = (
{
layerId = "2831174B-BB35-4064-B049-1570B14F4C27";
paths = (
{
closed = 1;
nodes = (
"855 973 LINE",
"790 1058 OFFCURVE",
"697 1101 OFFCURVE",
"577 1102 CURVE SMOOTH",
"478 1105 OFFCURVE",
"395 1080 OFFCURVE",
"326 1027 CURVE SMOOTH",
"193 925 OFFCURVE",
"110 758 OFFCURVE",
"79 526 CURVE SMOOTH",
"63 370 OFFCURVE",
"91 188 OFFCURVE",
"194 72 CURVE SMOOTH",
"297 -45 OFFCURVE",
"554 -71 OFFCURVE",
"729 116 CURVE",
"710 0 LINE",
"875 0 LINE",
"1141 1536 LINE",
"462 1536 LINE",
"435 1384 LINE",
"933 1384 LINE"
);
},
{
closed = 1;
nodes = (
"285 688 OFFCURVE",
"337 813 OFFCURVE",
"433 892 CURVE SMOOTH",
"529 971 OFFCURVE",
"750 991 OFFCURVE",
"830 794 CURVE",
"743 293 LINE",
"666 186 OFFCURVE",
"574 134 OFFCURVE",
"467 137 CURVE SMOOTH",
"398 139 OFFCURVE",
"349 161 OFFCURVE",
"318 204 CURVE SMOOTH",
"256 289 OFFCURVE",
"250 422 OFFCURVE",
"262 527 CURVE SMOOTH"
);
}
);
width = 1120;
}
);
note = uni018C;
unicode = 018C;
},
{
glyphname = uni018D;
lastChange = "2017-05-19 14:51:26 +0000";
layers = (
{
layerId = "2831174B-BB35-4064-B049-1570B14F4C27";
paths = (
{
closed = 1;
nodes = (
"695 -205 OFFCURVE",
"646 -150 OFFCURVE",
"594 -97 CURVE SMOOTH",
"542 -45 OFFCURVE",
"494 10 OFFCURVE",
"451 68 CURVE",
"740 68 OFFCURVE",
"982 263 OFFCURVE",
"1021 535 CURVE SMOOTH",
"1026 574 LINE SMOOTH",
"1035 663 OFFCURVE",
"1026 748 OFFCURVE",
"1001 827 CURVE SMOOTH",
"950 986 OFFCURVE",
"828 1097 OFFCURVE",
"631 1101 CURVE SMOOTH",
"347 1109 OFFCURVE",
"128 894 OFFCURVE",
"84 545 CURVE SMOOTH",
"60 318 OFFCURVE",
"185 127 OFFCURVE",
"337 -34 CURVE SMOOTH",
"358 -56 OFFCURVE",
"386 -84 OFFCURVE",
"421 -119 CURVE SMOOTH",
"456 -154 OFFCURVE",
"485 -190 OFFCURVE",
"506 -227 CURVE",
"61 -228 LINE",
"35 -376 LINE",
"723 -376 LINE",
"741 -262 LINE"
);
},
{
closed = 1;
nodes = (
"814 359 OFFCURVE",
"682 184 OFFCURVE",
"469 189 CURVE SMOOTH",
"442 190 OFFCURVE",
"412 194 OFFCURVE",
"378 202 CURVE",
"282 291 OFFCURVE",
"250 419 OFFCURVE",
"265 546 CURVE SMOOTH",
"267 568 LINE",
"286 693 OFFCURVE",
"341 822 OFFCURVE",
"441 898 CURVE SMOOTH",
"540 973 OFFCURVE",
"706 968 OFFCURVE",
"774 890 CURVE SMOOTH",
"842 812 OFFCURVE",
"856 689 OFFCURVE",
"844 578 CURVE SMOOTH",
"841 555 LINE SMOOTH"
);
}
);
width = 1126;
}
);
note = uni018D;
unicode = 018D;
},
{
glyphname = uni018E;
lastChange = "2017-05-19 14:51:26 +0000";
layers = (
{
layerId = "2831174B-BB35-4064-B049-1570B14F4C27";
paths = (
{
closed = 1;
nodes = (
"809 787 LINE",
"198 787 LINE",
"170 630 LINE",
"782 630 LINE",
"700 158 LINE",
"0 158 LINE",
"-28 0 LINE",
"861 0 LINE",
"1114 1456 LINE",
"215 1456 LINE",
"187 1299 LINE",
"898 1299 LINE"
);
}
);
width = 1129;
}
);
note = uni018E;
rightKerningGroup = H;
unicode = 018E;
},
{
glyphname = uni018F;
lastChange = "2017-05-19 14:51:26 +0000";
layers = (
{
layerId = "2831174B-BB35-4064-B049-1570B14F4C27";
paths = (
{
closed = 1;
nodes = (
"712 -23 OFFCURVE",
"826 10 OFFCURVE",
"923 79 CURVE SMOOTH",
"1118 216 OFFCURVE",
"1242 448 OFFCURVE",
"1275 680 CURVE SMOOTH",
"1288 774 LINE SMOOTH",
"1304 897 OFFCURVE",
"1296 1012 OFFCURVE",
"1263 1118 CURVE SMOOTH",
"1197 1330 OFFCURVE",
"1030 1472 OFFCURVE",
"761 1475 CURVE SMOOTH",
"628 1476 OFFCURVE",
"464 1457 OFFCURVE",
"352 1377 CURVE",
"387 1232 LINE",
"642 1345 OFFCURVE",
"877 1339 OFFCURVE",
"990 1233 CURVE SMOOTH",
"1103 1127 OFFCURVE",
"1136 952 OFFCURVE",
"1099 776 CURVE",
"1096 764 LINE",
"120 767 LINE",
"100 643 LINE SMOOTH",
"84 526 OFFCURVE",
"90 418 OFFCURVE",
"119 318 CURVE SMOOTH",
"176 118 OFFCURVE",
"327 -16 OFFCURVE",
"583 -20 CURVE SMOOTH"
);
},
{
closed = 1;
nodes = (
"329 145 OFFCURVE",
"241 346 OFFCURVE",
"280 583 CURVE SMOOTH",
"287 618 LINE",
"1079 619 LINE",
"1057 542 OFFCURVE",
"1025 466 OFFCURVE",
"984 391 CURVE SMOOTH",
"901 242 OFFCURVE",
"775 134 OFFCURVE",
"592 138 CURVE SMOOTH"
);
}
);
width = 1373;
}
);
note = uni018F;
rightKerningGroup = D;
unicode = 018F;
},
{
glyphname = uni0190;
lastChange = "2017-05-19 14:51:26 +0000";
layers = (
{
layerId = "2831174B-BB35-4064-B049-1570B14F4C27";
paths = (
{
closed = 1;
nodes = (
"466 827 OFFCURVE",
"352 893 OFFCURVE",
"372 1060 CURVE SMOOTH",
"395 1241 OFFCURVE",
"564 1323 OFFCURVE",
"733 1319 CURVE SMOOTH",
"880 1315 OFFCURVE",
"988 1227 OFFCURVE",
"979 1075 CURVE",
"1165 1074 LINE",
"1177 1326 OFFCURVE",
"978 1472 OFFCURVE",
"741 1477 CURVE SMOOTH",
"561 1481 OFFCURVE",
"386 1423 OFFCURVE",
"278 1297 CURVE SMOOTH",
"169 1171 OFFCURVE",
"110 881 OFFCURVE",
"354 750 CURVE",
"187 690 OFFCURVE",
"63 583 OFFCURVE",
"48 398 CURVE SMOOTH",
"25 107 OFFCURVE",
"249 -17 OFFCURVE",
"512 -22 CURVE SMOOTH",
"781 -26 OFFCURVE",
"1032 120 OFFCURVE",
"1063 404 CURVE",
"877 403 LINE",
"846 230 OFFCURVE",
"692 131 OFFCURVE",
"520 134 CURVE SMOOTH",
"356 137 OFFCURVE",
"216 211 OFFCURVE",
"237 394 CURVE SMOOTH",
"260 597 OFFCURVE",
"428 664 OFFCURVE",
"613 664 CURVE SMOOTH",
"762 663 LINE",
"791 822 LINE",
"618 823 LINE SMOOTH"
);
}
);
width = 1189;
}
);
note = uni0190;
unicode = 0190;
},
{
glyphname = uni0191;
lastChange = "2017-05-19 14:51:26 +0000";
layers = (
{
layerId = "2831174B-BB35-4064-B049-1570B14F4C27";
paths = (
{
closed = 1;
nodes = (
"372 1456 LINE",
"108 -89 LINE SMOOTH",
"99 -140 OFFCURVE",
"83 -184 OFFCURVE",
"58 -222 CURVE SMOOTH",
"8 -298 OFFCURVE",
"-80 -284 OFFCURVE",
"-155 -261 CURVE",
"-187 -420 LINE",
"-145 -432 OFFCURVE",
"-106 -438 OFFCURVE",
"-70 -439 CURVE SMOOTH",
"147 -442 OFFCURVE",
"269 -293 OFFCURVE",
"296 -89 CURVE SMOOTH",
"419 643 LINE",
"1010 643 LINE",
"1038 801 LINE",
"446 801 LINE",
"532 1298 LINE",
"1221 1298 LINE",
"1249 1456 LINE"
);
}
);
width = 1158;
}
);
note = uni0191;
unicode = 0191;
},
{
glyphname = florin;
lastChange = "2017-05-19 14:51:26 +0000";
layers = (
{
layerId = "2831174B-BB35-4064-B049-1570B14F4C27";
paths = (
{
closed = 1;
nodes = (
"481 1175 LINE SMOOTH",
"501 1327 OFFCURVE",
"571 1403 OFFCURVE",
"692 1403 CURVE SMOOTH",
"721 1403 OFFCURVE",
"753 1399 OFFCURVE",
"788 1391 CURVE",
"824 1536 LINE",
"763 1551 OFFCURVE",
"714 1559 OFFCURVE",
"677 1559 CURVE SMOOTH",
"453 1563 OFFCURVE",
"327 1407 OFFCURVE",
"302 1196 CURVE SMOOTH",
"288 1082 LINE",
"122 1082 LINE",
"100 940 LINE",
"266 940 LINE",
"108 -89 LINE SMOOTH",
"92 -190 OFFCURVE",
"47 -289 OFFCURVE",
"-60 -289 CURVE SMOOTH",
"-89 -289 OFFCURVE",
"-121 -284 OFFCURVE",
"-156 -273 CURVE",
"-185 -420 LINE",
"-142 -433 OFFCURVE",
"-103 -439 OFFCURVE",
"-67 -440 CURVE SMOOTH",
"149 -443 OFFCURVE",
"267 -293 OFFCURVE",
"290 -89 CURVE",
"447 940 LINE",
"644 940 LINE",
"666 1082 LINE",
"469 1082 LINE"
);
}
);
width = 677;
}
);
note = florin;
unicode = 0192;
},
{
glyphname = uni0193;
lastChange = "2017-05-19 14:51:26 +0000";
layers = (
{
layerId = "2831174B-BB35-4064-B049-1570B14F4C27";
paths = (
{
closed = 1;
nodes = (
"1532 1354 OFFCURVE",
"1554 1350 OFFCURVE",
"1579 1344 CURVE",
"1597 1493 LINE",
"1547 1505 OFFCURVE",
"1507 1511 OFFCURVE",
"1477 1512 CURVE SMOOTH",
"1351 1513 OFFCURVE",
"1257 1451 OFFCURVE",
"1194 1324 CURVE",
"1107 1437 OFFCURVE",
"961 1473 OFFCURVE",
"825 1476 CURVE SMOOTH",
"689 1479 OFFCURVE",
"574 1448 OFFCURVE",
"481 1384 CURVE SMOOTH",
"293 1255 OFFCURVE",
"185 1030 OFFCURVE",
"149 785 CURVE SMOOTH",
"133 672 LINE SMOOTH",
"118 558 OFFCURVE",
"124 449 OFFCURVE",
"152 344 CURVE SMOOTH",
"208 135 OFFCURVE",
"357 -16 OFFCURVE",
"614 -20 CURVE SMOOTH",
"807 -23 OFFCURVE",
"1023 28 OFFCURVE",
"1143 192 CURVE",
"1230 725 LINE",
"716 725 LINE",
"688 569 LINE",
"1016 569 LINE",
"957 243 LINE",
"792 96 OFFCURVE",
"502 113 OFFCURVE",
"410 227 CURVE SMOOTH",
"317 341 OFFCURVE",
"302 519 OFFCURVE",
"322 671 CURVE SMOOTH",
"339 787 LINE SMOOTH",
"352 871 OFFCURVE",
"376 955 OFFCURVE",
"412 1039 CURVE SMOOTH",
"484 1206 OFFCURVE",
"613 1325 OFFCURVE",
"816 1318 CURVE SMOOTH",
"997 1313 OFFCURVE",
"1084 1201 OFFCURVE",
"1100 1029 CURVE",
"1282 1030 LINE",
"1301 1150 LINE SMOOTH",
"1324 1291 OFFCURVE",
"1395 1359 OFFCURVE",
"1514 1355 CURVE SMOOTH"
);
}
);
width = 1407;
}
);
leftKerningGroup = C;
note = uni0193;
unicode = 0193;
},
{
glyphname = uni0194;
lastChange = "2017-05-19 14:51:26 +0000";
layers = (
{
layerId = "2831174B-BB35-4064-B049-1570B14F4C27";
paths = (
{
closed = 1;
nodes = (
"744 -118 OFFCURVE",
"734 -46 OFFCURVE",
"709 28 CURVE SMOOTH",
"684 102 OFFCURVE",
"664 173 OFFCURVE",
"650 240 CURVE",
"1381 1456 LINE",
"1164 1456 LINE",
"595 471 LINE",
"373 1456 LINE",
"173 1456 LINE",
"473 251 LINE",
"434 188 OFFCURVE",
"388 116 OFFCURVE",
"333 36 CURVE SMOOTH",
"278 -45 OFFCURVE",
"248 -124 OFFCURVE",
"243 -202 CURVE SMOOTH",
"234 -345 OFFCURVE",
"329 -428 OFFCURVE",
"468 -429 CURVE SMOOTH",
"619 -430 OFFCURVE",
"728 -340 OFFCURVE",
"739 -188 CURVE SMOOTH"
);
},
{
closed = 1;
nodes = (
"439 -161 OFFCURVE",
"452 -119 OFFCURVE",
"475 -78 CURVE SMOOTH",
"538 35 LINE",
"564 -76 LINE SMOOTH",
"575 -117 OFFCURVE",
"577 -155 OFFCURVE",
"571 -192 CURVE SMOOTH",
"568 -214 OFFCURVE",
"559 -233 OFFCURVE",
"545 -250 CURVE SMOOTH",
"516 -284 OFFCURVE",
"424 -299 OFFCURVE",
"435 -203 CURVE SMOOTH"
);
}
);
width = 1247;
}
);
note = uni0194;
unicode = 0194;
},
{
glyphname = uni0195;
lastChange = "2017-05-19 14:51:26 +0000";
layers = (
{
layerId = "2831174B-BB35-4064-B049-1570B14F4C27";
paths = (
{
closed = 1;
nodes = (
"574 1104 OFFCURVE",
"465 1054 OFFCURVE",
"370 952 CURVE",
"480 1536 LINE",
"299 1536 LINE",
"32 0 LINE",
"213 0 LINE",
"347 774 LINE",
"414 870 OFFCURVE",
"507 950 OFFCURVE",
"631 947 CURVE SMOOTH",
"780 943 OFFCURVE",
"811 838 OFFCURVE",
"796 706 CURVE SMOOTH",
"758 445 LINE SMOOTH",
"749 366 OFFCURVE",
"751 291 OFFCURVE",
"766 221 CURVE SMOOTH",
"795 81 OFFCURVE",
"885 -16 OFFCURVE",
"1066 -21 CURVE SMOOTH",
"1351 -28 OFFCURVE",
"1470 190 OFFCURVE",
"1506 445 CURVE SMOOTH",
"1614 1082 LINE",
"1432 1082 LINE",
"1325 436 LINE SMOOTH",
"1292 228 OFFCURVE",
"1211 128 OFFCURVE",
"1080 136 CURVE SMOOTH",
"1028 139 OFFCURVE",
"992 157 OFFCURVE",
"971 192 CURVE SMOOTH",
"930 261 OFFCURVE",
"933 365 OFFCURVE",
"941 442 CURVE",
"978 705 LINE SMOOTH",
"1003 916 OFFCURVE",
"933 1097 OFFCURVE",
"697 1101 CURVE SMOOTH"
);
}
);
width = 1664;
}
);
note = uni0195;
unicode = 0195;
},
{
glyphname = uni0198;
lastChange = "2017-05-19 14:51:26 +0000";
layers = (
{
layerId = "2831174B-BB35-4064-B049-1570B14F4C27";
paths = (
{
closed = 1;
nodes = (
"683 806 LINE",
"1114 1263 LINE SMOOTH",
"1141 1290 OFFCURVE",
"1172 1304 OFFCURVE",
"1207 1304 CURVE SMOOTH",
"1244 1304 OFFCURVE",
"1279 1291 OFFCURVE",
"1312 1266 CURVE",
"1389 1398 LINE",
"1322 1451 OFFCURVE",
"1258 1478 OFFCURVE",
"1195 1479 CURVE SMOOTH",
"1063 1480 OFFCURVE",
"978 1371 OFFCURVE",
"898 1282 CURVE SMOOTH",
"564 925 LINE",
"373 727 LINE",
"501 1456 LINE",
"312 1456 LINE",
"59 0 LINE",
"248 0 LINE",
"327 455 LINE",
"548 671 LINE",
"926 0 LINE",
"1136 0 LINE"
);
}
);
width = 1246;
}
);
note = uni0198;
rightKerningGroup = K;
unicode = 0198;
},
{
glyphname = uni0199;
lastChange = "2017-05-19 14:51:26 +0000";
layers = (
{
layerId = "2831174B-BB35-4064-B049-1570B14F4C27";
paths = (
{
closed = 1;
nodes = (
"634 1424 OFFCURVE",
"652 1420 OFFCURVE",
"671 1415 CURVE",
"686 1543 LINE",
"638 1554 OFFCURVE",
"602 1559 OFFCURVE",
"579 1559 CURVE SMOOTH",
"394 1563 OFFCURVE",
"269 1432 OFFCURVE",
"245 1255 CURVE SMOOTH",
"32 0 LINE",
"214 0 LINE",
"279 373 LINE",
"421 500 LINE",
"697 0 LINE",
"896 0 LINE",
"553 622 LINE",
"1050 1081 LINE",
"815 1082 LINE",
"430 729 LINE",
"321 619 LINE",
"428 1249 LINE SMOOTH",
"449 1370 OFFCURVE",
"511 1429 OFFCURVE",
"615 1425 CURVE SMOOTH"
);
}
);
width = 1007;
}
);
note = uni0199;
unicode = 0199;
},
{
glyphname = uni019B;
lastChange = "2017-05-19 14:51:26 +0000";
layers = (
{
layerId = "2831174B-BB35-4064-B049-1570B14F4C27";
paths = (
{
closed = 1;
nodes = (
"924 148 LINE",
"875 152 OFFCURVE",
"859 189 OFFCURVE",
"847 233 CURVE",
"651 1200 LINE",
"784 1249 LINE",
"815 1419 LINE",
"619 1346 LINE",
"592 1459 OFFCURVE",
"519 1516 OFFCURVE",
"399 1516 CURVE SMOOTH",
"373 1516 OFFCURVE",
"344 1512 OFFCURVE",
"311 1505 CURVE",
"298 1363 LINE",
"323 1364 LINE",
"380 1369 OFFCURVE",
"415 1352 OFFCURVE",
"436 1280 CURVE",
"308 1232 LINE",
"277 1062 LINE",
"474 1133 LINE",
"495 1041 LINE",
"-72 0 LINE",
"136 0 LINE",
"549 779 LINE",
"674 187 LINE",
"705 70 OFFCURVE",
"752 -17 OFFCURVE",
"884 -16 CURVE",
"906 -15 OFFCURVE",
"929 -12 OFFCURVE",
"953 -5 CURVE",
"960 149 LINE"
);
}
);
width = 1101;
}
);
note = uni019B;
unicode = 019B;
},
{
glyphname = uni019C;
lastChange = "2017-05-19 14:51:26 +0000";
layers = (
{
layerId = "2831174B-BB35-4064-B049-1570B14F4C27";
paths = (
{
closed = 1;
nodes = (
"1791 1456 LINE",
"1610 1456 LINE",
"1420 354 LINE",
"1401 286 OFFCURVE",
"1361 232 OFFCURVE",
"1302 192 CURVE SMOOTH",
"1182 112 OFFCURVE",
"1042 123 OFFCURVE",
"1002 193 CURVE SMOOTH",
"962 263 OFFCURVE",
"965 367 OFFCURVE",
"973 442 CURVE",
"1144 1456 LINE",
"963 1456 LINE",
"788 445 LINE",
"781 380 LINE",
"754 232 OFFCURVE",
"610 131 OFFCURVE",
"462 136 CURVE SMOOTH",
"411 139 OFFCURVE",
"375 158 OFFCURVE",
"355 193 CURVE SMOOTH",
"315 263 OFFCURVE",
"318 367 OFFCURVE",
"326 442 CURVE",
"497 1456 LINE",
"316 1456 LINE",
"145 445 LINE",
"136 372 OFFCURVE",
"137 301 OFFCURVE",
"148 230 CURVE SMOOTH",
"168 89 OFFCURVE",
"246 -17 OFFCURVE",
"421 -22 CURVE SMOOTH",
"575 -26 OFFCURVE",
"699 42 OFFCURVE",
"793 181 CURVE",
"824 44 OFFCURVE",
"934 -17 OFFCURVE",
"1069 -20 CURVE SMOOTH",
"1200 -22 OFFCURVE",
"1307 26 OFFCURVE",
"1392 123 CURVE",
"1368 0 LINE",
"1538 0 LINE"
);
}
);
width = 1809;
}
);
note = uni019C;
rightKerningGroup = H;
unicode = 019C;
},
{
glyphname = uni019D;
lastChange = "2017-05-19 14:51:26 +0000";
layers = (
{
layerId = "2831174B-BB35-4064-B049-1570B14F4C27";
paths = (
{
closed = 1;
nodes = (
"1459 1456 LINE",
"1272 1456 LINE",
"1075 322 LINE",
"553 1456 LINE",
"372 1456 LINE",
"108 -89 LINE SMOOTH",
"99 -140 OFFCURVE",
"83 -184 OFFCURVE",
"58 -222 CURVE SMOOTH",
"8 -298 OFFCURVE",
"-88 -281 OFFCURVE",
"-155 -261 CURVE",
"-187 -420 LINE",
"-145 -433 OFFCURVE",
"-106 -439 OFFCURVE",
"-70 -439 CURVE SMOOTH",
"147 -442 OFFCURVE",
"269 -293 OFFCURVE",
"296 -88 CURVE",
"504 1131 LINE",
"1023 0 LINE",
"1206 0 LINE"
);
}
);
width = 1476;
}
);
note = uni019D;
rightKerningGroup = H;
unicode = 019D;
},
